<?xml version="1.0" encoding="UTF-8" standalone="no"?>
<!-- Generator: Adobe Illustrator 15.0.0, SVG Export Plug-In . SVG Version: 6.00 Build 0)  -->

<svg
   xmlns:dc="http://purl.org/dc/elements/1.1/"
   xmlns:cc="http://creativecommons.org/ns#"
   xmlns:rdf="http://www.w3.org/1999/02/22-rdf-syntax-ns#"
   xmlns:svg="http://www.w3.org/2000/svg"
   xmlns="http://www.w3.org/2000/svg"
   xmlns:sodipodi="http://sodipodi.sourceforge.net/DTD/sodipodi-0.dtd"
   xmlns:inkscape="http://www.inkscape.org/namespaces/inkscape"
   version="1.1"
   id="Layer_1"
   x="0px"
   y="0px"
   width="904.776"
   height="244.319"
   viewBox="0 0 1366 315"
   enable-background="new 0 0 1366 315"
   xml:space="preserve"
   inkscape:version="0.48.4 r9939"
   sodipodi:docname="footer.svg"><metadata
     id="metadata341"><rdf:RDF><cc:Work
         rdf:about=""><dc:format>image/svg+xml</dc:format><dc:type
           rdf:resource="http://purl.org/dc/dcmitype/StillImage" /></cc:Work></rdf:RDF></metadata><defs
     id="defs339" /><sodipodi:namedview
     pagecolor="#ffffff"
     bordercolor="#666666"
     borderopacity="1"
     objecttolerance="10"
     gridtolerance="10"
     guidetolerance="10"
     inkscape:pageopacity="0"
     inkscape:pageshadow="2"
     inkscape:window-width="1366"
     inkscape:window-height="713"
     id="namedview337"
     showgrid="false"
     inkscape:zoom="0.70415574"
     inkscape:cx="533.64405"
     inkscape:cy="184.82491"
     inkscape:window-x="0"
     inkscape:window-y="30"
     inkscape:window-maximized="1"
     inkscape:current-layer="Layer_1" /><g
     id="g3145"
     transform="translate(0,39.253916)"><g
       transform="matrix(1.5023839,0,0,1.5023839,-402.792,-75.109366)"
       id="g7"><path
         stroke-miterlimit="10"
         d="M 1130.425,193.621 V 161.18 h -23.297 v -21.561 h -24.057 v 38.004 h -25.447 v 40.609 h -20.966 v 12.043 41.508 1.971 h 89.156 46.747 v -43.479 -36.654 h -42.136 z m 14.305,60.359 h -11.62 v -13.943 h 11.62 v 13.943 z m 0,-18.191 h -11.62 v -13.941 h 11.62 v 13.941 z m 0,-18.191 h -11.62 v -13.941 h 11.62 v 13.941 z m 16.787,36.382 h -11.621 v -13.943 h 11.621 v 13.943 z m 0,-18.191 h -11.621 v -13.941 h 11.621 v 13.941 z m 0,-18.191 h -11.621 v -13.941 h 11.621 v 13.941 z"
         id="path9"
         inkscape:connector-curvature="0"
         style="fill:#0277bd;stroke:#81d4fa;stroke-miterlimit:10" /><path
         stroke-miterlimit="10"
         d="m 994.43,89.391 h -23.3 V 67.83 h -24.056 v 38.004 h -25.445 v 40.609 h -20.968 v 12.043 41.506 54.363 h 89.157 46.747 V 158.486 121.832 H 994.43 V 89.391 z m 19.47,42.474 h 11.621 v 13.941 H 1013.9 v -13.941 z m 0,18.194 h 11.621 V 164 H 1013.9 v -13.941 z m 0,18.191 h 11.621 v 13.939 H 1013.9 V 168.25 z m -16.786,-36.385 h 11.622 v 13.941 H 997.114 V 131.865 z M 983.665,95.976 h 4.806 v 56.726 h -4.806 V 95.976 z m -6.939,0 h 4.805 v 56.726 h -4.805 V 95.976 z m 20.388,54.083 h 11.622 V 164 h -11.622 v -13.941 z m 0,18.191 h 11.622 v 13.939 H 997.114 V 168.25 z m -68.353,-54.741 h 11.622 v 13.941 h -11.622 v -13.941 z m 0,18.192 h 11.622 v 13.941 h -11.622 v -13.941 z m 0,18.192 h 11.622 v 13.94 h -11.622 v -13.94 z"
         id="path11"
         inkscape:connector-curvature="0"
         style="fill:#0277bd;stroke:#81d4fa;stroke-miterlimit:10" /><path
         stroke-miterlimit="10"
         d="m 268.785,257.467 c 0,0 79.579,-38.613 105.335,-45.57 25.755,-6.957 71.158,46.371 98.957,53.707 27.798,7.335 -204.292,-8.137 -204.292,-8.137 z"
         id="path13"
         inkscape:connector-curvature="0"
         style="fill:#0277bd;stroke:#81d4fa;stroke-miterlimit:10" /><path
         stroke-miterlimit="10"
         d="m 505.632,247.422 c 0,0 61.458,-44.914 81.349,-53.006 19.891,-8.092 54.955,53.938 76.424,62.471 21.467,8.533 -157.773,-9.465 -157.773,-9.465 z"
         id="path15"
         inkscape:connector-curvature="0"
         style="fill:#0277bd;stroke:#81d4fa;stroke-miterlimit:10" /><path
         stroke-miterlimit="10"
         d="m 352.275,265.281 c 0,0 61.459,-44.914 81.35,-53.007 19.891,-8.093 54.955,53.938 76.423,62.47 21.469,8.533 -157.773,-9.463 -157.773,-9.463 z"
         id="path17"
         inkscape:connector-curvature="0"
         style="fill:#0277bd;stroke:#81d4fa;stroke-miterlimit:10" /><path
         stroke-miterlimit="10"
         d="m 376.745,254.354 c 0,0 104.079,-50.501 137.764,-59.601 9.679,-2.615 34.362,10.281 45.75,19.434 46.222,37.148 56.666,-26.891 107.219,8.48 12.905,9.029 35.554,24.17 47.522,32.33 10.64,7.256 -79.747,7.707 -71.068,9.998 36.356,9.595 -267.187,-10.641 -267.187,-10.641 z"
         id="path19"
         inkscape:connector-curvature="0"
         style="fill:#0277bd;stroke:#81d4fa;stroke-miterlimit:10" /><path
         stroke-miterlimit="10"
         d="M 788.528,147.394 V 123.547 H 771.404 V 107.7 H 753.72 v 27.934 h -18.702 v 29.85 h -15.414 v 8.853 14.436 H 681.477 V 156.33 h -21.373 v 112.572 h 16.765 46.746 v -43.477 -8.82 h 61.524 34.362 v -42.27 -26.942 h -30.973 z m -42.532,-6.245 h 4.855 v 8.554 h -4.855 v -8.554 z m -50.209,107.98 H 684.166 V 235.19 h 11.621 v 13.939 z m 0,-18.191 h -11.621 v -13.94 h 11.621 v 13.94 z m 0,-18.194 h -11.621 v -13.939 h 11.621 v 13.939 z m 16.784,36.385 H 700.95 V 235.19 h 11.621 v 13.939 z m 0,-18.191 H 700.95 v -13.94 h 11.621 v 13.94 z m 0,-18.194 H 700.95 v -13.939 h 11.621 v 13.939 z m 15.773,-22.075 h -4.729 v -1.897 h -0.129 v -6.657 h 4.857 v 8.554 z m 0,-12.155 h -4.857 v -8.555 h 4.857 v 8.555 z m 7.172,12.155 h -4.855 v -8.555 h 4.855 v 8.555 z m 0,-12.155 h -4.855 v -8.555 h 4.855 v 8.555 z m 8.167,-16.657 h -4.858 v -8.555 h 4.858 v 8.555 z m 0,-12.154 h -4.858 v -8.554 h 4.858 v 8.554 z m 2.313,3.6 h 4.855 v 8.555 h -4.855 v -8.555 z m 8.719,51.578 h -4.857 v -8.555 h 4.857 v 8.555 z m 0,-12.156 h -4.857 v -8.551 h 4.857 v 8.551 z m 7.17,12.156 h -4.855 v -8.555 h 4.855 v 8.555 z m 0,-12.156 h -4.855 v -8.551 h 4.855 v 8.551 z m 8.167,-16.657 h -4.855 v -8.553 h 4.855 v 8.553 z m 0,-12.153 h -4.855 v -8.554 h 4.855 v 8.554 z m 7.172,12.153 h -4.856 v -8.553 h 4.856 v 8.553 z m 0,-12.153 h -4.856 v -8.554 h 4.856 v 8.554 z m 21.821,27.845 h -8.542 v -10.247 h 8.542 v 10.247 z m 0,-13.373 h -8.542 v -10.248 h 8.542 v 10.248 z m 0,-13.371 h -8.542 v -10.245 h 8.542 v 10.245 z m 12.338,26.744 h -8.543 v -10.247 h 8.543 v 10.247 z m 0,-13.373 h -8.543 v -10.248 h 8.543 v 10.248 z m 0,-13.371 h -8.543 v -10.245 h 8.543 v 10.245 z"
         id="path21"
         inkscape:connector-curvature="0"
         style="fill:#0277bd;stroke:#81d4fa;stroke-miterlimit:10" /><path
         stroke-miterlimit="10"
         d="m 819.448,144.307 v -0.072 h -0.002 c -0.137,-7.83 -6.147,-14.225 -13.809,-14.954 l -2.706,-0.017 c -7.856,0.634 -14.037,7.214 -14.037,15.246 0,0.35 0.018,0.695 0.039,1.04 v 105.786 h 30.515 V 144.713 c 0,-0.07 0.004,-0.135 0.004,-0.203 0,-0.068 -0.004,-0.135 -0.004,-0.203"
         id="path23"
         inkscape:connector-curvature="0"
         style="fill:#0277bd;stroke:#81d4fa;stroke-miterlimit:10" /><path
         stroke-miterlimit="10"
         d="m 798.654,158.875 c 0,1.532 -1.241,2.772 -2.77,2.772 -1.527,0 -2.767,-1.24 -2.767,-2.772 v -5.376 c 0,-1.53 1.239,-2.771 2.767,-2.771 1.528,0 2.77,1.241 2.77,2.771 v 5.376 z"
         id="path25"
         inkscape:connector-curvature="0"
         style="fill:#0277bd;stroke:#81d4fa;stroke-miterlimit:10" /><path
         stroke-miterlimit="10"
         d="m 806.941,158.875 c 0,1.532 -1.238,2.772 -2.768,2.772 -1.528,0 -2.769,-1.24 -2.769,-2.772 v -5.376 c 0,-1.53 1.24,-2.771 2.769,-2.771 1.529,0 2.768,1.241 2.768,2.771 v 5.376 z"
         id="path27"
         inkscape:connector-curvature="0"
         style="fill:#0277bd;stroke:#81d4fa;stroke-miterlimit:10" /><path
         stroke-miterlimit="10"
         d="m 815.23,158.875 c 0,1.532 -1.24,2.772 -2.768,2.772 -1.529,0 -2.77,-1.24 -2.77,-2.772 v -5.376 c 0,-1.53 1.24,-2.771 2.77,-2.771 1.527,0 2.768,1.241 2.768,2.771 v 5.376 z"
         id="path29"
         inkscape:connector-curvature="0"
         style="fill:#0277bd;stroke:#81d4fa;stroke-miterlimit:10" /><path
         stroke-miterlimit="10"
         d="m 798.654,173.352 c 0,1.531 -1.241,2.771 -2.77,2.771 -1.527,0 -2.767,-1.24 -2.767,-2.771 v -5.376 c 0,-1.531 1.239,-2.772 2.767,-2.772 1.528,0 2.77,1.241 2.77,2.772 v 5.376 z"
         id="path31"
         inkscape:connector-curvature="0"
         style="fill:#0277bd;stroke:#81d4fa;stroke-miterlimit:10" /><path
         stroke-miterlimit="10"
         d="m 806.941,173.352 c 0,1.531 -1.238,2.771 -2.768,2.771 -1.528,0 -2.769,-1.24 -2.769,-2.771 v -5.376 c 0,-1.531 1.24,-2.772 2.769,-2.772 1.529,0 2.768,1.241 2.768,2.772 v 5.376 z"
         id="path33"
         inkscape:connector-curvature="0"
         style="fill:#0277bd;stroke:#81d4fa;stroke-miterlimit:10" /><path
         stroke-miterlimit="10"
         d="m 815.23,173.352 c 0,1.531 -1.24,2.771 -2.768,2.771 -1.529,0 -2.77,-1.24 -2.77,-2.771 v -5.376 c 0,-1.531 1.24,-2.772 2.77,-2.772 1.527,0 2.768,1.241 2.768,2.772 v 5.376 z"
         id="path35"
         inkscape:connector-curvature="0"
         style="fill:#0277bd;stroke:#81d4fa;stroke-miterlimit:10" /><path
         stroke-miterlimit="10"
         d="m 798.654,187.827 c 0,1.53 -1.241,2.772 -2.77,2.772 -1.527,0 -2.767,-1.242 -2.767,-2.772 v -5.376 c 0,-1.53 1.239,-2.771 2.767,-2.771 1.528,0 2.77,1.241 2.77,2.771 v 5.376 z"
         id="path37"
         inkscape:connector-curvature="0"
         style="fill:#0277bd;stroke:#81d4fa;stroke-miterlimit:10" /><path
         stroke-miterlimit="10"
         d="m 806.941,187.827 c 0,1.53 -1.238,2.772 -2.768,2.772 -1.528,0 -2.769,-1.242 -2.769,-2.772 v -5.376 c 0,-1.53 1.24,-2.771 2.769,-2.771 1.529,0 2.768,1.241 2.768,2.771 v 5.376 z"
         id="path39"
         inkscape:connector-curvature="0"
         style="fill:#0277bd;stroke:#81d4fa;stroke-miterlimit:10" /><path
         stroke-miterlimit="10"
         d="m 815.23,187.827 c 0,1.53 -1.24,2.772 -2.768,2.772 -1.529,0 -2.77,-1.242 -2.77,-2.772 v -5.376 c 0,-1.53 1.24,-2.771 2.77,-2.771 1.527,0 2.768,1.241 2.768,2.771 v 5.376 z"
         id="path41"
         inkscape:connector-curvature="0"
         style="fill:#0277bd;stroke:#81d4fa;stroke-miterlimit:10" /><path
         stroke-miterlimit="10"
         d="m 798.654,202.305 c 0,1.531 -1.241,2.771 -2.77,2.771 -1.527,0 -2.767,-1.239 -2.767,-2.771 v -5.377 c 0,-1.532 1.239,-2.771 2.767,-2.771 1.528,0 2.77,1.239 2.77,2.771 v 5.377 z"
         id="path43"
         inkscape:connector-curvature="0"
         style="fill:#0277bd;stroke:#81d4fa;stroke-miterlimit:10" /><path
         stroke-miterlimit="10"
         d="m 806.941,202.305 c 0,1.531 -1.238,2.771 -2.768,2.771 -1.528,0 -2.769,-1.239 -2.769,-2.771 v -5.377 c 0,-1.532 1.24,-2.771 2.769,-2.771 1.529,0 2.768,1.239 2.768,2.771 v 5.377 z"
         id="path45"
         inkscape:connector-curvature="0"
         style="fill:#0277bd;stroke:#81d4fa;stroke-miterlimit:10" /><path
         stroke-miterlimit="10"
         d="m 815.23,202.305 c 0,1.531 -1.24,2.771 -2.768,2.771 -1.529,0 -2.77,-1.239 -2.77,-2.771 v -5.377 c 0,-1.532 1.24,-2.771 2.77,-2.771 1.527,0 2.768,1.239 2.768,2.771 v 5.377 z"
         id="path47"
         inkscape:connector-curvature="0"
         style="fill:#0277bd;stroke:#81d4fa;stroke-miterlimit:10" /><path
         stroke-miterlimit="10"
         d="m 798.654,216.779 c 0,1.531 -1.241,2.773 -2.77,2.773 -1.527,0 -2.767,-1.242 -2.767,-2.773 v -5.377 c 0,-1.529 1.239,-2.771 2.767,-2.771 1.528,0 2.77,1.242 2.77,2.771 v 5.377 z"
         id="path49"
         inkscape:connector-curvature="0"
         style="fill:#0277bd;stroke:#81d4fa;stroke-miterlimit:10" /><path
         stroke-miterlimit="10"
         d="m 806.941,216.779 c 0,1.531 -1.238,2.773 -2.768,2.773 -1.528,0 -2.769,-1.242 -2.769,-2.773 v -5.377 c 0,-1.529 1.24,-2.771 2.769,-2.771 1.529,0 2.768,1.242 2.768,2.771 v 5.377 z"
         id="path51"
         inkscape:connector-curvature="0"
         style="fill:#0277bd;stroke:#81d4fa;stroke-miterlimit:10" /><path
         stroke-miterlimit="10"
         d="m 815.23,216.779 c 0,1.531 -1.24,2.773 -2.768,2.773 -1.529,0 -2.77,-1.242 -2.77,-2.773 v -5.377 c 0,-1.529 1.24,-2.771 2.77,-2.771 1.527,0 2.768,1.242 2.768,2.771 v 5.377 z"
         id="path53"
         inkscape:connector-curvature="0"
         style="fill:#0277bd;stroke:#81d4fa;stroke-miterlimit:10" /><rect
         x="788.89502"
         y="144.50999"
         stroke-miterlimit="10"
         width="30.558001"
         height="1.768"
         id="rect55"
         style="fill:#0277bd;stroke:#81d4fa;stroke-miterlimit:10" /><rect
         x="788.89502"
         y="177.061"
         stroke-miterlimit="10"
         width="30.558001"
         height="1.768"
         id="rect57"
         style="fill:#0277bd;stroke:#81d4fa;stroke-miterlimit:10" /><rect
         x="788.89502"
         y="206.08"
         stroke-miterlimit="10"
         width="30.558001"
         height="1.77"
         id="rect59"
         style="fill:#0277bd;stroke:#81d4fa;stroke-miterlimit:10" /><polygon
         stroke-miterlimit="10"
         points="1012.443,173.816 996.758,191.138 996.758,254.921 1029.048,254.921 1029.048,191.138 "
         id="polygon61"
         style="fill:#0277bd;stroke:#81d4fa;stroke-miterlimit:10" /><polygon
         stroke-miterlimit="10"
         points="1033.783,198.875 1038.114,194.723 1012.779,168.209 987.229,194.723 991.561,198.875 1012.674,177.514 "
         id="polygon63"
         style="fill:#0277bd;stroke:#81d4fa;stroke-miterlimit:10" /><rect
         x="1001.371"
         y="196.545"
         stroke-miterlimit="10"
         width="9.6879997"
         height="11.6"
         id="rect65"
         style="fill:#0277bd;stroke:#81d4fa;stroke-miterlimit:10" /><rect
         x="1002.984"
         y="198.47701"
         stroke-miterlimit="10"
         width="6.46"
         height="7.7350001"
         id="rect67"
         style="fill:#0277bd;stroke:#81d4fa;stroke-miterlimit:10" /><rect
         x="1014.518"
         y="196.545"
         stroke-miterlimit="10"
         width="9.6870003"
         height="11.6"
         id="rect69"
         style="fill:#0277bd;stroke:#81d4fa;stroke-miterlimit:10" /><rect
         x="1016.132"
         y="198.47701"
         stroke-miterlimit="10"
         width="6.4580002"
         height="7.7350001"
         id="rect71"
         style="fill:#0277bd;stroke:#81d4fa;stroke-miterlimit:10" /><rect
         x="1001.371"
         y="210.093"
         stroke-miterlimit="10"
         width="9.6879997"
         height="11.603"
         id="rect73"
         style="fill:#0277bd;stroke:#81d4fa;stroke-miterlimit:10" /><rect
         x="1002.984"
         y="212.02499"
         stroke-miterlimit="10"
         width="6.46"
         height="7.7360001"
         id="rect75"
         style="fill:#0277bd;stroke:#81d4fa;stroke-miterlimit:10" /><rect
         x="1014.518"
         y="210.093"
         stroke-miterlimit="10"
         width="9.6870003"
         height="11.603"
         id="rect77"
         style="fill:#0277bd;stroke:#81d4fa;stroke-miterlimit:10" /><rect
         x="1016.132"
         y="212.02499"
         stroke-miterlimit="10"
         width="6.4580002"
         height="7.7360001"
         id="rect79"
         style="fill:#0277bd;stroke:#81d4fa;stroke-miterlimit:10" /><rect
         x="1001.371"
         y="223.64301"
         stroke-miterlimit="10"
         width="9.6879997"
         height="11.602"
         id="rect81"
         style="fill:#0277bd;stroke:#81d4fa;stroke-miterlimit:10" /><rect
         x="1002.984"
         y="225.577"
         stroke-miterlimit="10"
         width="6.46"
         height="7.7329998"
         id="rect83"
         style="fill:#0277bd;stroke:#81d4fa;stroke-miterlimit:10" /><rect
         x="1008.707"
         y="237.067"
         stroke-miterlimit="10"
         width="7.7480001"
         height="16.771999"
         id="rect85"
         style="fill:#0277bd;stroke:#81d4fa;stroke-miterlimit:10" /><rect
         x="1010.319"
         y="238.539"
         stroke-miterlimit="10"
         width="4.5209999"
         height="14.842"
         id="rect87"
         style="fill:#0277bd;stroke:#81d4fa;stroke-miterlimit:10" /><rect
         x="1014.518"
         y="223.64301"
         stroke-miterlimit="10"
         width="9.6870003"
         height="11.602"
         id="rect89"
         style="fill:#0277bd;stroke:#81d4fa;stroke-miterlimit:10" /><rect
         x="1016.132"
         y="225.577"
         stroke-miterlimit="10"
         width="6.4580002"
         height="7.7329998"
         id="rect91"
         style="fill:#0277bd;stroke:#81d4fa;stroke-miterlimit:10" /><rect
         x="1058.229"
         y="142.52299"
         stroke-miterlimit="10"
         width="56.487999"
         height="110.676"
         id="rect93"
         style="fill:#0277bd;stroke:#81d4fa;stroke-miterlimit:10" /><rect
         x="1067.7419"
         y="150.47301"
         stroke-miterlimit="10"
         width="36.867001"
         height="5.434"
         id="rect95"
         style="fill:#0277bd;stroke:#81d4fa;stroke-miterlimit:10" /><rect
         x="1067.7419"
         y="160.201"
         stroke-miterlimit="10"
         width="36.867001"
         height="5.434"
         id="rect97"
         style="fill:#0277bd;stroke:#81d4fa;stroke-miterlimit:10" /><rect
         x="1067.7419"
         y="169.93201"
         stroke-miterlimit="10"
         width="36.867001"
         height="5.4330001"
         id="rect99"
         style="fill:#0277bd;stroke:#81d4fa;stroke-miterlimit:10" /><rect
         x="1067.7419"
         y="179.658"
         stroke-miterlimit="10"
         width="36.867001"
         height="5.4369998"
         id="rect101"
         style="fill:#0277bd;stroke:#81d4fa;stroke-miterlimit:10" /><rect
         x="1067.7419"
         y="189.38901"
         stroke-miterlimit="10"
         width="36.867001"
         height="5.434"
         id="rect103"
         style="fill:#0277bd;stroke:#81d4fa;stroke-miterlimit:10" /><rect
         x="1067.7419"
         y="199.118"
         stroke-miterlimit="10"
         width="36.867001"
         height="5.4349999"
         id="rect105"
         style="fill:#0277bd;stroke:#81d4fa;stroke-miterlimit:10" /><rect
         x="1067.7419"
         y="208.847"
         stroke-miterlimit="10"
         width="36.867001"
         height="5.4349999"
         id="rect107"
         style="fill:#0277bd;stroke:#81d4fa;stroke-miterlimit:10" /><rect
         x="1067.7419"
         y="218.576"
         stroke-miterlimit="10"
         width="36.867001"
         height="5.4359999"
         id="rect109"
         style="fill:#0277bd;stroke:#81d4fa;stroke-miterlimit:10" /><rect
         x="1067.7419"
         y="228.30701"
         stroke-miterlimit="10"
         width="36.867001"
         height="5.434"
         id="rect111"
         style="fill:#0277bd;stroke:#81d4fa;stroke-miterlimit:10" /><rect
         x="1067.7419"
         y="238.034"
         stroke-miterlimit="10"
         width="36.867001"
         height="5.4369998"
         id="rect113"
         style="fill:#0277bd;stroke:#81d4fa;stroke-miterlimit:10" /><rect
         x="1067.7419"
         y="247.76401"
         stroke-miterlimit="10"
         width="36.867001"
         height="5.4359999"
         id="rect115"
         style="fill:#0277bd;stroke:#81d4fa;stroke-miterlimit:10" /><rect
         x="1060.576"
         y="150.47301"
         stroke-miterlimit="10"
         width="3.3989999"
         height="24.892"
         id="rect117"
         style="fill:#0277bd;stroke:#81d4fa;stroke-miterlimit:10" /><rect
         x="1060.576"
         y="189.38901"
         stroke-miterlimit="10"
         width="3.3989999"
         height="24.893"
         id="rect119"
         style="fill:#0277bd;stroke:#81d4fa;stroke-miterlimit:10" /><rect
         x="1107.748"
         y="150.47301"
         stroke-miterlimit="10"
         width="3.404"
         height="24.892"
         id="rect121"
         style="fill:#0277bd;stroke:#81d4fa;stroke-miterlimit:10" /><rect
         x="1107.748"
         y="189.38901"
         stroke-miterlimit="10"
         width="3.404"
         height="24.893"
         id="rect123"
         style="fill:#0277bd;stroke:#81d4fa;stroke-miterlimit:10" /><rect
         x="783.573"
         y="222.22501"
         stroke-miterlimit="10"
         width="72.699997"
         height="31.156"
         id="rect125"
         style="fill:#0277bd;stroke:#81d4fa;stroke-miterlimit:10" /><path
         stroke-miterlimit="10"
         d="M 827.557,253.525 V 236.92 c 0,-2.412 -1.953,-4.367 -4.361,-4.367 h -8.724 c -2.41,0 -4.363,1.955 -4.363,4.367 v 16.605"
         id="path127"
         inkscape:connector-curvature="0"
         style="fill:#0277bd;stroke:#81d4fa;stroke-miterlimit:10" /><polygon
         stroke-miterlimit="10"
         points="777.577,227.838 784.118,210.34 856.454,210.34 864.089,227.838 "
         id="polygon129"
         style="fill:#0277bd;stroke:#81d4fa;stroke-miterlimit:10" /><polygon
         stroke-miterlimit="10"
         points="783.572,211.797 777.577,227.838 783.572,227.838 "
         id="polygon131"
         style="fill:#0277bd;stroke:#81d4fa;stroke-miterlimit:10" /><rect
         x="788.66302"
         y="210.34"
         stroke-miterlimit="10"
         width="6.1789999"
         height="17.497999"
         id="rect133"
         style="fill:#0277bd;stroke:#81d4fa;stroke-miterlimit:10" /><rect
         x="799.93201"
         y="210.34"
         stroke-miterlimit="10"
         width="6.1789999"
         height="17.497999"
         id="rect135"
         style="fill:#0277bd;stroke:#81d4fa;stroke-miterlimit:10" /><rect
         x="811.20001"
         y="210.34"
         stroke-miterlimit="10"
         width="6.178"
         height="17.497999"
         id="rect137"
         style="fill:#0277bd;stroke:#81d4fa;stroke-miterlimit:10" /><rect
         x="822.46802"
         y="210.34"
         stroke-miterlimit="10"
         width="6.1810002"
         height="17.497999"
         id="rect139"
         style="fill:#0277bd;stroke:#81d4fa;stroke-miterlimit:10" /><rect
         x="833.73499"
         y="210.34"
         stroke-miterlimit="10"
         width="6.1799998"
         height="17.497999"
         id="rect141"
         style="fill:#0277bd;stroke:#81d4fa;stroke-miterlimit:10" /><rect
         x="845.00598"
         y="210.34"
         stroke-miterlimit="10"
         width="6.1799998"
         height="17.497999"
         id="rect143"
         style="fill:#0277bd;stroke:#81d4fa;stroke-miterlimit:10" /><polygon
         stroke-miterlimit="10"
         points="862.453,224.086 856.454,210.34 856.272,210.34 856.272,227.838 862.453,227.838 "
         id="polygon145"
         style="fill:#0277bd;stroke:#81d4fa;stroke-miterlimit:10" /><rect
         x="851.18597"
         y="140.55299"
         stroke-miterlimit="10"
         width="63.269001"
         height="112.973"
         id="rect147"
         style="fill:#0277bd;stroke:#81d4fa;stroke-miterlimit:10" /><rect
         x="858.284"
         y="148.27901"
         stroke-miterlimit="10"
         width="13.384"
         height="19.941999"
         id="rect149"
         style="fill:#0277bd;stroke:#81d4fa;stroke-miterlimit:10" /><rect
         x="876.12903"
         y="148.27901"
         stroke-miterlimit="10"
         width="13.381"
         height="19.941999"
         id="rect151"
         style="fill:#0277bd;stroke:#81d4fa;stroke-miterlimit:10" /><rect
         x="893.97101"
         y="148.27901"
         stroke-miterlimit="10"
         width="13.381"
         height="19.941999"
         id="rect153"
         style="fill:#0277bd;stroke:#81d4fa;stroke-miterlimit:10" /><rect
         x="858.284"
         y="172.08299"
         stroke-miterlimit="10"
         width="13.384"
         height="19.941999"
         id="rect155"
         style="fill:#0277bd;stroke:#81d4fa;stroke-miterlimit:10" /><rect
         x="876.12903"
         y="172.08299"
         stroke-miterlimit="10"
         width="13.381"
         height="19.941999"
         id="rect157"
         style="fill:#0277bd;stroke:#81d4fa;stroke-miterlimit:10" /><rect
         x="893.97101"
         y="172.08299"
         stroke-miterlimit="10"
         width="13.381"
         height="19.941999"
         id="rect159"
         style="fill:#0277bd;stroke:#81d4fa;stroke-miterlimit:10" /><rect
         x="858.284"
         y="195.88901"
         stroke-miterlimit="10"
         width="13.384"
         height="19.941"
         id="rect161"
         style="fill:#0277bd;stroke:#81d4fa;stroke-miterlimit:10" /><rect
         x="876.12903"
         y="195.88901"
         stroke-miterlimit="10"
         width="13.381"
         height="19.941"
         id="rect163"
         style="fill:#0277bd;stroke:#81d4fa;stroke-miterlimit:10" /><rect
         x="893.97101"
         y="195.88901"
         stroke-miterlimit="10"
         width="13.381"
         height="19.941"
         id="rect165"
         style="fill:#0277bd;stroke:#81d4fa;stroke-miterlimit:10" /><rect
         x="858.284"
         y="219.69501"
         stroke-miterlimit="10"
         width="13.384"
         height="19.938999"
         id="rect167"
         style="fill:#0277bd;stroke:#81d4fa;stroke-miterlimit:10" /><rect
         x="876.12903"
         y="219.69501"
         stroke-miterlimit="10"
         width="13.381"
         height="19.938999"
         id="rect169"
         style="fill:#0277bd;stroke:#81d4fa;stroke-miterlimit:10" /><rect
         x="893.97101"
         y="219.69501"
         stroke-miterlimit="10"
         width="13.381"
         height="19.938999"
         id="rect171"
         style="fill:#0277bd;stroke:#81d4fa;stroke-miterlimit:10" /><rect
         x="716.15002"
         y="222.22501"
         stroke-miterlimit="10"
         width="72.698997"
         height="31.156"
         id="rect173"
         style="fill:#0277bd;stroke:#81d4fa;stroke-miterlimit:10" /><polygon
         stroke-miterlimit="10"
         points="710.151,227.838 716.695,210.34 789.029,210.34 796.665,227.838 "
         id="polygon175"
         style="fill:#0277bd;stroke:#81d4fa;stroke-miterlimit:10" /><polygon
         stroke-miterlimit="10"
         points="752.946,172.842 737.264,190.162 737.264,253.943 769.553,253.943 769.553,190.162 "
         id="polygon177"
         style="fill:#0277bd;stroke:#81d4fa;stroke-miterlimit:10" /><polygon
         stroke-miterlimit="10"
         points="774.289,197.898 778.621,193.748 753.286,167.234 727.734,193.748 732.066,197.898 753.178,176.537 "
         id="polygon179"
         style="fill:#0277bd;stroke:#81d4fa;stroke-miterlimit:10" /><rect
         x="741.87701"
         y="195.567"
         stroke-miterlimit="10"
         width="9.6850004"
         height="11.603"
         id="rect181"
         style="fill:#0277bd;stroke:#81d4fa;stroke-miterlimit:10" /><rect
         x="743.49103"
         y="197.50101"
         stroke-miterlimit="10"
         width="6.4569998"
         height="7.7350001"
         id="rect183"
         style="fill:#0277bd;stroke:#81d4fa;stroke-miterlimit:10" /><rect
         x="755.02197"
         y="195.567"
         stroke-miterlimit="10"
         width="9.6859999"
         height="11.603"
         id="rect185"
         style="fill:#0277bd;stroke:#81d4fa;stroke-miterlimit:10" /><rect
         x="756.638"
         y="197.50101"
         stroke-miterlimit="10"
         width="6.4569998"
         height="7.7350001"
         id="rect187"
         style="fill:#0277bd;stroke:#81d4fa;stroke-miterlimit:10" /><rect
         x="741.87701"
         y="209.117"
         stroke-miterlimit="10"
         width="9.6850004"
         height="11.602"
         id="rect189"
         style="fill:#0277bd;stroke:#81d4fa;stroke-miterlimit:10" /><rect
         x="743.49103"
         y="211.05299"
         stroke-miterlimit="10"
         width="6.4569998"
         height="7.7340002"
         id="rect191"
         style="fill:#0277bd;stroke:#81d4fa;stroke-miterlimit:10" /><rect
         x="755.02197"
         y="209.117"
         stroke-miterlimit="10"
         width="9.6859999"
         height="11.602"
         id="rect193"
         style="fill:#0277bd;stroke:#81d4fa;stroke-miterlimit:10" /><rect
         x="756.638"
         y="211.05299"
         stroke-miterlimit="10"
         width="6.4569998"
         height="7.7340002"
         id="rect195"
         style="fill:#0277bd;stroke:#81d4fa;stroke-miterlimit:10" /><rect
         x="741.87701"
         y="222.668"
         stroke-miterlimit="10"
         width="9.6850004"
         height="11.6"
         id="rect197"
         style="fill:#0277bd;stroke:#81d4fa;stroke-miterlimit:10" /><rect
         x="743.49103"
         y="224.603"
         stroke-miterlimit="10"
         width="6.4569998"
         height="7.7329998"
         id="rect199"
         style="fill:#0277bd;stroke:#81d4fa;stroke-miterlimit:10" /><rect
         x="755.02197"
         y="222.668"
         stroke-miterlimit="10"
         width="9.6859999"
         height="11.6"
         id="rect201"
         style="fill:#0277bd;stroke:#81d4fa;stroke-miterlimit:10" /><rect
         x="756.638"
         y="224.603"
         stroke-miterlimit="10"
         width="6.4569998"
         height="7.7329998"
         id="rect203"
         style="fill:#0277bd;stroke:#81d4fa;stroke-miterlimit:10" /><rect
         x="417.72198"
         y="242.685"
         stroke-miterlimit="10"
         width="17.872"
         height="16.142"
         id="rect205"
         style="fill:#0277bd;stroke:#81d4fa;stroke-miterlimit:10" /><rect
         x="438.396"
         y="235.85699"
         stroke-miterlimit="10"
         width="19.475"
         height="23.445"
         id="rect207"
         style="fill:#0277bd;stroke:#81d4fa;stroke-miterlimit:10" /><rect
         x="461.25"
         y="239.42599"
         stroke-miterlimit="10"
         width="6.5"
         height="19.877001"
         id="rect209"
         style="fill:#0277bd;stroke:#81d4fa;stroke-miterlimit:10" /><rect
         x="470.38699"
         y="230.993"
         stroke-miterlimit="10"
         width="9.7370005"
         height="26.603001"
         id="rect211"
         style="fill:#0277bd;stroke:#81d4fa;stroke-miterlimit:10" /><rect
         x="379.276"
         y="237.883"
         stroke-miterlimit="10"
         width="19.474001"
         height="20.031"
         id="rect213"
         style="fill:#0277bd;stroke:#81d4fa;stroke-miterlimit:10" /></g><path
       stroke-miterlimit="10"
       d="m 940.53899,2.0200185 c -0.75419,0 -1.49487,0.055595 -2.22051,0.1562477 0,-0.052582 0.005,-0.1036685 0.005,-0.1562477 0,-9.1164663 -7.38122,-16.5081945 -16.48718,-16.5081945 -2.57358,0 -5.01044,0.591939 -7.17989,1.646612 -2.97322,-6.829837 -9.76698,-11.605914 -17.68306,-11.605914 -10.07197,0 -18.33508,7.73277 -19.20045,17.5944173 -0.77974,-0.099154 -1.56999,-0.1562484 -2.37678,-0.1562484 -10.30484,0 -18.6596,8.3652738 -18.6596,18.6866511 v 6.664575 h 1.22745 34.8628 26.53511 4.87523 32.60023 c 10e-4,-9.0158058 -7.29708,-16.3218985 -16.29785,-16.3218985"
       id="path215"
       inkscape:connector-curvature="0"
       style="fill:#0277bd;stroke:#81d4fa;stroke-width:1.50238395;stroke-miterlimit:10" /><path
       stroke-miterlimit="10"
       d="m 285.01737,194.55052 c -0.54087,0 -1.07421,0.0376 -1.59554,0.10971 0,-0.0361 0.002,-0.0737 0.002,-0.10971 0,-6.55189 -5.30493,-11.86583 -11.8493,-11.86583 -1.84943,0 -3.60122,0.42517 -5.1622,1.18238 -2.13638,-4.9083 -7.02063,-8.33975 -12.70865,-8.33975 -7.24,0 -13.17892,5.55733 -13.8024,12.64408 -0.5589,-0.0706 -1.1283,-0.10973 -1.70823,-0.10973 -7.40825,0 -13.41177,6.01104 -13.41177,13.42831 v 4.7911 h 0.8819 25.05976 19.07126 3.50356 23.43268 c 0.002,-6.47978 -5.24332,-11.73061 -11.71408,-11.73061"
       id="path217"
       inkscape:connector-curvature="0"
       style="fill:#0277bd;stroke:#81d4fa;stroke-width:1.50238395;stroke-miterlimit:10" /><path
       stroke-miterlimit="10"
       d="m 1280.7975,56.269593 c -0.5409,0 -1.0743,0.03754 -1.5955,0.111161 0,-0.0391 0,-0.07362 0,-0.111161 0,-6.553394 -5.305,-11.865823 -11.8494,-11.865823 -1.8494,0 -3.6012,0.425174 -5.1621,1.183878 -2.1365,-4.90979 -7.0208,-8.342738 -12.7087,-8.342738 -7.24,0 -13.1789,5.558821 -13.8025,12.645565 -0.5588,-0.07061 -1.1282,-0.111173 -1.7082,-0.111173 -7.4082,0 -13.4117,6.01254 -13.4117,13.429815 v 4.791097 h 0.8819 25.0598 19.0713 3.5035 23.4327 c 0,-6.479781 -5.2434,-11.730609 -11.7142,-11.730609"
       id="path219"
       inkscape:connector-curvature="0"
       style="fill:#0277bd;stroke:#81d4fa;stroke-width:1.50238395;stroke-miterlimit:10" /><g
       transform="matrix(1.5023839,0,0,1.5023839,-402.792,-75.109366)"
       id="g221"><g
         id="g223"><path
           stroke-miterlimit="10"
           d="m 956.459,101.389 c -0.245,0 -0.444,-0.197 -0.444,-0.441 v -8.486 c 0,-0.245 0.199,-0.445 0.444,-0.445 0.245,0 0.443,0.2 0.443,0.445 v 8.486 c 0,0.243 -0.198,0.441 -0.443,0.441 z"
           id="path225"
           inkscape:connector-curvature="0"
           style="fill:#0277bd;stroke:#81d4fa;stroke-miterlimit:10" /></g><g
         id="g227"><path
           stroke-miterlimit="10"
           d="m 960.986,134.271 c 0,7.277 -9.057,7.277 -9.057,0 v -20.533 c 0,-7.277 2.029,-13.18 4.529,-13.18 l 0,0 c 2.5,0 4.527,5.902 4.527,13.18 v 20.533 z"
           id="path229"
           inkscape:connector-curvature="0"
           style="fill:#0277bd;stroke:#81d4fa;stroke-miterlimit:10" /><rect
           x="946.13898"
           y="124.338"
           stroke-miterlimit="10"
           width="20.641001"
           height="85.508003"
           id="rect231"
           style="fill:#0277bd;stroke:#81d4fa;stroke-miterlimit:10" /><g
           id="g233"><path
             stroke-miterlimit="10"
             d="m 960.172,208.647 c 0,5.312 -7.427,5.312 -7.427,0 V 122.21 c 0,-5.312 1.663,-9.618 3.714,-9.618 l 0,0 c 2.052,0 3.713,4.307 3.713,9.618 v 86.437 z"
             id="path235"
             inkscape:connector-curvature="0"
             style="fill:#0277bd;stroke:#81d4fa;stroke-miterlimit:10" /><path
             stroke-miterlimit="10"
             d="m 952.745,211.754 c 0,5.311 -6.606,5.311 -6.606,0 v -86.439 c 0,-5.31 1.479,-9.617 3.303,-9.617 l 0,0 c 1.825,0 3.304,4.308 3.304,9.617 v 86.439 z"
             id="path237"
             inkscape:connector-curvature="0"
             style="fill:#0277bd;stroke:#81d4fa;stroke-miterlimit:10" /><path
             stroke-miterlimit="10"
             d="m 966.779,211.754 c 0,5.311 -6.607,5.311 -6.607,0 v -86.439 c 0,-5.31 1.479,-9.617 3.304,-9.617 l 0,0 c 1.824,0 3.304,4.308 3.304,9.617 v 86.439 z"
             id="path239"
             inkscape:connector-curvature="0"
             style="fill:#0277bd;stroke:#81d4fa;stroke-miterlimit:10" /></g><rect
           x="946.13898"
           y="225.52499"
           stroke-miterlimit="10"
           width="6.6059999"
           height="5.2319999"
           id="rect241"
           style="fill:#0277bd;stroke:#81d4fa;stroke-miterlimit:10" /><rect
           x="959.35199"
           y="225.52499"
           stroke-miterlimit="10"
           width="6.6069999"
           height="5.2319999"
           id="rect243"
           style="fill:#0277bd;stroke:#81d4fa;stroke-miterlimit:10" /><rect
           x="952.745"
           y="225.52499"
           stroke-miterlimit="10"
           width="6.6059999"
           height="5.2319999"
           id="rect245"
           style="fill:#0277bd;stroke:#81d4fa;stroke-miterlimit:10" /><rect
           x="938.99298"
           y="211.98399"
           stroke-miterlimit="10"
           width="34.931999"
           height="9.8479996"
           id="rect247"
           style="fill:#0277bd;stroke:#81d4fa;stroke-miterlimit:10" /><path
           stroke-miterlimit="10"
           d="m 973.925,221.832 h -34.932 c 0,2.039 1.653,3.693 3.693,3.693 h 27.543 c 2.041,0 3.696,-1.654 3.696,-3.693 z"
           id="path249"
           inkscape:connector-curvature="0"
           style="fill:#0277bd;stroke:#81d4fa;stroke-miterlimit:10" /><path
           stroke-miterlimit="10"
           d="m 938.993,211.984 h 34.932 c 0,-2.041 -1.655,-3.693 -3.695,-3.693 h -27.543 c -2.041,0 -3.694,1.652 -3.694,3.693 z"
           id="path251"
           inkscape:connector-curvature="0"
           style="fill:#0277bd;stroke:#81d4fa;stroke-miterlimit:10" /></g><rect
         x="928.95599"
         y="246.80099"
         stroke-miterlimit="10"
         width="53.867001"
         height="5.3499999"
         id="rect253"
         style="fill:#0277bd;stroke:#81d4fa;stroke-miterlimit:10" /><rect
         x="930.32098"
         y="241.452"
         stroke-miterlimit="10"
         width="51.134998"
         height="5.349"
         id="rect255"
         style="fill:#0277bd;stroke:#81d4fa;stroke-miterlimit:10" /><rect
         x="932.43799"
         y="230.758"
         stroke-miterlimit="10"
         width="47.02"
         height="5.348"
         id="rect257"
         style="fill:#0277bd;stroke:#81d4fa;stroke-miterlimit:10" /><rect
         x="931.26898"
         y="236.105"
         stroke-miterlimit="10"
         width="49.241001"
         height="5.3470001"
         id="rect259"
         style="fill:#0277bd;stroke:#81d4fa;stroke-miterlimit:10" /></g><rect
       x="973.38556"
       y="285.63855"
       stroke-miterlimit="10"
       width="29.840349"
       height="14.706836"
       id="rect261"
       style="fill:#0277bd;stroke:#81d4fa;stroke-width:1.50238395;stroke-miterlimit:10" /><g
       transform="matrix(1.5023839,0,0,1.5023839,-402.792,-75.109366)"
       id="g263"><g
         id="g265"><g
           id="g267"><polygon
             stroke-miterlimit="10"
             points="659.266,238.215 648.375,215.453 649.41,214.658 660.301,237.42 "
             id="polygon269"
             style="fill:#0277bd;stroke:#81d4fa;stroke-miterlimit:10" /><polygon
             stroke-miterlimit="10"
             points="639.029,238.215 649.921,215.453 648.886,214.658 637.994,237.42 "
             id="polygon271"
             style="fill:#0277bd;stroke:#81d4fa;stroke-miterlimit:10" /></g><g
           id="g273"><polygon
             stroke-miterlimit="10"
             points="638.196,238.215 627.305,215.453 628.34,214.658 639.231,237.42 "
             id="polygon275"
             style="fill:#0277bd;stroke:#81d4fa;stroke-miterlimit:10" /><polygon
             stroke-miterlimit="10"
             points="617.96,238.215 628.851,215.453 627.816,214.658 616.925,237.42 "
             id="polygon277"
             style="fill:#0277bd;stroke:#81d4fa;stroke-miterlimit:10" /></g><g
           id="g279"><polygon
             stroke-miterlimit="10"
             points="617.37,238.215 606.48,215.453 607.515,214.658 618.405,237.42 "
             id="polygon281"
             style="fill:#0277bd;stroke:#81d4fa;stroke-miterlimit:10" /><polygon
             stroke-miterlimit="10"
             points="597.136,238.215 608.025,215.453 606.991,214.658 596.1,237.42 "
             id="polygon283"
             style="fill:#0277bd;stroke:#81d4fa;stroke-miterlimit:10" /></g><g
           id="g285"><polygon
             stroke-miterlimit="10"
             points="596.301,238.215 585.41,215.453 586.444,214.658 597.336,237.42 "
             id="polygon287"
             style="fill:#0277bd;stroke:#81d4fa;stroke-miterlimit:10" /><polygon
             stroke-miterlimit="10"
             points="576.065,238.215 586.956,215.453 585.921,214.658 575.029,237.42 "
             id="polygon289"
             style="fill:#0277bd;stroke:#81d4fa;stroke-miterlimit:10" /></g><g
           id="g291"><polygon
             stroke-miterlimit="10"
             points="575.566,238.215 564.676,215.453 565.711,214.658 576.603,237.42 "
             id="polygon293"
             style="fill:#0277bd;stroke:#81d4fa;stroke-miterlimit:10" /><polygon
             stroke-miterlimit="10"
             points="555.332,238.215 566.223,215.453 565.188,214.658 554.296,237.42 "
             id="polygon295"
             style="fill:#0277bd;stroke:#81d4fa;stroke-miterlimit:10" /></g><g
           id="g297"><polygon
             stroke-miterlimit="10"
             points="554.498,238.215 543.606,215.453 544.641,214.658 555.533,237.42 "
             id="polygon299"
             style="fill:#0277bd;stroke:#81d4fa;stroke-miterlimit:10" /><polygon
             stroke-miterlimit="10"
             points="534.262,238.215 545.153,215.453 544.117,214.658 533.227,237.42 "
             id="polygon301"
             style="fill:#0277bd;stroke:#81d4fa;stroke-miterlimit:10" /></g><g
           id="g303"><polygon
             stroke-miterlimit="10"
             points="533.672,238.215 522.781,215.453 523.815,214.658 534.707,237.42 "
             id="polygon305"
             style="fill:#0277bd;stroke:#81d4fa;stroke-miterlimit:10" /><polygon
             stroke-miterlimit="10"
             points="513.437,238.215 524.327,215.453 523.292,214.658 512.401,237.42 "
             id="polygon307"
             style="fill:#0277bd;stroke:#81d4fa;stroke-miterlimit:10" /></g><g
           id="g309"><polygon
             stroke-miterlimit="10"
             points="512.603,238.215 501.711,215.453 502.746,214.658 513.638,237.42 "
             id="polygon311"
             style="fill:#0277bd;stroke:#81d4fa;stroke-miterlimit:10" /><polygon
             stroke-miterlimit="10"
             points="492.366,238.215 503.258,215.453 502.223,214.658 491.331,237.42 "
             id="polygon313"
             style="fill:#0277bd;stroke:#81d4fa;stroke-miterlimit:10" /></g></g><line
         stroke-miterlimit="10"
         x1="659.26599"
         y1="238.215"
         x2="491.33099"
         y2="238.215"
         id="line315"
         style="fill:#0277bd;stroke:#81d4fa;stroke-miterlimit:10" /><rect
         x="491.33099"
         y="236.68201"
         stroke-miterlimit="10"
         width="167.935"
         height="3.066"
         id="rect317"
         style="fill:#0277bd;stroke:#81d4fa;stroke-miterlimit:10" /><polygon
         stroke-miterlimit="10"
         points="428.478,259.113 428.478,256.047 494.022,236.682 494.022,239.748 "
         id="polygon319"
         style="fill:#0277bd;stroke:#81d4fa;stroke-miterlimit:10" /><rect
         x="530.56897"
         y="239.748"
         stroke-miterlimit="10"
         width="5.6220002"
         height="19.077999"
         id="rect321"
         style="fill:#0277bd;stroke:#81d4fa;stroke-miterlimit:10" /><rect
         x="525.05402"
         y="249.287"
         stroke-miterlimit="10"
         width="16.346001"
         height="19.077999"
         id="rect323"
         style="fill:#0277bd;stroke:#81d4fa;stroke-miterlimit:10" /><rect
         x="611.99597"
         y="239.748"
         stroke-miterlimit="10"
         width="5.6220002"
         height="19.077999"
         id="rect325"
         style="fill:#0277bd;stroke:#81d4fa;stroke-miterlimit:10" /><rect
         x="606.47998"
         y="249.287"
         stroke-miterlimit="10"
         width="16.344999"
         height="19.077999"
         id="rect327"
         style="fill:#0277bd;stroke:#81d4fa;stroke-miterlimit:10" /><g
         id="g329"><line
           stroke-miterlimit="10"
           x1="659.26599"
           y1="214.188"
           x2="501.711"
           y2="214.188"
           id="line331"
           style="fill:#0277bd;stroke:#81d4fa;stroke-miterlimit:10" /><rect
           x="501.711"
           y="213.086"
           stroke-miterlimit="10"
           width="157.55499"
           height="2.2049999"
           id="rect333"
           style="fill:#0277bd;stroke:#81d4fa;stroke-miterlimit:10" /></g></g></g></svg>