<?xml version="1.0" encoding="UTF-8" standalone="no"?>
<!-- Generator: Adobe Illustrator 19.0.0, SVG Export Plug-In . SVG Version: 6.00 Build 0)  -->

<svg
   xmlns:dc="http://purl.org/dc/elements/1.1/"
   xmlns:cc="http://creativecommons.org/ns#"
   xmlns:rdf="http://www.w3.org/1999/02/22-rdf-syntax-ns#"
   xmlns:svg="http://www.w3.org/2000/svg"
   xmlns="http://www.w3.org/2000/svg"
   xmlns:sodipodi="http://sodipodi.sourceforge.net/DTD/sodipodi-0.dtd"
   xmlns:inkscape="http://www.inkscape.org/namespaces/inkscape"
   version="1.1"
   id="Capa_1"
   x="0px"
   y="0px"
   viewBox="0 0 33 33"
   style="enable-background:new 0 0 33 33;"
   xml:space="preserve"
   inkscape:version="0.91 r13725"
   sodipodi:docname="home.svg"><metadata
     id="metadata45"><rdf:RDF><cc:Work
         rdf:about=""><dc:format>image/svg+xml</dc:format><dc:type
           rdf:resource="http://purl.org/dc/dcmitype/StillImage" /></cc:Work></rdf:RDF></metadata><defs
     id="defs43" /><sodipodi:namedview
     pagecolor="#ffffff"
     bordercolor="#666666"
     borderopacity="1"
     objecttolerance="10"
     gridtolerance="10"
     guidetolerance="10"
     inkscape:pageopacity="0"
     inkscape:pageshadow="2"
     inkscape:window-width="684"
     inkscape:window-height="480"
     id="namedview41"
     showgrid="false"
     inkscape:zoom="7.1515152"
     inkscape:cx="-5.5932202"
     inkscape:cy="16.5"
     inkscape:window-x="0"
     inkscape:window-y="30"
     inkscape:window-maximized="0"
     inkscape:current-layer="Capa_1" /><g
     id="g3"
     style="fill:#ffffff;fill-opacity:1"><path
       d="M27.813,31.617H5.186c-0.276,0-0.5-0.224-0.5-0.5V12.521c0-0.276,0.224-0.5,0.5-0.5s0.5,0.224,0.5,0.5v18.096h21.627   V12.521c0-0.276,0.224-0.5,0.5-0.5s0.5,0.224,0.5,0.5v18.596C28.313,31.393,28.09,31.617,27.813,31.617z"
       id="path5"
       style="fill:#ffffff;fill-opacity:1" /><path
       d="M32.5,17.492c-0.123,0-0.247-0.045-0.344-0.136L16.499,2.57L0.844,17.355c-0.201,0.19-0.52,0.18-0.707-0.02   c-0.189-0.201-0.181-0.517,0.02-0.707L16.155,1.519c0.193-0.183,0.494-0.182,0.688,0l16.001,15.109   c0.2,0.19,0.209,0.506,0.02,0.707C32.765,17.439,32.633,17.492,32.5,17.492z"
       id="path7"
       style="fill:#ffffff;fill-opacity:1" /><path
       d="M20.491,31.617H12.51c-0.276,0-0.5-0.224-0.5-0.5V20.281c0-0.276,0.224-0.5,0.5-0.5h7.981c0.276,0,0.5,0.224,0.5,0.5   v10.836C20.991,31.393,20.767,31.617,20.491,31.617z M13.01,30.617h6.981v-9.836H13.01V30.617z"
       id="path9"
       style="fill:#ffffff;fill-opacity:1" /></g><g
     id="g11" /><g
     id="g13" /><g
     id="g15" /><g
     id="g17" /><g
     id="g19" /><g
     id="g21" /><g
     id="g23" /><g
     id="g25" /><g
     id="g27" /><g
     id="g29" /><g
     id="g31" /><g
     id="g33" /><g
     id="g35" /><g
     id="g37" /><g
     id="g39" /></svg>