<?xml version="1.0" encoding="utf-8"?>
<!-- Generator: Adobe Illustrator 15.0.0, SVG Export Plug-In . SVG Version: 6.00 Build 0)  -->
<!DOCTYPE svg PUBLIC "-//W3C//DTD SVG 1.1//EN" "http://www.w3.org/Graphics/SVG/1.1/DTD/svg11.dtd">
<svg version="1.1" id="Layer_1" xmlns="http://www.w3.org/2000/svg" xmlns:xlink="http://www.w3.org/1999/xlink" x="0px" y="0px"
	 width="120px" height="120px" viewBox="0 0 120 120" enable-background="new 0 0 120 120" xml:space="preserve">
<g>
	<path fill="#FFFFFF" d="M60,9.447C32.078,9.447,9.447,32.078,9.447,60c0,27.918,22.631,50.555,50.553,50.555
		c27.918,0,50.553-22.637,50.553-50.555C110.553,32.078,87.918,9.447,60,9.447L60,9.447z M60,13.059
		c25.882,0,46.942,21.055,46.942,46.941c0,25.881-21.061,46.943-46.942,46.943c-25.886,0-46.942-21.062-46.942-46.943
		C13.058,34.113,34.114,13.059,60,13.059L60,13.059z"/>
	<polygon fill="#FFFFFF" points="61.806,110.555 58.194,110.555 58.194,9.447 61.806,9.447 61.806,110.555 	"/>
	<polygon fill="#FFFFFF" points="110.553,61.807 9.447,61.807 9.447,58.195 110.553,58.195 110.553,61.807 	"/>
	<path fill="#FFFFFF" d="M60,35.625C32.078,35.625,9.447,46.541,9.447,60S32.078,84.375,60,84.375
		c27.918,0,50.553-10.916,50.553-24.375S87.918,35.625,60,35.625L60,35.625z M60,39.236c12.969,0,25.11,2.406,34.178,6.781
		c8.111,3.912,12.765,9.008,12.765,13.982s-4.653,10.07-12.765,13.984C85.11,78.354,72.969,80.764,60,80.764
		c-12.973,0-25.109-2.41-34.178-6.779C17.711,70.07,13.058,64.975,13.058,60s4.653-10.07,12.765-13.982
		C34.891,41.643,47.027,39.236,60,39.236L60,39.236z"/>
	<path fill="#FFFFFF" d="M60,9.447C46.535,9.447,35.626,32.078,35.626,60c0,27.918,10.909,50.555,24.374,50.555
		c13.46,0,24.374-22.637,24.374-50.555C84.374,32.078,73.46,9.447,60,9.447L60,9.447z M60,13.059c4.975,0,10.07,4.652,13.984,12.764
		c4.368,9.068,6.779,21.205,6.779,34.178s-2.411,25.109-6.779,34.178c-3.914,8.113-9.01,12.766-13.984,12.766
		c-4.974,0-10.07-4.652-13.983-12.766c-4.374-9.068-6.78-21.205-6.78-34.178s2.406-25.109,6.78-34.178
		C49.93,17.711,55.026,13.059,60,13.059L60,13.059z"/>
	<polygon fill="#FFFFFF" points="25.543,97.008 22.988,94.459 94.832,22.613 97.387,25.168 25.543,97.008 	"/>
	<polygon fill="#FFFFFF" points="94.426,97.008 22.988,25.574 25.543,23.02 96.977,94.459 94.426,97.008 	"/>
	<path fill="#242C3C" d="M117.775,60.014c0,3.99-3.232,7.223-7.223,7.223c-3.989,0-7.221-3.232-7.221-7.223
		c0-3.986,3.231-7.223,7.221-7.223C114.543,52.791,117.775,56.027,117.775,60.014L117.775,60.014z"/>
	<path fill="#242C3C" d="M16.668,60.014c0,3.99-3.236,7.223-7.221,7.223c-3.99,0-7.223-3.232-7.223-7.223
		c0-3.986,3.232-7.223,7.223-7.223C13.432,52.791,16.668,56.027,16.668,60.014L16.668,60.014z"/>
	<path fill="#F2BB64" d="M67.204,110.555c0,3.99-3.231,7.221-7.222,7.221s-7.223-3.23-7.223-7.221c0-3.992,3.232-7.223,7.223-7.223
		S67.204,106.562,67.204,110.555L67.204,110.555z"/>
	<path fill="#6DBEC4" d="M103.332,96.109c0,3.99-3.232,7.223-7.223,7.223s-7.222-3.232-7.222-7.223s3.231-7.221,7.222-7.221
		S103.332,92.119,103.332,96.109L103.332,96.109z"/>
	<path fill="#6DBEC4" d="M31.112,23.891c0,3.99-3.236,7.223-7.222,7.223c-3.99,0-7.223-3.232-7.223-7.223s3.232-7.223,7.223-7.223
		C27.876,16.668,31.112,19.9,31.112,23.891L31.112,23.891z"/>
	<path fill="#6DBEC4" d="M103.332,23.891c0,3.99-3.232,7.223-7.223,7.223s-7.222-3.232-7.222-7.223s3.231-7.223,7.222-7.223
		S103.332,19.9,103.332,23.891L103.332,23.891z"/>
	<path fill="#6DBEC4" d="M31.112,96.109c0,3.99-3.236,7.223-7.222,7.223c-3.99,0-7.223-3.232-7.223-7.223s3.232-7.221,7.223-7.221
		C27.876,88.889,31.112,92.119,31.112,96.109L31.112,96.109z"/>
	<path fill="#F2BB64" d="M67.223,9.447c0,3.99-3.232,7.221-7.223,7.221s-7.223-3.23-7.223-7.221S56.01,2.225,60,2.225
		S67.223,5.457,67.223,9.447L67.223,9.447z"/>
</g>
</svg>
