<?xml version="1.0" encoding="utf-8"?>
<!-- Generator: Adobe Illustrator 15.0.0, SVG Export Plug-In . SVG Version: 6.00 Build 0)  -->
<!DOCTYPE svg PUBLIC "-//W3C//DTD SVG 1.1//EN" "http://www.w3.org/Graphics/SVG/1.1/DTD/svg11.dtd">
<svg version="1.1" id="Layer_1" xmlns="http://www.w3.org/2000/svg" xmlns:xlink="http://www.w3.org/1999/xlink" x="0px" y="0px"
	 width="32px" height="32px" viewBox="0 0 32 32" enable-background="new 0 0 32 32" xml:space="preserve">
<g>
	<g>
		<g>
			<path fill="#FFFFFF" d="M3.703,16.003c0,0.486,0.393,0.881,0.879,0.881h15.816l-3.271,3.266c-0.344,0.343-0.344,0.9,0,1.244
				c0.17,0.168,0.395,0.256,0.619,0.256c0.227,0,0.451-0.088,0.621-0.256l4.764-4.766c0.344-0.344,0.344-0.902,0-1.244l-4.764-4.768
				c-0.344-0.342-0.902-0.342-1.244,0c-0.344,0.344-0.344,0.902,0,1.244l3.264,3.267H4.582C4.096,15.127,3.703,15.517,3.703,16.003z
				"/>
			<path fill="#FFFFFF" d="M23.041,28.524c2.902,0,5.256-2.359,5.256-5.262V8.738c0-2.902-2.359-5.263-5.256-5.263H9.473
				c-2.904,0-5.258,2.36-5.258,5.263v2.984c0,0.486,0.395,0.876,0.875,0.876c0.486,0,0.881-0.395,0.881-0.876V8.738
				c0-1.931,1.57-3.507,3.502-3.507h13.568c1.928,0,3.5,1.572,3.5,3.507v14.524c0,1.93-1.572,3.506-3.5,3.506H9.473
				c-1.932,0-3.502-1.571-3.502-3.506v-2.949c0-0.486-0.395-0.881-0.881-0.881s-0.875,0.395-0.875,0.881v2.949
				c0,2.902,2.359,5.262,5.258,5.262H23.041L23.041,28.524z"/>
		</g>
	</g>
</g>
</svg>
