<?xml version="1.0" encoding="utf-8"?>
<!-- Generator: Adobe Illustrator 15.0.0, SVG Export Plug-In . SVG Version: 6.00 Build 0)  -->
<!DOCTYPE svg PUBLIC "-//W3C//DTD SVG 1.1//EN" "http://www.w3.org/Graphics/SVG/1.1/DTD/svg11.dtd">
<svg version="1.1" id="Layer_1" xmlns="http://www.w3.org/2000/svg" xmlns:xlink="http://www.w3.org/1999/xlink" x="0px" y="0px"
	 width="32px" height="32px" viewBox="0 0 32 32" enable-background="new 0 0 32 32" xml:space="preserve">
<g>
	<path fill="#FFFFFF" d="M24.791,2.954H24.48v-1.03c0-0.468-0.379-0.848-0.848-0.848s-0.848,0.38-0.848,0.848v1.03h-3.393v-1.03
		c0-0.468-0.379-0.848-0.85-0.848c-0.467,0-0.846,0.38-0.846,0.848v1.03h-3.395v-1.03c0-0.468-0.379-0.848-0.848-0.848
		s-0.848,0.38-0.848,0.848v1.03H9.215v-1.03c0-0.468-0.379-0.848-0.848-0.848S7.52,1.456,7.52,1.923v1.03H7.209
		c-1.871,0-3.393,1.521-3.393,3.393v21.186c0,1.871,1.521,3.393,3.393,3.393h17.582c1.871,0,3.393-1.521,3.393-3.393V6.346
		C28.184,4.475,26.662,2.954,24.791,2.954z M26.486,27.532c0,0.936-0.76,1.696-1.695,1.696H7.209c-0.936,0-1.697-0.761-1.697-1.696
		V6.346c0-0.936,0.762-1.697,1.697-1.697H7.52v2.18c0,0.469,0.379,0.848,0.848,0.848s0.848-0.379,0.848-0.848v-2.18h3.393v2.18
		c0,0.469,0.379,0.848,0.848,0.848s0.848-0.379,0.848-0.848v-2.18h3.395v2.18c0,0.469,0.379,0.848,0.846,0.848
		c0.471,0,0.85-0.379,0.85-0.848v-2.18h3.393v2.18c0,0.469,0.379,0.848,0.848,0.848s0.848-0.379,0.848-0.848v-2.18h0.311
		c0.936,0,1.695,0.762,1.695,1.697V27.532L26.486,27.532z"/>
	<path fill="#FFFFFF" d="M23.59,10.562H8.41c-0.469,0-0.848,0.38-0.848,0.849c0,0.468,0.379,0.848,0.848,0.848h15.18
		c0.469,0,0.848-0.38,0.848-0.848C24.438,10.942,24.059,10.562,23.59,10.562z"/>
	<path fill="#FFFFFF" d="M23.59,15.651H8.41c-0.469,0-0.848,0.38-0.848,0.849c0,0.468,0.379,0.847,0.848,0.847h15.18
		c0.469,0,0.848-0.379,0.848-0.847C24.438,16.03,24.059,15.651,23.59,15.651z"/>
	<path fill="#FFFFFF" d="M23.59,20.739H8.41c-0.469,0-0.848,0.38-0.848,0.848c0,0.469,0.379,0.849,0.848,0.849h15.18
		c0.469,0,0.848-0.38,0.848-0.849C24.438,21.119,24.059,20.739,23.59,20.739z"/>
</g>
</svg>
