<?xml version="1.0" encoding="utf-8"?>
<!-- Generator: Adobe Illustrator 15.0.0, SVG Export Plug-In . SVG Version: 6.00 Build 0)  -->
<!DOCTYPE svg PUBLIC "-//W3C//DTD SVG 1.1//EN" "http://www.w3.org/Graphics/SVG/1.1/DTD/svg11.dtd">
<svg version="1.1" id="Layer_1" xmlns="http://www.w3.org/2000/svg" xmlns:xlink="http://www.w3.org/1999/xlink" x="0px" y="0px"
	 width="120px" height="120px" viewBox="0 0 120 120" enable-background="new 0 0 120 120" xml:space="preserve">
<g>
	<polygon fill="#242C3C" points="66.271,117.931 53.545,117.931 53.545,105.198 66.271,105.198 66.271,117.931 	"/>
	<path fill="#F0B14E" d="M59.909,1.985C41.512,1.985,26.6,15.669,26.6,35.29c0,19.625,16.893,32.408,16.893,46.705
		c1.031,0,2.828,0,5.09,0c3.143,0,7.182,0,11.326,0c4.144,0,8.185,0,11.326,0c2.264,0,4.059,0,5.092,0
		c0-14.297,16.891-27.08,16.891-46.705C93.217,15.669,78.305,1.985,59.909,1.985L59.909,1.985z"/>
	<path fill="#FFFFFF" d="M59.909,87.085H43.493v22.885c0,2.801,2.29,5.092,5.09,5.092h11.326h11.326
		c2.801,0,5.092-2.291,5.092-5.092V87.085H59.909L59.909,87.085z"/>
	<path fill="#242C3C" d="M71.234,81.995c-3.141,0-7.182,0-11.326,0c-4.145,0-8.184,0-11.326,0c-2.262,0-4.059,0-5.09,0v5.09h16.416
		h16.417v-5.09C75.293,81.995,73.498,81.995,71.234,81.995L71.234,81.995z"/>
	<polygon fill="#242C3C" points="60.816,84.54 59.002,84.54 59.002,56.569 50.875,38.704 52.526,37.956 60.816,56.171 60.816,84.54 
			"/>
	<polygon fill="#242C3C" points="60.734,56.743 59.084,55.995 67.293,37.956 68.941,38.704 60.734,56.743 	"/>
	<path fill="#242C3C" d="M49.088,32.86c-1.5,0-2.719,1.004-2.719,2.238c0,1.23,1.219,2.238,2.719,2.238h21.64
		c1.5,0,2.719-1.008,2.719-2.238c0-1.234-1.219-2.238-2.719-2.238H49.088L49.088,32.86z M70.729,39.149h-21.64
		c-2.498,0-4.531-1.818-4.531-4.051c0-2.238,2.033-4.051,4.531-4.051h21.64c2.5,0,4.533,1.812,4.533,4.051
		C75.262,37.331,73.229,39.149,70.729,39.149L70.729,39.149z"/>
	<path fill="#6DBEC4" d="M101.359,28.921L101.359,28.921L101.359,28.921z"/>
	<path fill="#6DBEC4" d="M18.64,118.015L18.64,118.015L18.64,118.015z"/>
</g>
</svg>
