<?xml version="1.0" encoding="utf-8"?>
<!-- Generator: Adobe Illustrator 15.0.0, SVG Export Plug-In . SVG Version: 6.00 Build 0)  -->
<!DOCTYPE svg PUBLIC "-//W3C//DTD SVG 1.1//EN" "http://www.w3.org/Graphics/SVG/1.1/DTD/svg11.dtd">
<svg version="1.1" id="Layer_1" xmlns="http://www.w3.org/2000/svg" xmlns:xlink="http://www.w3.org/1999/xlink" x="0px" y="0px"
	 width="105px" height="105px" viewBox="0 0 105 105" enable-background="new 0 0 105 105" xml:space="preserve">
<g>
	<circle fill="#0288D1" cx="53" cy="52.659" r="51.183"/>
	<g>
		<g>
			<g>
				<path fill="#FFFFFF" d="M64.858,83.295H54.347v-3.06c0-0.748-0.599-1.345-1.347-1.345c-0.746,0-1.345,0.597-1.345,1.345v3.06
					H41.143c-0.748,0-1.348,0.599-1.348,1.347s0.6,1.347,1.348,1.347h23.729c0.748,0,1.347-0.599,1.347-1.347
					C66.205,83.894,65.605,83.295,64.858,83.295z"/>
				<path fill="#FFFFFF" d="M50.947,57.011c-3.372,0.788-5.984,3.576-6.515,7.044h-5.384c0.558-2.041,2.42-3.535,4.623-3.535
					c0.748,0,1.346-0.599,1.346-1.347s-0.598-1.347-1.346-1.347c-3.698,0-6.785,2.693-7.384,6.229h-10.62
					c-0.136-0.042-0.259-0.067-0.408-0.067c-0.748,0-1.347,0.599-1.347,1.347v7.342c0,1.699,1.388,3.088,3.087,3.088h52
					c1.7,0,3.087-1.389,3.087-3.088V36.885c0-1.698-1.387-3.087-3.087-3.087H64.45c-0.748,0-1.347,0.599-1.347,1.347
					s0.599,1.347,1.347,1.347H79c0.217,0,0.394,0.176,0.394,0.394v35.804c0,0.219-0.177,0.396-0.394,0.396H27
					c-0.217,0-0.394-0.177-0.394-0.396V66.76h48.572c0.748,0,1.347-0.597,1.347-1.346c0-0.748-0.599-1.346-1.347-1.346h-5.751
					c-0.6-3.535-3.687-6.229-7.385-6.229c-0.748,0-1.347,0.599-1.347,1.347s0.599,1.347,1.347,1.347
					c2.217,0,4.066,1.494,4.623,3.535h-5.357c-0.57-3.863-3.753-6.881-7.67-7.234C52.021,56.738,50.947,57.011,50.947,57.011z
					 M52.877,59.485c2.789,0,5.114,1.958,5.699,4.569H47.18C47.75,61.443,50.09,59.485,52.877,59.485z"/>
				<path fill="#FFFFFF" d="M42.95,35.145c0-0.748-0.597-1.347-1.347-1.347H27c-1.699,0-3.087,1.389-3.087,3.087V60.37
					c0,0.748,0.599,1.345,1.347,1.345s1.347-0.597,1.347-1.345V36.885c0-0.218,0.177-0.394,0.394-0.394h14.604
					C42.354,36.491,42.95,35.893,42.95,35.145z"/>
				<path fill="#FFFFFF" d="M58.005,55.638c0.748,0,1.345-0.599,1.345-1.348v-2.597h2.965c0.749,0,1.346-0.599,1.346-1.345v-2.68
					c0-0.911-0.257-1.81-0.747-2.584l-2.079-3.276c-0.205-0.312-0.301-0.681-0.301-1.048V30.004c0-1.633-0.585-3.208-1.659-4.445
					l-4.977-5.768c-0.259-0.298-0.625-0.461-1.021-0.461l0,0c-0.395,0-0.76,0.177-1.019,0.476l-4.924,5.767
					c-1.046,1.235-1.631,2.799-1.631,4.418v10.688c0,0.408-0.122,0.79-0.354,1.116l-2.216,3.194
					c-0.571,0.815-0.869,1.769-0.869,2.761v2.599c0,0.746,0.597,1.345,1.347,1.345l2.446,0.014v2.597
					c0,0.749,0.599,1.347,1.346,1.347s1.347-0.598,1.347-1.347v-2.597l0.014-0.014c0.748,0,1.347-0.599,1.347-1.345
					c0-0.75-0.599-1.347-1.347-1.347h-3.808V47.75c0-0.436,0.136-0.856,0.382-1.223l2.216-3.197c0.543-0.787,0.829-1.7,0.829-2.665
					V29.99c0-0.979,0.353-1.93,0.979-2.665l3.942-4.582l3.945,4.569c0.639,0.748,0.992,1.699,0.992,2.678v10.756
					c0,0.884,0.243,1.742,0.721,2.489l2.08,3.278c0.219,0.34,0.326,0.733,0.326,1.142v1.333h-3.618
					c-0.746,0-1.345,0.597-1.345,1.346c0,0.49,0.259,0.91,0.652,1.143v2.813C56.658,55.039,57.271,55.638,58.005,55.638z"/>
			</g>
			<path fill="#FFFFFF" d="M51.395,51.3v5.807c0,0.72,0.545,1.358,1.266,1.4c0.775,0.04,1.428-0.571,1.428-1.347V51.3
				c0-0.748-0.599-1.347-1.347-1.347l0,0C51.993,49.953,51.395,50.552,51.395,51.3z"/>
		</g>
	</g>
</g>
</svg>
