<?xml version="1.0" encoding="utf-8"?>
<!-- Generator: Adobe Illustrator 15.0.0, SVG Export Plug-In . SVG Version: 6.00 Build 0)  -->
<!DOCTYPE svg PUBLIC "-//W3C//DTD SVG 1.1//EN" "http://www.w3.org/Graphics/SVG/1.1/DTD/svg11.dtd">
<svg version="1.1" id="Layer_1" xmlns="http://www.w3.org/2000/svg" xmlns:xlink="http://www.w3.org/1999/xlink" x="0px" y="0px"
	 width="120px" height="120px" viewBox="0 0 120 120" enable-background="new 0 0 120 120" xml:space="preserve">
<g>
	<polygon fill="#FFFFFF" points="5.11,103.129 114.891,103.129 114.891,16.873 5.11,16.873 5.11,103.129 	"/>
	<path fill="#242C3C" d="M114.891,20.793H5.11c-2.166,0-3.92-1.754-3.92-3.92s1.754-3.922,3.92-3.922h109.781
		c2.166,0,3.92,1.756,3.92,3.922S117.057,20.793,114.891,20.793L114.891,20.793z"/>
	<path fill="#242C3C" d="M114.891,107.049H5.11c-2.166,0-3.92-1.756-3.92-3.92c0-2.166,1.754-3.922,3.92-3.922h109.781
		c2.166,0,3.92,1.756,3.92,3.922C118.811,105.293,117.057,107.049,114.891,107.049L114.891,107.049z"/>
	<polygon fill="#242C3C" points="44.44,81.555 28.296,57.344 13.388,64.799 12.511,63.043 28.967,54.814 44.195,77.654 
		59.877,46.287 76.016,70.498 91.365,62.822 107.484,70.885 106.607,72.639 91.365,65.02 75.344,73.027 60.123,50.189 44.44,81.555 
			"/>
	<path fill="#EEA738" d="M104.107,71.762c0,1.623,1.314,2.941,2.941,2.941c1.621,0,2.939-1.318,2.939-2.941
		c0-1.621-1.318-2.939-2.939-2.939C105.422,68.822,104.107,70.141,104.107,71.762L104.107,71.762z"/>
	<path fill="#C2C3C6" d="M88.426,63.92c0,1.623,1.312,2.941,2.939,2.941c1.623,0,2.941-1.318,2.941-2.941
		c0-1.621-1.318-2.939-2.941-2.939C89.738,60.98,88.426,62.299,88.426,63.92L88.426,63.92z"/>
	<path fill="#6DBEC4" d="M72.742,71.762c0,1.623,1.314,2.941,2.941,2.941c1.621,0,2.939-1.318,2.939-2.941
		c0-1.621-1.318-2.939-2.939-2.939C74.057,68.822,72.742,70.141,72.742,71.762L72.742,71.762z"/>
	<path fill="#EEA738" d="M41.376,79.604c0,1.623,1.313,2.941,2.94,2.941c1.622,0,2.94-1.318,2.94-2.941
		c0-1.621-1.318-2.939-2.94-2.939C42.69,76.664,41.376,77.982,41.376,79.604L41.376,79.604z"/>
	<path fill="#C2C3C6" d="M25.694,56.08c0,1.621,1.313,2.941,2.94,2.941c1.622,0,2.94-1.32,2.94-2.941
		c0-1.623-1.318-2.941-2.94-2.941C27.007,53.139,25.694,54.457,25.694,56.08L25.694,56.08z"/>
	<path fill="#6DBEC4" d="M10.011,63.92c0,1.623,1.312,2.941,2.939,2.941c1.623,0,2.941-1.318,2.941-2.941
		c0-1.621-1.318-2.939-2.941-2.939C11.324,60.98,10.011,62.299,10.011,63.92L10.011,63.92z"/>
	<path fill="#E36A5C" d="M57.06,48.238c0,1.621,1.312,2.939,2.939,2.939c1.624,0,2.942-1.318,2.942-2.939
		c0-1.623-1.318-2.941-2.942-2.941C58.373,45.297,57.06,46.615,57.06,48.238L57.06,48.238z"/>
	<polygon fill="#C2C3C6" points="12.951,48.238 28.634,48.238 28.634,40.396 12.951,40.396 12.951,48.238 	"/>
	<polygon fill="#E36A5C" points="44.317,40.396 60,40.396 60,32.555 44.317,32.555 44.317,40.396 	"/>
	<polygon fill="#6DBEC4" points="67.842,87.445 83.523,87.445 83.523,79.604 67.842,79.604 67.842,87.445 	"/>
	<polygon fill="#EEA738" points="91.365,56.08 107.049,56.08 107.049,48.238 91.365,48.238 91.365,56.08 	"/>
</g>
</svg>
