<?xml version="1.0" encoding="utf-8"?>
<!-- Generator: Adobe Illustrator 15.0.0, SVG Export Plug-In . SVG Version: 6.00 Build 0)  -->
<!DOCTYPE svg PUBLIC "-//W3C//DTD SVG 1.1//EN" "http://www.w3.org/Graphics/SVG/1.1/DTD/svg11.dtd">
<svg version="1.1" id="Layer_1" xmlns="http://www.w3.org/2000/svg" xmlns:xlink="http://www.w3.org/1999/xlink" x="0px" y="0px"
	 width="120px" height="120px" viewBox="0 0 120 120" enable-background="new 0 0 120 120" xml:space="preserve">
<g>
	<polygon fill="#E36A5C" points="104.947,31.105 15.053,31.105 15.053,18.264 104.947,18.264 104.947,31.105 	"/>
	<polygon fill="#EFEEEE" points="15.053,31.105 15.053,63.211 15.053,95.316 104.947,95.316 104.947,63.211 104.947,31.105 
		15.053,31.105 	"/>
	<polygon fill="#FFFFFF" points="104.947,31.105 15.053,31.105 15.053,63.211 104.947,63.211 104.947,31.105 	"/>
	<polygon fill="#FFFFFF" points="15.053,63.211 15.053,95.316 104.947,95.316 104.947,63.211 15.053,63.211 	"/>
	<path fill="#242C3C" d="M27.895,36.725c-1.773,0-3.21-1.438-3.21-3.211v-4.816c0-1.773,1.437-3.211,3.21-3.211
		s3.211,1.438,3.211,3.211v4.816C31.105,35.287,29.668,36.725,27.895,36.725L27.895,36.725z"/>
	<path fill="#242C3C" d="M92.104,36.725c-1.772,0-3.21-1.438-3.21-3.211v-4.816c0-1.773,1.438-3.211,3.21-3.211
		c1.774,0,3.211,1.438,3.211,3.211v4.816C95.315,35.287,93.879,36.725,92.104,36.725L92.104,36.725z"/>
	<polygon fill="#C2C3C6" points="104.947,95.316 15.053,95.316 15.053,101.736 104.947,101.736 104.947,95.316 	"/>
	<polygon fill="#E77F73" points="34.315,51.975 27.895,51.975 27.895,45.553 34.315,45.553 34.315,51.975 	"/>
	<polygon fill="#E77F73" points="43.947,51.975 37.526,51.975 37.526,45.553 43.947,45.553 43.947,51.975 	"/>
	<polygon fill="#ABADB3" points="53.579,51.975 47.158,51.975 47.158,45.553 53.579,45.553 53.579,51.975 	"/>
	<polygon fill="#ABADB3" points="63.211,51.975 56.789,51.975 56.789,45.553 63.211,45.553 63.211,51.975 	"/>
	<polygon fill="#ABADB3" points="72.842,51.975 66.421,51.975 66.421,45.553 72.842,45.553 72.842,51.975 	"/>
	<polygon fill="#E77F73" points="34.315,61.605 27.895,61.605 27.895,55.186 34.315,55.186 34.315,61.605 	"/>
	<polygon fill="#E77F73" points="34.315,71.236 27.895,71.236 27.895,64.816 34.315,64.816 34.315,71.236 	"/>
	<polygon fill="#E77F73" points="43.947,61.605 37.526,61.605 37.526,55.186 43.947,55.186 43.947,61.605 	"/>
	<polygon fill="#ABADB3" points="53.579,61.605 47.158,61.605 47.158,55.186 53.579,55.186 53.579,61.605 	"/>
	<polygon fill="#ABADB3" points="63.211,61.605 56.789,61.605 56.789,55.186 63.211,55.186 63.211,61.605 	"/>
	<polygon fill="#ABADB3" points="72.842,61.605 66.421,61.605 66.421,55.186 72.842,55.186 72.842,61.605 	"/>
	<polygon fill="#ABADB3" points="82.474,61.605 76.053,61.605 76.053,55.186 82.474,55.186 82.474,61.605 	"/>
	<polygon fill="#ABADB3" points="92.104,61.605 85.685,61.605 85.685,55.186 92.104,55.186 92.104,61.605 	"/>
	<polygon fill="#E77F73" points="43.947,71.236 37.526,71.236 37.526,64.816 43.947,64.816 43.947,71.236 	"/>
	<polygon fill="#ABADB3" points="53.579,71.236 47.158,71.236 47.158,64.816 53.579,64.816 53.579,71.236 	"/>
	<polygon fill="#ABADB3" points="63.211,71.236 56.789,71.236 56.789,64.816 63.211,64.816 63.211,71.236 	"/>
	<polygon fill="#ABADB3" points="72.842,71.236 66.421,71.236 66.421,64.816 72.842,64.816 72.842,71.236 	"/>
	<polygon fill="#ABADB3" points="82.474,71.236 76.053,71.236 76.053,64.816 82.474,64.816 82.474,71.236 	"/>
	<polygon fill="#ABADB3" points="92.104,71.236 85.685,71.236 85.685,64.816 92.104,64.816 92.104,71.236 	"/>
	<polygon fill="#ABADB3" points="53.579,80.869 47.158,80.869 47.158,74.447 53.579,74.447 53.579,80.869 	"/>
	<polygon fill="#ABADB3" points="63.211,80.869 56.789,80.869 56.789,74.447 63.211,74.447 63.211,80.869 	"/>
	<polygon fill="#ABADB3" points="72.842,80.869 66.421,80.869 66.421,74.447 72.842,74.447 72.842,80.869 	"/>
	<polygon fill="#ABADB3" points="82.474,80.869 76.053,80.869 76.053,74.447 82.474,74.447 82.474,80.869 	"/>
	<polygon fill="#ABADB3" points="92.104,80.869 85.685,80.869 85.685,74.447 92.104,74.447 92.104,80.869 	"/>
</g>
</svg>
