<?xml version="1.0" encoding="utf-8"?>
<!-- Generator: Adobe Illustrator 15.0.0, SVG Export Plug-In . SVG Version: 6.00 Build 0)  -->
<!DOCTYPE svg PUBLIC "-//W3C//DTD SVG 1.1//EN" "http://www.w3.org/Graphics/SVG/1.1/DTD/svg11.dtd">
<svg version="1.1" id="Layer_1" xmlns="http://www.w3.org/2000/svg" xmlns:xlink="http://www.w3.org/1999/xlink" x="0px" y="0px"
	 width="120px" height="120px" viewBox="0 0 120 120" enable-background="new 0 0 120 120" xml:space="preserve">
<g>
	<path fill="#FFFFFF" d="M55.128,6.861c-2.341,0-4.297,1.643-4.779,3.84c-0.482-2.197-2.438-3.84-4.778-3.84
		c-2.702,0-4.894,2.191-4.894,4.895v4.83h0.003c0.028,0.434,0.396,3.125,4.891,7.154c4.918,4.408,4.768,7.029,4.768,7.029h0.001
		c-6.81,3.594-15.39,8.941-19.323,14.738c-7.747,11.406-9.448,51.973-9.642,57.373c-0.013,0.197-0.021,0.396-0.021,0.596
		c0,5.338,4.326,9.662,9.663,9.662H60V11.297C59.768,8.809,57.676,6.861,55.128,6.861L55.128,6.861z"/>
	<path fill="#FFFFFF" d="M98.627,102.881c-0.195-5.4-1.896-45.967-9.643-57.373C85.049,39.711,76.471,34.363,69.66,30.77h0.012
		c0,0-0.15-2.621,4.768-7.029c4.92-4.408,4.895-7.217,4.895-7.217h-0.01v-3.666c0.082-0.355,0.125-0.723,0.125-1.102
		c0-2.703-2.191-4.895-4.895-4.895c-2.414,0-4.418,1.75-4.818,4.049c-0.4-2.299-2.406-4.049-4.82-4.049
		c-2.703,0-4.894,2.191-4.894,4.895c0-0.154-0.008-0.309-0.021-0.459v101.842h28.984c5.336,0,9.662-4.324,9.662-9.662
		C98.646,103.277,98.637,103.078,98.627,102.881L98.627,102.881z"/>
	<path fill="#242C3C" d="M69.66,32.582H50.338c-1.002,0-1.812-0.811-1.812-1.812c0-1,0.81-1.811,1.812-1.811H69.66
		c1.002,0,1.812,0.811,1.812,1.811C71.473,31.771,70.662,32.582,69.66,32.582L69.66,32.582z"/>
	<path fill="#E36A5C" d="M79.322,76.305c0,10.67-8.65,19.322-19.323,19.322c-10.671,0-19.323-8.652-19.323-19.322
		c0-10.672,8.652-19.324,19.323-19.324C70.672,56.98,79.322,65.633,79.322,76.305L79.322,76.305z"/>
	<text transform="matrix(1 0 0 1 50.6401 82)" fill="#FFFFFF" font-family="'MuseoSansRounded-700'" font-size="18">Rp</text>
</g>
</svg>
