<?xml version="1.0" encoding="UTF-8" standalone="no"?>
<!-- Generator: Adobe Illustrator 19.0.0, SVG Export Plug-In . SVG Version: 6.00 Build 0)  -->

<svg
   xmlns:dc="http://purl.org/dc/elements/1.1/"
   xmlns:cc="http://creativecommons.org/ns#"
   xmlns:rdf="http://www.w3.org/1999/02/22-rdf-syntax-ns#"
   xmlns:svg="http://www.w3.org/2000/svg"
   xmlns="http://www.w3.org/2000/svg"
   xmlns:sodipodi="http://sodipodi.sourceforge.net/DTD/sodipodi-0.dtd"
   xmlns:inkscape="http://www.inkscape.org/namespaces/inkscape"
   version="1.1"
   id="Capa_1"
   x="0px"
   y="0px"
   viewBox="0 0 54 54"
   style="enable-background:new 0 0 54 54;"
   xml:space="preserve"
   inkscape:version="0.48.4 r9939"
   width="100%"
   height="100%"
   sodipodi:docname="locked.svg"><metadata
     id="metadata43"><rdf:RDF><cc:Work
         rdf:about=""><dc:format>image/svg+xml</dc:format><dc:type
           rdf:resource="http://purl.org/dc/dcmitype/StillImage" /></cc:Work></rdf:RDF></metadata><defs
     id="defs41" /><sodipodi:namedview
     pagecolor="#ffffff"
     bordercolor="#666666"
     borderopacity="1"
     objecttolerance="10"
     gridtolerance="10"
     guidetolerance="10"
     inkscape:pageopacity="0"
     inkscape:pageshadow="2"
     inkscape:window-width="1366"
     inkscape:window-height="713"
     id="namedview39"
     showgrid="false"
     inkscape:zoom="4.3703704"
     inkscape:cx="-6.635593"
     inkscape:cy="27"
     inkscape:window-x="0"
     inkscape:window-y="30"
     inkscape:window-maximized="1"
     inkscape:current-layer="Capa_1" /><g
     id="g3"
     style="fill:#666666;stroke:none;stroke-opacity:1;fill-opacity:1"><path
       d="M43,20.113V14.5C43,6.505,35.822,0,27,0S11,6.505,11,14.5v5.613c-3.401,0.586-6,3.55-6,7.117v19.542   C5,50.757,8.243,54,12.229,54h29.542C45.757,54,49,50.757,49,46.771V27.229C49,23.663,46.401,20.699,43,20.113z M13,14.5   C13,7.607,19.28,2,27,2s14,5.607,14,12.5V20H13V14.5z M47,46.771C47,49.654,44.654,52,41.771,52H12.229C9.346,52,7,49.654,7,46.771   V27.229C7,24.346,9.346,22,12.229,22h29.542C44.654,22,47,24.346,47,27.229V46.771z"
       id="path5"
       style="fill:#666666;stroke:none;stroke-opacity:1;fill-opacity:1" /><path
       d="M27,28c-2.206,0-4,1.794-4,4v6c0,2.206,1.794,4,4,4s4-1.794,4-4v-6C31,29.794,29.206,28,27,28z M29,38c0,1.103-0.897,2-2,2   s-2-0.897-2-2v-6c0-1.103,0.897-2,2-2s2,0.897,2,2V38z"
       id="path7"
       style="fill:#666666;stroke:none;stroke-opacity:1;fill-opacity:1" /></g><g
     id="g9" /><g
     id="g11" /><g
     id="g13" /><g
     id="g15" /><g
     id="g17" /><g
     id="g19" /><g
     id="g21" /><g
     id="g23" /><g
     id="g25" /><g
     id="g27" /><g
     id="g29" /><g
     id="g31" /><g
     id="g33" /><g
     id="g35" /><g
     id="g37" /></svg>