<?xml version="1.0" encoding="utf-8"?>
<!-- Generator: Adobe Illustrator 15.0.0, SVG Export Plug-In . SVG Version: 6.00 Build 0)  -->
<!DOCTYPE svg PUBLIC "-//W3C//DTD SVG 1.1//EN" "http://www.w3.org/Graphics/SVG/1.1/DTD/svg11.dtd">
<svg version="1.1" id="Layer_1" xmlns="http://www.w3.org/2000/svg" xmlns:xlink="http://www.w3.org/1999/xlink" x="0px" y="0px"
	 width="130px" height="151px" viewBox="0 0 130 151" enable-background="new 0 0 130 151" xml:space="preserve">
<g>
	<path fill="#FFFFFF" d="M0.075-0.003v143c0,4.418,3.581,8,8,8h114c4.419,0,8-3.582,8-8v-143H0.075z"/>
	<g>
		<g>
			<circle fill="#23B6EA" cx="25.275" cy="96.626" r="8.655"/>
			<circle fill="#23B6EA" cx="75.734" cy="63.588" r="10.389"/>
			<circle fill="#23B6EA" cx="37.962" cy="84.409" r="7.433"/>
			<circle fill="#23B6EA" cx="62.648" cy="51.696" r="6"/>
			<path fill="#23B6EA" d="M84.901,38.462c1.067,5.016-2.132,9.945-7.148,11.012c-5.013,1.065-9.944-2.133-11.012-7.148
				c-1.065-5.014,2.136-9.944,7.149-11.012C78.908,30.247,83.836,33.448,84.901,38.462z"/>
			<path fill="#23B6EA" d="M46.461,68.05c0.707,3.314-1.41,6.572-4.724,7.278c-3.317,0.704-6.576-1.411-7.282-4.728
				c-0.703-3.314,1.411-6.574,4.729-7.279C42.498,62.616,45.757,64.733,46.461,68.05z"/>
			<circle fill="#23B6EA" cx="95.075" cy="62.86" r="6.652"/>
			<path fill="#23B6EA" d="M112.352,75.104c0.906,4.264-1.814,8.458-6.081,9.365c-4.267,0.904-8.458-1.816-9.364-6.08
				c-0.908-4.268,1.812-8.459,6.077-9.365C107.252,68.114,111.445,70.839,112.352,75.104z"/>
			<circle fill="#23B6EA" cx="45.99" cy="57.463" r="4.992"/>
			<path fill="#23B6EA" d="M52.943,76.668c0.455,2.124-0.901,4.214-3.025,4.663c-2.125,0.453-4.211-0.902-4.664-3.025
				c-0.45-2.125,0.904-4.213,3.027-4.664C50.405,73.188,52.494,74.544,52.943,76.668z"/>
			<circle fill="#23B6EA" cx="24.532" cy="80.31" r="4.829"/>
			<path fill="#23B6EA" d="M33.019,66.287c0.698,3.28-1.394,6.503-4.674,7.199c-3.28,0.698-6.503-1.395-7.201-4.673
				c-0.696-3.281,1.396-6.504,4.677-7.202C29.1,60.915,32.322,63.007,33.019,66.287z"/>
			<circle fill="#23B6EA" cx="56.15" cy="66.426" r="7.16"/>
			<circle fill="#23B6EA" cx="87.705" cy="51.323" r="4.964"/>
			<path fill="#23B6EA" d="M93.716,72.836c0.476,2.247-0.956,4.454-3.2,4.932c-2.248,0.477-4.456-0.956-4.934-3.202
				c-0.477-2.246,0.955-4.453,3.201-4.932C91.028,69.156,93.237,70.591,93.716,72.836z"/>
			<circle fill="#23B6EA" cx="31.805" cy="52.012" r="8.398"/>
		</g>
		<g>
			<path d="M48.842,119.115c0-0.319,0.164-0.496,0.48-0.496h3.809c0.315,0,0.492,0.177,0.492,0.496v0.329
				c0,0.318-0.177,0.482-0.492,0.482h-2.789v2.372h2.273c0.316,0,0.492,0.163,0.492,0.483v0.33c0,0.318-0.176,0.493-0.492,0.493
				h-2.273v2.89c0,0.329-0.164,0.495-0.481,0.495h-0.538c-0.316,0-0.48-0.166-0.48-0.495V119.115z"/>
			<path d="M55.07,119.115c0-0.319,0.163-0.496,0.481-0.496h0.526c0.328,0,0.49,0.177,0.49,0.496v4.858
				c0,1.132,0.73,1.77,1.843,1.77c1.113,0,1.852-0.638,1.852-1.77v-4.858c0-0.319,0.163-0.496,0.479-0.496h0.541
				c0.316,0,0.478,0.177,0.478,0.496v4.868c0,1.877-1.335,3.148-3.339,3.148c-2.016,0-3.352-1.271-3.352-3.148V119.115z"/>
			<path d="M63.606,125.602l0.257-0.379c0.188-0.259,0.387-0.27,0.681-0.105c0.269,0.187,0.865,0.612,1.688,0.612
				c0.772,0,1.241-0.389,1.241-0.956c0-1.593-3.879-1.261-3.879-3.868c0-1.472,1.219-2.428,2.8-2.428
				c0.985,0,1.794,0.378,2.146,0.638c0.26,0.188,0.291,0.413,0.152,0.67l-0.212,0.392c-0.175,0.341-0.421,0.294-0.666,0.162
				c-0.341-0.198-0.796-0.458-1.442-0.458c-0.771,0-1.264,0.376-1.264,0.943c0,1.567,3.879,1.169,3.879,3.832
				c0,1.354-1.012,2.476-2.755,2.476c-1.185,0-2.147-0.529-2.554-0.849C63.488,126.12,63.371,125.919,63.606,125.602z"/>
			<path d="M70.451,119.115c0-0.319,0.164-0.496,0.48-0.496h0.539c0.316,0,0.48,0.177,0.48,0.496v7.38
				c0,0.329-0.164,0.495-0.48,0.495h-0.539c-0.316,0-0.48-0.166-0.48-0.495V119.115z"/>
			<path d="M77.697,118.478c2.521,0,4.301,1.875,4.301,4.268c0,2.465-1.78,4.387-4.301,4.387c-2.52,0-4.301-1.922-4.301-4.387
				C73.396,120.353,75.178,118.478,77.697,118.478z M77.697,125.743c1.594,0,2.74-1.301,2.74-2.998c0-1.628-1.146-2.875-2.74-2.875
				s-2.741,1.247-2.741,2.875C74.956,124.442,76.104,125.743,77.697,125.743z"/>
			<path d="M83.244,119.115c0-0.319,0.165-0.496,0.48-0.496h0.634c0.278,0,0.456,0.095,0.586,0.331l2.952,4.503
				c0.316,0.495,0.692,1.296,0.692,1.296h0.023c0,0-0.083-0.801-0.083-1.296v-4.338c0-0.319,0.177-0.496,0.492-0.496h0.528
				c0.315,0,0.491,0.177,0.491,0.496v7.38c0,0.329-0.176,0.495-0.491,0.495h-0.632c-0.26,0-0.446-0.093-0.575-0.327l-2.966-4.494
				c-0.305-0.496-0.69-1.297-0.69-1.297h-0.024c0,0,0.082,0.801,0.082,1.297v4.326c0,0.329-0.164,0.495-0.479,0.495h-0.54
				c-0.315,0-0.48-0.166-0.48-0.495V119.115z"/>
			<path d="M49.441,92.509c0.034-0.305,0.199-0.47,0.504-0.47h0.738c0.28,0,0.459,0.13,0.553,0.401l1.484,3.736
				c0.191,0.495,0.422,1.227,0.422,1.227h0.026c0,0,0.221-0.731,0.41-1.227l1.487-3.736c0.094-0.271,0.27-0.401,0.562-0.401h0.727
				c0.306,0,0.481,0.165,0.503,0.47l0.6,7.395c0.022,0.318-0.142,0.508-0.47,0.508h-0.527c-0.302,0-0.48-0.164-0.502-0.473
				l-0.318-4.209c-0.034-0.554-0.012-1.297-0.012-1.297h-0.022c0,0-0.259,0.814-0.446,1.297l-1.206,2.854
				c-0.094,0.261-0.271,0.391-0.552,0.391h-0.49c-0.295,0-0.471-0.13-0.563-0.391l-1.196-2.854
				c-0.188-0.482-0.457-1.309-0.457-1.309h-0.023c0,0,0.023,0.755-0.012,1.309l-0.316,4.209c-0.025,0.309-0.188,0.473-0.505,0.473
				h-0.526c-0.329,0-0.492-0.189-0.468-0.508L49.441,92.509z"/>
			<path d="M61.438,92.44c0.092-0.271,0.27-0.401,0.55-0.401h0.75c0.281,0,0.468,0.13,0.551,0.401l2.603,7.405
				c0.115,0.341-0.037,0.565-0.399,0.565h-0.54c-0.281,0-0.468-0.131-0.551-0.401l-0.586-1.745h-2.918l-0.573,1.733
				c-0.081,0.282-0.269,0.413-0.551,0.413h-0.539c-0.362,0-0.515-0.225-0.399-0.565L61.438,92.44z M63.44,97.026l-0.738-2.24
				c-0.14-0.471-0.327-1.298-0.327-1.298h-0.023c0,0-0.188,0.827-0.33,1.298l-0.75,2.24H63.44z"/>
			<path d="M67.015,92.535c0-0.319,0.165-0.496,0.481-0.496h0.537c0.319,0,0.482,0.177,0.482,0.496v6.565h3.105
				c0.326,0,0.492,0.168,0.492,0.485v0.328c0,0.333-0.166,0.497-0.492,0.497h-4.125c-0.316,0-0.481-0.164-0.481-0.497V92.535z"/>
			<path d="M75.656,92.44c0.092-0.271,0.269-0.401,0.552-0.401h0.749c0.281,0,0.469,0.13,0.55,0.401l2.603,7.405
				c0.117,0.341-0.037,0.565-0.398,0.565h-0.54c-0.28,0-0.47-0.131-0.548-0.401l-0.588-1.745h-2.918l-0.574,1.733
				c-0.083,0.282-0.271,0.413-0.551,0.413h-0.539c-0.364,0-0.516-0.225-0.398-0.565L75.656,92.44z M77.66,97.026l-0.738-2.24
				c-0.141-0.471-0.33-1.298-0.33-1.298h-0.024c0,0-0.185,0.827-0.326,1.298l-0.751,2.24H77.66z"/>
			<path d="M81.213,92.535c0-0.319,0.166-0.496,0.48-0.496h0.635c0.281,0,0.459,0.095,0.584,0.331l2.955,4.504
				c0.315,0.496,0.689,1.297,0.689,1.297h0.025c0,0-0.082-0.801-0.082-1.297v-4.339c0-0.319,0.174-0.496,0.494-0.496h0.525
				c0.314,0,0.491,0.177,0.491,0.496v7.379c0,0.333-0.177,0.497-0.491,0.497h-0.634c-0.258,0-0.444-0.096-0.575-0.331l-2.963-4.491
				c-0.307-0.496-0.691-1.299-0.691-1.299h-0.022c0,0,0.08,0.803,0.08,1.299v4.325c0,0.333-0.165,0.497-0.479,0.497h-0.541
				c-0.314,0-0.48-0.164-0.48-0.497V92.535z"/>
			<path d="M93.959,91.898c1.371,0,2.366,0.519,2.718,0.765c0.255,0.201,0.278,0.413,0.105,0.684l-0.211,0.332
				c-0.176,0.271-0.386,0.294-0.681,0.129c-0.363-0.214-0.959-0.52-1.851-0.52c-1.817,0-2.826,1.321-2.826,2.9
				c0,1.758,1.233,2.974,2.776,2.974c1.398,0,2.111-0.921,2.111-0.921v-0.933h-0.797c-0.315,0-0.491-0.179-0.491-0.495v-0.318
				c0-0.328,0.176-0.494,0.491-0.494h1.665c0.317,0,0.479,0.166,0.479,0.494v3.419c0,0.333-0.161,0.497-0.479,0.497h-0.293
				c-0.316,0-0.482-0.164-0.482-0.401v-0.199c0-0.106,0.012-0.201,0.012-0.201h-0.021c0,0-0.834,0.944-2.439,0.944
				c-2.201,0-4.09-1.734-4.09-4.295C89.656,93.761,91.473,91.898,93.959,91.898z"/>
			<path d="M53.131,105.401c1.359,0,2.273,0.518,2.719,0.838c0.246,0.188,0.26,0.424,0.094,0.684l-0.211,0.342
				c-0.166,0.27-0.387,0.296-0.668,0.117c-0.363-0.236-1.02-0.589-1.875-0.589c-1.814,0-2.789,1.333-2.789,2.878
				c0,1.568,1.009,2.995,2.801,2.995c0.938,0,1.652-0.448,2.039-0.733c0.258-0.187,0.492-0.187,0.682,0.084l0.232,0.319
				c0.176,0.233,0.165,0.481-0.07,0.683c-0.469,0.377-1.467,1.039-2.941,1.039c-2.613,0-4.301-1.898-4.301-4.364
				C48.842,107.265,50.612,105.401,53.131,105.401z"/>
			<path d="M57.584,106.039c0-0.319,0.165-0.496,0.482-0.496h2.248c0.82,0,1.23,0.071,1.582,0.226
				c0.844,0.352,1.396,1.154,1.396,2.285c0,0.991-0.518,1.934-1.383,2.289v0.023c0,0,0.104,0.129,0.268,0.436l1.371,2.523
				c0.199,0.344,0.047,0.59-0.34,0.59h-0.634c-0.269,0-0.444-0.105-0.575-0.345l-1.462-2.78h-1.453v2.629
				c0,0.33-0.165,0.496-0.481,0.496h-0.537c-0.317,0-0.482-0.166-0.482-0.496V106.039z M60.442,109.47
				c0.81,0,1.313-0.507,1.313-1.331c0-0.531-0.2-0.957-0.656-1.145c-0.197-0.095-0.457-0.142-0.9-0.142h-1.114v2.617H60.442z"/>
			<path d="M64.92,106.039c0-0.319,0.165-0.496,0.48-0.496h4.008c0.318,0,0.492,0.177,0.492,0.496v0.331
				c0,0.316-0.174,0.482-0.492,0.482H66.42v2.192h2.32c0.316,0,0.493,0.165,0.493,0.484v0.329c0,0.33-0.177,0.496-0.493,0.496h-2.32
				v2.252h3.178c0.316,0,0.492,0.164,0.492,0.482v0.33c0,0.33-0.176,0.496-0.492,0.496H65.4c-0.315,0-0.48-0.166-0.48-0.496V106.039
				z"/>
			<path d="M73.736,105.943c0.094-0.27,0.27-0.4,0.552-0.4h0.748c0.284,0,0.47,0.131,0.551,0.4l2.604,7.404
				c0.117,0.343-0.037,0.567-0.399,0.567h-0.539c-0.28,0-0.469-0.129-0.549-0.401l-0.588-1.747h-2.916l-0.576,1.736
				c-0.082,0.283-0.268,0.412-0.549,0.412h-0.541c-0.363,0-0.516-0.225-0.398-0.567L73.736,105.943z M75.741,110.53l-0.74-2.24
				c-0.141-0.469-0.327-1.296-0.327-1.296h-0.022c0,0-0.188,0.827-0.329,1.296l-0.751,2.24H75.741z"/>
			<path d="M80.429,106.853H78.19c-0.326,0-0.493-0.166-0.493-0.482v-0.331c0-0.319,0.167-0.496,0.493-0.496h5.978
				c0.316,0,0.479,0.177,0.479,0.496v0.331c0,0.316-0.162,0.482-0.479,0.482h-2.24v6.566c0,0.33-0.162,0.496-0.49,0.496h-0.529
				c-0.316,0-0.479-0.166-0.479-0.496V106.853z"/>
			<path d="M85.68,106.039c0-0.319,0.162-0.496,0.479-0.496h0.537c0.319,0,0.482,0.177,0.482,0.496v7.38
				c0,0.33-0.163,0.496-0.482,0.496h-0.537c-0.316,0-0.479-0.166-0.479-0.496V106.039z"/>
			<path d="M88.588,106.109c-0.117-0.341,0.033-0.566,0.398-0.566h0.621c0.28,0,0.468,0.131,0.551,0.415l1.699,5.043
				c0.152,0.484,0.318,1.228,0.318,1.228h0.02c0,0,0.154-0.743,0.318-1.228l1.723-5.043c0.07-0.284,0.258-0.415,0.539-0.415h0.598
				c0.361,0,0.516,0.226,0.398,0.566l-2.66,7.417c-0.094,0.271-0.27,0.389-0.551,0.389h-0.748c-0.283,0-0.46-0.118-0.555-0.389
				L88.588,106.109z"/>
			<path d="M96.701,106.039c0-0.319,0.162-0.496,0.481-0.496h4.007c0.314,0,0.492,0.177,0.492,0.496v0.331
				c0,0.316-0.178,0.482-0.492,0.482h-2.99v2.192h2.321c0.317,0,0.494,0.165,0.494,0.484v0.329c0,0.33-0.177,0.496-0.494,0.496
				h-2.321v2.252h3.178c0.314,0,0.492,0.164,0.492,0.482v0.33c0,0.33-0.178,0.496-0.492,0.496h-4.194
				c-0.319,0-0.481-0.166-0.481-0.496V106.039z"/>
		</g>
	</g>
</g>
</svg>
