<?xml version="1.0" encoding="utf-8"?>
<!-- Generator: Adobe Illustrator 15.0.0, SVG Export Plug-In . SVG Version: 6.00 Build 0)  -->
<!DOCTYPE svg PUBLIC "-//W3C//DTD SVG 1.1//EN" "http://www.w3.org/Graphics/SVG/1.1/DTD/svg11.dtd">
<svg version="1.1" id="Layer_1" xmlns="http://www.w3.org/2000/svg" xmlns:xlink="http://www.w3.org/1999/xlink" x="0px" y="0px"
	 width="100px" height="100px" viewBox="0 0 100 100" enable-background="new 0 0 100 100" xml:space="preserve">
<g>
	<g>
		<circle fill="#FFFFFF" cx="10.657" cy="67.506" r="8.655"/>
		<circle fill="#FFFFFF" cx="61.116" cy="34.469" r="10.39"/>
		<circle fill="#FFFFFF" cx="23.344" cy="55.289" r="7.433"/>
		<circle fill="#FFFFFF" cx="48.03" cy="22.576" r="6"/>
		<path fill="#FFFFFF" d="M70.283,9.342c1.067,5.016-2.132,9.945-7.148,11.012c-5.013,1.066-9.944-2.133-11.012-7.148
			c-1.065-5.014,2.136-9.943,7.149-11.012C64.29,1.127,69.218,4.328,70.283,9.342z"/>
		<path fill="#FFFFFF" d="M31.843,38.93c0.707,3.314-1.41,6.572-4.724,7.279c-3.317,0.703-6.576-1.412-7.282-4.729
			c-0.703-3.314,1.411-6.574,4.729-7.279C27.88,33.496,31.139,35.613,31.843,38.93z"/>
		<path fill="#FFFFFF" d="M86.963,32.355c0.767,3.596-1.528,7.129-5.122,7.895c-3.594,0.764-7.127-1.533-7.891-5.125
			c-0.764-3.594,1.529-7.127,5.124-7.891C82.667,26.469,86.201,28.764,86.963,32.355z"/>
		<path fill="#FFFFFF" d="M97.733,45.984c0.906,4.264-1.814,8.459-6.081,9.365c-4.267,0.904-8.458-1.816-9.364-6.08
			c-0.908-4.268,1.812-8.459,6.077-9.365C92.634,38.994,96.827,41.719,97.733,45.984z"/>
		<circle fill="#FFFFFF" cx="31.372" cy="28.344" r="4.992"/>
		<path fill="#FFFFFF" d="M38.325,47.549c0.455,2.123-0.901,4.213-3.025,4.662c-2.125,0.453-4.211-0.902-4.664-3.025
			c-0.45-2.125,0.904-4.213,3.027-4.664C35.787,44.068,37.876,45.424,38.325,47.549z"/>
		<circle fill="#FFFFFF" cx="9.914" cy="51.189" r="4.829"/>
		<circle fill="#FFFFFF" cx="12.463" cy="38.431" r="6.07"/>
		<path fill="#FFFFFF" d="M48.535,35.816c0.821,3.869-1.647,7.672-5.515,8.494c-3.865,0.822-7.669-1.648-8.492-5.516
			c-0.822-3.865,1.647-7.67,5.514-8.49C43.911,29.48,47.713,31.949,48.535,35.816z"/>
		<circle fill="#FFFFFF" cx="73.087" cy="22.203" r="4.964"/>
		<path fill="#FFFFFF" d="M79.098,43.717c0.476,2.246-0.956,4.453-3.2,4.932c-2.248,0.477-4.456-0.957-4.934-3.203
			c-0.477-2.246,0.955-4.453,3.201-4.932C76.41,40.037,78.619,41.471,79.098,43.717z"/>
		<circle fill="#FFFFFF" cx="17.187" cy="22.892" r="8.398"/>
	</g>
	<g>
		<path fill="#FFFFFF" d="M34.27,89.996c0-0.32,0.164-0.496,0.48-0.496h3.809c0.315,0,0.492,0.176,0.492,0.496v0.328
			c0,0.318-0.177,0.482-0.492,0.482H35.77v2.373h2.273c0.316,0,0.492,0.162,0.492,0.482v0.33c0,0.318-0.176,0.494-0.492,0.494H35.77
			v2.889c0,0.33-0.164,0.496-0.481,0.496H34.75c-0.316,0-0.48-0.166-0.48-0.496V89.996z"/>
		<path fill="#FFFFFF" d="M40.499,89.996c0-0.32,0.163-0.496,0.481-0.496h0.526c0.328,0,0.49,0.176,0.49,0.496v4.857
			c0,1.133,0.73,1.77,1.843,1.77c1.113,0,1.852-0.637,1.852-1.77v-4.857c0-0.32,0.163-0.496,0.479-0.496h0.541
			c0.316,0,0.478,0.176,0.478,0.496v4.867c0,1.877-1.335,3.148-3.339,3.148c-2.016,0-3.352-1.271-3.352-3.148V89.996z"/>
		<path fill="#FFFFFF" d="M49.035,96.482l0.257-0.379c0.188-0.26,0.387-0.27,0.681-0.105c0.269,0.186,0.865,0.611,1.687,0.611
			c0.772,0,1.241-0.389,1.241-0.955c0-1.594-3.878-1.262-3.878-3.869c0-1.471,1.219-2.428,2.799-2.428
			c0.985,0,1.794,0.379,2.146,0.639c0.26,0.188,0.291,0.412,0.152,0.67l-0.212,0.391c-0.175,0.342-0.421,0.295-0.666,0.162
			c-0.341-0.197-0.796-0.457-1.442-0.457c-0.771,0-1.263,0.375-1.263,0.943c0,1.566,3.878,1.168,3.878,3.832
			c0,1.354-1.012,2.475-2.755,2.475c-1.184,0-2.147-0.529-2.553-0.848C48.917,97,48.799,96.799,49.035,96.482z"/>
		<path fill="#FFFFFF" d="M55.879,89.996c0-0.32,0.164-0.496,0.48-0.496h0.539c0.316,0,0.48,0.176,0.48,0.496v7.379
			c0,0.33-0.164,0.496-0.48,0.496h-0.539c-0.316,0-0.48-0.166-0.48-0.496V89.996z"/>
		<path fill="#FFFFFF" d="M63.125,89.357c2.521,0,4.301,1.875,4.301,4.268c0,2.465-1.78,4.387-4.301,4.387
			c-2.52,0-4.301-1.922-4.301-4.387C58.824,91.232,60.605,89.357,63.125,89.357z M63.125,96.623c1.594,0,2.74-1.301,2.74-2.998
			c0-1.627-1.146-2.875-2.74-2.875s-2.741,1.248-2.741,2.875C60.384,95.322,61.531,96.623,63.125,96.623z"/>
		<path fill="#FFFFFF" d="M68.672,89.996c0-0.32,0.165-0.496,0.48-0.496h0.634c0.278,0,0.456,0.094,0.586,0.33l2.952,4.504
			c0.316,0.494,0.692,1.295,0.692,1.295h0.023c0,0-0.083-0.801-0.083-1.295v-4.338c0-0.32,0.177-0.496,0.492-0.496h0.528
			c0.315,0,0.491,0.176,0.491,0.496v7.379c0,0.33-0.176,0.496-0.491,0.496h-0.632c-0.26,0-0.446-0.094-0.575-0.328l-2.966-4.494
			c-0.305-0.496-0.69-1.297-0.69-1.297H70.09c0,0,0.082,0.801,0.082,1.297v4.326c0,0.33-0.164,0.496-0.479,0.496h-0.54
			c-0.315,0-0.48-0.166-0.48-0.496V89.996z"/>
		<path fill="#FFFFFF" d="M34.87,63.389c0.034-0.305,0.199-0.469,0.504-0.469h0.738c0.28,0,0.459,0.129,0.553,0.4l1.484,3.736
			c0.191,0.496,0.422,1.227,0.422,1.227h0.026c0,0,0.221-0.73,0.41-1.227l1.487-3.736c0.094-0.271,0.27-0.4,0.562-0.4h0.727
			c0.306,0,0.481,0.164,0.503,0.469l0.6,7.395c0.022,0.318-0.142,0.508-0.47,0.508h-0.527c-0.302,0-0.48-0.164-0.502-0.473
			l-0.318-4.209c-0.034-0.553-0.012-1.297-0.012-1.297h-0.022c0,0-0.259,0.814-0.446,1.297l-1.206,2.854
			c-0.094,0.262-0.271,0.391-0.552,0.391h-0.49c-0.295,0-0.471-0.129-0.563-0.391l-1.196-2.854
			c-0.188-0.482-0.457-1.309-0.457-1.309H36.1c0,0,0.023,0.756-0.012,1.309l-0.316,4.209c-0.025,0.309-0.188,0.473-0.505,0.473
			h-0.526c-0.329,0-0.492-0.189-0.468-0.508L34.87,63.389z"/>
		<path fill="#FFFFFF" d="M46.866,63.32c0.092-0.271,0.27-0.4,0.55-0.4h0.75c0.281,0,0.468,0.129,0.551,0.4l2.602,7.406
			c0.115,0.34-0.037,0.564-0.399,0.564h-0.54c-0.281,0-0.468-0.131-0.551-0.4l-0.586-1.746h-2.918l-0.573,1.734
			c-0.081,0.281-0.269,0.412-0.551,0.412h-0.539c-0.362,0-0.515-0.225-0.399-0.564L46.866,63.32z M48.869,67.906l-0.738-2.24
			c-0.14-0.471-0.327-1.297-0.327-1.297H47.78c0,0-0.188,0.826-0.33,1.297l-0.75,2.24H48.869z"/>
		<path fill="#FFFFFF" d="M52.442,63.416c0-0.32,0.165-0.496,0.481-0.496h0.537c0.319,0,0.482,0.176,0.482,0.496v6.564h3.105
			c0.326,0,0.492,0.168,0.492,0.484v0.33c0,0.332-0.166,0.496-0.492,0.496h-4.125c-0.316,0-0.481-0.164-0.481-0.496V63.416z"/>
		<path fill="#FFFFFF" d="M61.084,63.32c0.092-0.271,0.269-0.4,0.552-0.4h0.749c0.281,0,0.469,0.129,0.55,0.4l2.603,7.406
			c0.117,0.34-0.037,0.564-0.398,0.564h-0.54c-0.28,0-0.47-0.131-0.548-0.4l-0.588-1.746h-2.918l-0.574,1.734
			c-0.083,0.281-0.271,0.412-0.551,0.412h-0.539c-0.364,0-0.516-0.225-0.398-0.564L61.084,63.32z M63.088,67.906l-0.738-2.24
			c-0.141-0.471-0.33-1.297-0.33-1.297h-0.024c0,0-0.185,0.826-0.326,1.297l-0.751,2.24H63.088z"/>
		<path fill="#FFFFFF" d="M66.641,63.416c0-0.32,0.166-0.496,0.48-0.496h0.635c0.281,0,0.459,0.094,0.584,0.33l2.955,4.504
			c0.315,0.496,0.689,1.297,0.689,1.297h0.025c0,0-0.082-0.801-0.082-1.297v-4.338c0-0.32,0.174-0.496,0.494-0.496h0.525
			c0.314,0,0.491,0.176,0.491,0.496v7.379c0,0.332-0.177,0.496-0.491,0.496h-0.634c-0.258,0-0.444-0.096-0.575-0.33l-2.963-4.492
			c-0.307-0.496-0.691-1.299-0.691-1.299h-0.022c0,0,0.08,0.803,0.08,1.299v4.326c0,0.332-0.165,0.496-0.479,0.496h-0.541
			c-0.314,0-0.48-0.164-0.48-0.496V63.416z"/>
		<path fill="#FFFFFF" d="M79.387,62.779c1.371,0,2.366,0.518,2.718,0.764c0.255,0.201,0.278,0.414,0.105,0.684l-0.211,0.332
			c-0.176,0.271-0.386,0.295-0.681,0.129c-0.363-0.213-0.959-0.52-1.851-0.52c-1.817,0-2.826,1.322-2.826,2.9
			c0,1.758,1.233,2.975,2.776,2.975c1.398,0,2.111-0.922,2.111-0.922v-0.932h-0.797c-0.315,0-0.491-0.18-0.491-0.496v-0.318
			c0-0.328,0.176-0.494,0.491-0.494h1.665c0.317,0,0.479,0.166,0.479,0.494v3.42c0,0.332-0.161,0.496-0.479,0.496h-0.293
			c-0.316,0-0.482-0.164-0.482-0.4v-0.199c0-0.107,0.012-0.201,0.012-0.201h-0.021c0,0-0.834,0.943-2.439,0.943
			c-2.201,0-4.09-1.734-4.09-4.295C75.084,64.641,76.9,62.779,79.387,62.779z"/>
		<path fill="#FFFFFF" d="M38.559,76.281c1.359,0,2.273,0.518,2.719,0.838c0.246,0.189,0.26,0.424,0.094,0.684l-0.211,0.342
			c-0.166,0.27-0.387,0.297-0.668,0.117c-0.363-0.236-1.02-0.588-1.875-0.588c-1.814,0-2.789,1.332-2.789,2.877
			c0,1.568,1.009,2.996,2.801,2.996c0.938,0,1.652-0.449,2.039-0.734c0.258-0.186,0.492-0.186,0.682,0.084l0.232,0.318
			c0.176,0.234,0.165,0.482-0.07,0.684c-0.469,0.377-1.467,1.039-2.941,1.039c-2.613,0-4.301-1.898-4.301-4.363
			C34.27,78.145,36.041,76.281,38.559,76.281z"/>
		<path fill="#FFFFFF" d="M43.012,76.92c0-0.32,0.165-0.496,0.482-0.496h2.248c0.82,0,1.23,0.07,1.582,0.225
			c0.844,0.352,1.396,1.154,1.396,2.285c0,0.992-0.518,1.934-1.383,2.289v0.023c0,0,0.104,0.129,0.268,0.436l1.371,2.523
			c0.199,0.344,0.047,0.59-0.34,0.59h-0.634c-0.269,0-0.444-0.105-0.575-0.344l-1.462-2.781h-1.453v2.629
			c0,0.33-0.165,0.496-0.481,0.496h-0.537c-0.317,0-0.482-0.166-0.482-0.496V76.92z M45.871,80.35c0.81,0,1.313-0.506,1.313-1.33
			c0-0.531-0.2-0.957-0.656-1.145c-0.197-0.096-0.457-0.143-0.9-0.143h-1.114v2.617H45.871z"/>
		<path fill="#FFFFFF" d="M50.348,76.92c0-0.32,0.165-0.496,0.48-0.496h4.007c0.318,0,0.492,0.176,0.492,0.496v0.33
			c0,0.316-0.174,0.482-0.492,0.482h-2.988v2.193h2.32c0.316,0,0.493,0.164,0.493,0.484v0.328c0,0.33-0.177,0.496-0.493,0.496h-2.32
			v2.252h3.178c0.316,0,0.492,0.164,0.492,0.482v0.33c0,0.33-0.176,0.496-0.492,0.496h-4.197c-0.315,0-0.48-0.166-0.48-0.496V76.92z
			"/>
		<path fill="#FFFFFF" d="M59.164,76.824c0.094-0.27,0.27-0.4,0.552-0.4h0.748c0.284,0,0.47,0.131,0.551,0.4l2.604,7.404
			c0.117,0.342-0.037,0.566-0.399,0.566H62.68c-0.28,0-0.469-0.129-0.549-0.4l-0.588-1.748h-2.916l-0.576,1.736
			c-0.082,0.283-0.268,0.412-0.549,0.412h-0.541c-0.363,0-0.516-0.225-0.398-0.566L59.164,76.824z M61.169,81.41l-0.74-2.24
			c-0.141-0.469-0.327-1.295-0.327-1.295h-0.022c0,0-0.188,0.826-0.329,1.295l-0.751,2.24H61.169z"/>
		<path fill="#FFFFFF" d="M65.856,77.732h-2.238c-0.326,0-0.493-0.166-0.493-0.482v-0.33c0-0.32,0.167-0.496,0.493-0.496h5.978
			c0.316,0,0.479,0.176,0.479,0.496v0.33c0,0.316-0.162,0.482-0.479,0.482h-2.24v6.566c0,0.33-0.162,0.496-0.49,0.496h-0.529
			c-0.316,0-0.479-0.166-0.479-0.496V77.732z"/>
		<path fill="#FFFFFF" d="M71.107,76.92c0-0.32,0.162-0.496,0.479-0.496h0.537c0.319,0,0.482,0.176,0.482,0.496v7.379
			c0,0.33-0.163,0.496-0.482,0.496h-0.537c-0.316,0-0.479-0.166-0.479-0.496V76.92z"/>
		<path fill="#FFFFFF" d="M74.016,76.99c-0.117-0.342,0.033-0.566,0.398-0.566h0.621c0.28,0,0.468,0.131,0.551,0.414l1.699,5.043
			c0.152,0.484,0.318,1.229,0.318,1.229h0.02c0,0,0.154-0.744,0.318-1.229l1.723-5.043c0.07-0.283,0.258-0.414,0.539-0.414h0.598
			c0.361,0,0.516,0.225,0.398,0.566l-2.66,7.416c-0.094,0.271-0.27,0.389-0.551,0.389H77.24c-0.283,0-0.46-0.117-0.555-0.389
			L74.016,76.99z"/>
		<path fill="#FFFFFF" d="M82.129,76.92c0-0.32,0.162-0.496,0.481-0.496h4.007c0.314,0,0.492,0.176,0.492,0.496v0.33
			c0,0.316-0.178,0.482-0.492,0.482h-2.99v2.193h2.321c0.317,0,0.494,0.164,0.494,0.484v0.328c0,0.33-0.177,0.496-0.494,0.496
			h-2.321v2.252h3.178c0.314,0,0.492,0.164,0.492,0.482v0.33c0,0.33-0.178,0.496-0.492,0.496H82.61
			c-0.319,0-0.481-0.166-0.481-0.496V76.92z"/>
	</g>
</g>
</svg>
