<?xml version="1.0" encoding="UTF-8" standalone="no"?>
<!-- Generator: Adobe Illustrator 15.0.0, SVG Export Plug-In . SVG Version: 6.00 Build 0)  -->

<svg
   xmlns:dc="http://purl.org/dc/elements/1.1/"
   xmlns:cc="http://creativecommons.org/ns#"
   xmlns:rdf="http://www.w3.org/1999/02/22-rdf-syntax-ns#"
   xmlns:svg="http://www.w3.org/2000/svg"
   xmlns="http://www.w3.org/2000/svg"
   xmlns:sodipodi="http://sodipodi.sourceforge.net/DTD/sodipodi-0.dtd"
   xmlns:inkscape="http://www.inkscape.org/namespaces/inkscape"
   version="1.1"
   id="Layer_1"
   x="0px"
   y="0px"
   width="96"
   height="75"
   viewBox="0 0 100 100"
   enable-background="new 0 0 100 100"
   xml:space="preserve"
   inkscape:version="0.91 r13725"
   sodipodi:docname="mcf-logo-white-notext.svg"><metadata
     id="metadata85"><rdf:RDF><cc:Work
         rdf:about=""><dc:format>image/svg+xml</dc:format><dc:type
           rdf:resource="http://purl.org/dc/dcmitype/StillImage" /><dc:title></dc:title></cc:Work></rdf:RDF></metadata><defs
     id="defs83" /><sodipodi:namedview
     pagecolor="#ffffff"
     bordercolor="#666666"
     borderopacity="1"
     objecttolerance="10"
     gridtolerance="10"
     guidetolerance="10"
     inkscape:pageopacity="0"
     inkscape:pageshadow="2"
     inkscape:window-width="1366"
     inkscape:window-height="710"
     id="namedview81"
     showgrid="false"
     inkscape:zoom="6.675088"
     inkscape:cx="45.00178"
     inkscape:cy="40.146624"
     inkscape:window-x="0"
     inkscape:window-y="30"
     inkscape:window-maximized="1"
     inkscape:current-layer="Layer_1" /><g
     id="g5"
     transform="matrix(1.3333324,0,0,1.3333309,-16.632941,-2.3940809)"><circle
       style="fill:#ffffff"
       id="circle7"
       r="8.6549997"
       cy="67.505997"
       cx="10.657" /><circle
       style="fill:#ffffff"
       id="circle9"
       r="10.39"
       cy="34.469002"
       cx="61.116001" /><circle
       style="fill:#ffffff"
       id="circle11"
       r="7.4330001"
       cy="55.289001"
       cx="23.344" /><circle
       style="fill:#ffffff"
       id="circle13"
       r="6"
       cy="22.576"
       cx="48.029999" /><path
       style="fill:#ffffff"
       inkscape:connector-curvature="0"
       id="path15"
       d="M 70.283,9.342 C 71.35,14.358 68.151,19.287 63.135,20.354 58.122,21.42 53.191,18.221 52.123,13.206 51.058,8.192 54.259,3.263 59.272,2.194 64.29,1.127 69.218,4.328 70.283,9.342 Z" /><path
       style="fill:#ffffff"
       inkscape:connector-curvature="0"
       id="path17"
       d="m 31.843,38.93 c 0.707,3.314 -1.41,6.572 -4.724,7.279 -3.317,0.703 -6.576,-1.412 -7.282,-4.729 -0.703,-3.314 1.411,-6.574 4.729,-7.279 3.314,-0.705 6.573,1.412 7.277,4.729 z" /><path
       style="fill:#ffffff"
       inkscape:connector-curvature="0"
       id="path19"
       d="m 86.963,32.355 c 0.767,3.596 -1.528,7.129 -5.122,7.895 -3.594,0.764 -7.127,-1.533 -7.891,-5.125 -0.764,-3.594 1.529,-7.127 5.124,-7.891 3.593,-0.765 7.127,1.53 7.889,5.121 z" /><path
       style="fill:#ffffff"
       inkscape:connector-curvature="0"
       id="path21"
       d="m 97.733,45.984 c 0.906,4.264 -1.814,8.459 -6.081,9.365 -4.267,0.904 -8.458,-1.816 -9.364,-6.08 -0.908,-4.268 1.812,-8.459 6.077,-9.365 4.269,-0.91 8.462,1.815 9.368,6.08 z" /><circle
       style="fill:#ffffff"
       id="circle23"
       r="4.9920001"
       cy="28.344"
       cx="31.372" /><path
       style="fill:#ffffff"
       inkscape:connector-curvature="0"
       id="path25"
       d="m 38.325,47.549 c 0.455,2.123 -0.901,4.213 -3.025,4.662 -2.125,0.453 -4.211,-0.902 -4.664,-3.025 -0.45,-2.125 0.904,-4.213 3.027,-4.664 2.124,-0.454 4.213,0.902 4.662,3.027 z" /><circle
       style="fill:#ffffff"
       id="circle27"
       r="4.829"
       cy="51.188999"
       cx="9.9139996" /><circle
       style="fill:#ffffff"
       id="circle29"
       r="6.0700002"
       cy="38.431"
       cx="12.463" /><path
       style="fill:#ffffff"
       inkscape:connector-curvature="0"
       id="path31"
       d="m 48.535,35.816 c 0.821,3.869 -1.647,7.672 -5.515,8.494 -3.865,0.822 -7.669,-1.648 -8.492,-5.516 -0.822,-3.865 1.647,-7.67 5.514,-8.49 3.869,-0.824 7.671,1.645 8.493,5.512 z" /><circle
       style="fill:#ffffff"
       id="circle33"
       r="4.9640002"
       cy="22.202999"
       cx="73.086998" /><path
       style="fill:#ffffff"
       inkscape:connector-curvature="0"
       id="path35"
       d="m 79.098,43.717 c 0.476,2.246 -0.956,4.453 -3.2,4.932 -2.248,0.477 -4.456,-0.957 -4.934,-3.203 -0.477,-2.246 0.955,-4.453 3.201,-4.932 2.245,-0.477 4.454,0.957 4.933,3.203 z" /><circle
       style="fill:#ffffff"
       id="circle37"
       r="8.3979998"
       cy="22.892"
       cx="17.187" /></g></svg>