<?xml version="1.0" encoding="utf-8"?>
<!-- Generator: Adobe Illustrator 19.0.0, SVG Export Plug-In . SVG Version: 6.00 Build 0)  -->
<svg version="1.1" xmlns="http://www.w3.org/2000/svg" xmlns:xlink="http://www.w3.org/1999/xlink" x="0px" y="0px"
	 viewBox="0 0 1021.3 574.5" style="enable-background:new 0 0 1021.3 574.5;" xml:space="preserve">
<style type="text/css">
	.st0{fill:#7CB29B;}
	.st1{fill:url(#laptop_1_);}
	.st2{fill:url(#envelope_2_);}
	.st3{fill:url(#iPhone_2_);}
	.st4{fill:url(#iPad_1_);}
	.st5{fill:url(#notes_2_);}
	.st6{fill:url(#mouse_2_);}
	.st7{fill:url(#book_2_);}
	.st8{fill:url(#coffee_2_);}
	.st9{fill:url(#pencil_2_);}
	.st10{fill:url(#flashdisk_2_);}
	.st11{fill:url(#ruler_2_);}
	.st12{fill:#EBF6F7;}
	.st13{fill:#CDCCCC;}
	.st14{fill:#CACACA;}
	.st15{fill:#FFFFFF;}
	.st16{fill:#EF4956;}
	.st17{fill:#E9F4F5;}
	.st18{fill:#F78F3E;}
	.st19{fill:#313E55;}
	.st20{fill:#FAA939;}
	.st21{fill:#95A5A5;}
	.st22{fill:#545555;}
	.st23{fill:#BDC3C7;}
	.st24{fill:#ECF0F1;}
	.st25{fill:#BDC3C7;stroke:#BDC3C7;stroke-miterlimit:10;}
	.st26{fill:none;stroke:#95A5A5;stroke-miterlimit:10;}
	.st27{fill:#E9505A;stroke:#E9505A;stroke-miterlimit:10;}
	.st28{fill:#137EC3;}
	.st29{fill:#1791CA;}
	.st30{fill:#FAA939;stroke:#FAA939;stroke-miterlimit:10;}
	.st31{fill:#FFFFFF;stroke:#FFFFFF;stroke-miterlimit:10;}
	.st32{fill:#91512C;}
	.st33{fill:#7F4522;}
	.st34{fill:none;stroke:#FFFFFF;stroke-width:10;stroke-miterlimit:10;}
	.st35{fill:#955BA5;}
	.st36{fill:#894B9D;}
	.st37{fill:#808285;stroke:#58595B;stroke-width:0.5;stroke-miterlimit:10;}
	.st38{fill:#FFFFFF;stroke:#939598;stroke-miterlimit:10;}
	.st39{fill:#3B97D3;}
	.st40{fill:#2980BA;}
</style>
<g id="background">
	<rect id="XMLID_14_" class="st0" width="1021.3" height="574.5"/>
</g>
<g id="shadow">
	<linearGradient id="laptop_1_" gradientUnits="userSpaceOnUse" x1="268.3172" y1="569.9095" x2="389.8224" y2="236.0766">
		<stop  offset="0" style="stop-color:#7CB29B"/>
		<stop  offset="1" style="stop-color:#669696"/>
	</linearGradient>
	<polyline id="laptop" class="st1" points="627.2,418.8 275.6,194.5 0,472.3 498.5,541.3 627.2,418.8 	"/>
	<linearGradient id="envelope_2_" gradientUnits="userSpaceOnUse" x1="4.547474e-012" y1="164.6197" x2="205.9787" y2="164.6197">
		<stop  offset="0" style="stop-color:#7CB29B"/>
		<stop  offset="1" style="stop-color:#669696"/>
	</linearGradient>
	<polyline id="envelope_1_" class="st2" points="81.7,54.2 0,137 0,275.1 172.4,275.1 206,239.6 81.7,54.2 	"/>
	<linearGradient id="iPhone_2_" gradientUnits="userSpaceOnUse" x1="146.6461" y1="508.5731" x2="440.75" y2="508.5731">
		<stop  offset="0" style="stop-color:#7CB29B"/>
		<stop  offset="1" style="stop-color:#669696"/>
	</linearGradient>
	<polyline id="iPhone_1_" class="st3" points="440.8,516.7 279.1,442.3 146.6,574.8 383.8,574.8 440.8,516.7 	"/>
	<linearGradient id="iPad_1_" gradientUnits="userSpaceOnUse" x1="9.094947e-013" y1="425.5808" x2="250.1667" y2="425.5808">
		<stop  offset="0" style="stop-color:#7CB29B"/>
		<stop  offset="1" style="stop-color:#669696"/>
	</linearGradient>
	<polyline id="iPad" class="st4" points="82.7,276.7 0,362.7 0,574.5 195.2,574.5 250.2,519.3 82.7,276.7 	"/>
	<linearGradient id="notes_2_" gradientUnits="userSpaceOnUse" x1="580.6667" y1="460.25" x2="938.1667" y2="460.25">
		<stop  offset="0" style="stop-color:#7CB29B"/>
		<stop  offset="1" style="stop-color:#669696"/>
	</linearGradient>
	<polyline id="notes_1_" class="st5" points="938.2,519 809.8,345.7 580.7,574.8 882.8,574.5 938.2,519 	"/>
	<linearGradient id="mouse_2_" gradientUnits="userSpaceOnUse" x1="553.833" y1="500.956" x2="747.6424" y2="500.956">
		<stop  offset="0" style="stop-color:#7CB29B"/>
		<stop  offset="1" style="stop-color:#669696"/>
	</linearGradient>
	<polygon id="mouse_1_" class="st6" points="700.3,427.4 747.6,508.8 682.2,574.5 553.8,574.6 	"/>
	<linearGradient id="book_2_" gradientUnits="userSpaceOnUse" x1="756.5843" y1="251.4137" x2="802.1544" y2="81.3437">
		<stop  offset="0" style="stop-color:#7CB29B"/>
		<stop  offset="1" style="stop-color:#669696"/>
	</linearGradient>
	<polyline id="book_1_" class="st7" points="965.3,173 863.2,275.1 581.5,204.5 706.6,55.7 965.3,173 	"/>
	<linearGradient id="coffee_2_" gradientUnits="userSpaceOnUse" x1="647.5708" y1="328.4167" x2="932.8333" y2="328.4167">
		<stop  offset="0" style="stop-color:#7CB29B"/>
		<stop  offset="1" style="stop-color:#669696"/>
	</linearGradient>
	<polyline id="coffee_1_" class="st8" points="932.8,280.3 821.3,238 647.6,414.7 816.6,418.8 932.8,280.3 	"/>
	<linearGradient id="pencil_2_" gradientUnits="userSpaceOnUse" x1="565.9269" y1="460.9115" x2="797" y2="460.9115">
		<stop  offset="0" style="stop-color:#7CB29B"/>
		<stop  offset="1" style="stop-color:#669696"/>
	</linearGradient>
	<polygon id="pencil_1_" class="st9" points="797,519 793.3,347.3 565.9,574.6 753.8,574.5 	"/>
	<linearGradient id="flashdisk_2_" gradientUnits="userSpaceOnUse" x1="466.5" y1="505.7814" x2="627.75" y2="505.7814">
		<stop  offset="0" style="stop-color:#7CB29B"/>
		<stop  offset="1" style="stop-color:#669696"/>
	</linearGradient>
	<polyline id="flashdisk_1_" class="st10" points="627.8,519.8 605.5,436.8 466.5,574.8 572.5,574.5 627.8,519.8 	"/>
	<linearGradient id="ruler_2_" gradientUnits="userSpaceOnUse" x1="365.0054" y1="231.6672" x2="414.9112" y2="45.4162">
		<stop  offset="0" style="stop-color:#7CB29B"/>
		<stop  offset="1" style="stop-color:#669696"/>
	</linearGradient>
	<polyline id="ruler_1_" class="st11" points="630.8,103.3 547.8,173.8 149.2,173.8 275.8,52.8 630.8,103.3 	"/>
</g>
<g id="mouse">
	<path id="XMLID_81_" class="st12" d="M753.8,434.5V495c0,0-3,21.3-24.5,24c0,0-25.8,3-32.3-24v-60.5c0,0,7-22.8,28.4-21.5
		C725.4,413,748,413,753.8,434.5z"/>
	<path id="XMLID_80_" class="st13" d="M722.3,429.3c0,0,2.5-4.3,7,0v13.5c0,0-4,5.7-7,0V429.3z"/>
	<polygon id="XMLID_82_" class="st14" points="630.3,220 630.3,228.7 646.4,228.7 647.6,227.5 647.6,221.2 646.2,220 	"/>
	<path id="XMLID_83_" class="st15" d="M647.6,222.4h49.3c0,0,27.4,3.4,31.3,31.4l0.4,159.5l-4.8-0.3l-0.4-158.7
		c0.6-0.6-7-24.6-26.6-27.3l-49.1-0.7V222.4z"/>
	<path id="XMLID_84_" class="st15" d="M630.3,194.5l0.3,220.8c0,0-0.7,3-3.5,3.5L279,418.7c0,0-4-2-3.3-4l-0.1-220.2
		c0,0,1.6-4.8,5.6-4.8h344.5C625.7,189.7,630.3,191.5,630.3,194.5z"/>
	<path id="XMLID_85_" class="st14" d="M658.8,189.7c0,0,2.3-1.5,3-3.3V178c0,0-0.5-3.5-3-4.2h-411c0,0-2.7,1.3-3,3.2v9.8
		c0,0,0.8,2.7,3.2,2.8H658.8z"/>
	<path id="XMLID_86_" class="st14" d="M617.3,208.5L617,340.8c0,0,0,2.8-3.5,4.9L293,345.5c0,0-3-1.3-3.5-4v-133c0,0,1.3-3.8,4.5-4
		h318.3C612.3,204.5,617.3,205.5,617.3,208.5z"/>
	<rect id="XMLID_87_" x="409.8" y="349" class="st14" width="86.7" height="50.7"/>
	<rect id="XMLID_88_" x="455.2" y="402" class="st14" width="41.3" height="12.7"/>
	<rect id="XMLID_89_" x="409.8" y="402" class="st14" width="42" height="12.7"/>
</g>
<g id="pencil">
	<rect id="XMLID_75_" x="792.1" y="355.3" class="st16" width="9.7" height="145.6"/>
	<path id="XMLID_77_" class="st17" d="M792.1,352h9.7v-2.7c0,0-1.3-3.5-5.2-3.6c0,0-4.5,1-4.5,3.6S792.1,352,792.1,352h9.7"/>
	<polyline id="XMLID_78_" class="st18" points="792.1,500.9 801.8,500.9 798.6,512.9 796.9,519 795.3,512.7 792.1,500.9 	"/>
	<polyline id="XMLID_76_" class="st19" points="792.1,355.3 792.1,352 801.8,352 801.8,355.3 792.1,355.3 	"/>
	<polygon id="XMLID_79_" points="795.3,512.8 798.6,512.8 796.9,519 	"/>
</g>
<g id="notes">
	<polyline id="XMLID_57_" class="st12" points="809.8,363.3 938.2,363.3 938.2,519 809.8,519 809.8,363.3 	"/>
	<rect id="XMLID_55_" x="809.8" y="345.7" class="st20" width="128.3" height="23.3"/>
	<circle id="XMLID_58_" class="st12" cx="816.6" cy="352" r="3"/>
	<circle id="XMLID_59_" class="st12" cx="827.2" cy="352.3" r="3"/>
	<circle id="XMLID_60_" class="st12" cx="838.2" cy="352.3" r="3"/>
	<circle id="XMLID_61_" class="st12" cx="848.4" cy="352.3" r="3"/>
	<circle id="XMLID_62_" class="st12" cx="858.4" cy="352.3" r="3"/>
	<circle id="XMLID_63_" class="st12" cx="869.2" cy="352.3" r="3"/>
	<circle id="XMLID_64_" class="st12" cx="879.8" cy="352.3" r="3"/>
	<circle id="XMLID_65_" class="st12" cx="890.1" cy="352.3" r="3"/>
	<circle id="XMLID_66_" class="st12" cx="900.1" cy="352.3" r="3"/>
	<circle id="XMLID_67_" class="st12" cx="911.2" cy="352.3" r="3"/>
	<circle id="XMLID_68_" class="st12" cx="922.1" cy="352.3" r="3"/>
	<circle id="XMLID_69_" class="st12" cx="932" cy="352.3" r="3"/>
</g>
<g id="flashdisk">
	<rect id="XMLID_72_" x="605.5" y="436.8" class="st21" width="18.5" height="20.8"/>
	<path id="XMLID_70_" class="st12" d="M602.3,455.5h24.3c0,0,3.3,0.8,3.5,3v57.8c0,0,0.4,3-2.3,3.5h-24.3c0,0-3,0.6-4-2l-0.1-58.5
		C599.4,459.3,599.7,456.5,602.3,455.5z"/>
	<circle id="XMLID_71_" class="st21" cx="615.3" cy="508.8" r="4.3"/>
	<rect id="XMLID_73_" x="609.4" y="442.7" class="st22" width="4" height="3.6"/>
	<rect id="XMLID_74_" x="616.9" y="442.7" class="st22" width="4" height="3.6"/>
</g>
<g id="envelope">
	<rect id="XMLID_15_" x="81.7" y="54.2" class="st15" width="123.8" height="185.5"/>
	<polygon id="XMLID_18_" class="st23" points="206,54.2 206,239.6 138.8,146.9 	"/>
	<polygon id="XMLID_17_" class="st24" points="81.7,54.2 152.6,145.6 81.7,239.6 	"/>
</g>
<g id="ruler">
	<polygon id="XMLID_16_" class="st24" points="631,103.5 631,52.5 275.8,52.8 275.8,103.5 	"/>
	<rect id="XMLID_19_" x="276.2" y="93.5" class="st25" width="354.6" height="9.8"/>
	<line id="XMLID_20_" class="st26" x1="287.8" y1="89.2" x2="287.8" y2="103.2"/>
	<line id="XMLID_21_" class="st26" x1="300.1" y1="97.7" x2="300.1" y2="103.2"/>
	<line id="XMLID_22_" class="st26" x1="313.6" y1="97.7" x2="313.6" y2="103.2"/>
	<line id="XMLID_23_" class="st26" x1="326" y1="89.2" x2="326" y2="103.2"/>
	<line id="XMLID_24_" class="st26" x1="339.6" y1="97.7" x2="339.6" y2="103.2"/>
	<line id="XMLID_25_" class="st26" x1="351.7" y1="97.7" x2="351.7" y2="103.2"/>
	<line id="XMLID_26_" class="st26" x1="365" y1="89.2" x2="365" y2="103.2"/>
	<line id="XMLID_27_" class="st26" x1="377.4" y1="97.7" x2="377.4" y2="103.2"/>
	<line id="XMLID_28_" class="st26" x1="390.6" y1="97.7" x2="390.6" y2="103.2"/>
	<line id="XMLID_29_" class="st26" x1="403" y1="89.2" x2="403" y2="103.2"/>
	<line id="XMLID_30_" class="st26" x1="416.3" y1="97.7" x2="416.3" y2="103.2"/>
	<line id="XMLID_31_" class="st26" x1="428.7" y1="97.7" x2="428.7" y2="103.2"/>
	<line id="XMLID_32_" class="st26" x1="440.8" y1="89.2" x2="440.8" y2="103.2"/>
	<line id="XMLID_33_" class="st26" x1="453.3" y1="97.7" x2="453.3" y2="103.2"/>
	<line id="XMLID_34_" class="st26" x1="466.2" y1="97.7" x2="466.2" y2="103.2"/>
	<line id="XMLID_35_" class="st26" x1="478.6" y1="89.2" x2="478.6" y2="103.2"/>
	<line id="XMLID_36_" class="st26" x1="492.1" y1="97.7" x2="492.1" y2="103.2"/>
	<line id="XMLID_37_" class="st26" x1="504.7" y1="97.7" x2="504.7" y2="103.2"/>
	<line id="XMLID_38_" class="st26" x1="518.1" y1="89.2" x2="518.1" y2="103.2"/>
	<line id="XMLID_39_" class="st26" x1="530.4" y1="97.7" x2="530.4" y2="103.2"/>
	<line id="XMLID_40_" class="st26" x1="543.4" y1="97.7" x2="543.4" y2="103.2"/>
	<line id="XMLID_41_" class="st26" x1="555.9" y1="89.2" x2="555.9" y2="103.2"/>
	<line id="XMLID_42_" class="st26" x1="568.9" y1="97.7" x2="568.9" y2="103.2"/>
	<line id="XMLID_43_" class="st26" x1="581.5" y1="97.7" x2="581.5" y2="103.2"/>
	<line id="XMLID_44_" class="st26" x1="593.2" y1="89.2" x2="593.2" y2="103.2"/>
	<line id="XMLID_45_" class="st26" x1="605.6" y1="97.7" x2="605.6" y2="103.2"/>
	<line id="XMLID_46_" class="st26" x1="619" y1="97.7" x2="619" y2="103.2"/>
</g>
<g id="book">
	<polygon id="XMLID_50_" class="st27" points="965.3,159 958.8,166 965.3,173 929.8,173 929.8,159 	"/>
	<path id="XMLID_48_" class="st28" d="M937.8,172.7v11.3c0,0-1.4,4.8-5.7,5.4H710.8c0,0-5.1-0.6-5.9-5.1v-11.6H937.8z"/>
	<path id="XMLID_47_" class="st29" d="M932.2,53.1c0,0,4.8,0.6,5.7,5.1v117.1c0,0-0.8,5.7-5.7,6.2H712.5c0,0-7.1-1.7-7.6-5.7V59.6
		c0,0,0.6-5.1,5.9-6.5H932.2z"/>
	<rect id="XMLID_49_" x="704.9" y="71.7" class="st30" width="233" height="9.7"/>
	<rect id="XMLID_51_" x="747.5" y="93.5" class="st31" width="63.7" height="78.8"/>
</g>
<g id="coffee">
	<circle id="XMLID_53_" class="st32" cx="861.2" cy="272" r="48.7"/>
	<path id="XMLID_54_" class="st33" d="M833.2,236c0,0,60.7,9.3,58.3,70.3c0,0,23-15.7,16-45c0,0-8.3-30.7-38.3-35.3
		C869.2,226,847.8,219.3,833.2,236z"/>
	<circle id="XMLID_52_" class="st34" cx="861.2" cy="272" r="48.7"/>
	<path id="XMLID_56_" class="st31" d="M909.8,264h22c0,0,7.7,3.7,6,8c0,0,1,6-5,8.3h-23V264z"/>
</g>
<g id="ipad">
	<path id="XMLID_4_" class="st15" d="M89.3,270.7H248c0,0,7,0.5,8.2,6.3c1.2,5.8,0.3,236.2,0.3,236.2s-1.2,5.2-6.3,6.2H89.3
		c0,0-6.2-0.8-6.7-5.5V276.7C82.7,276.7,82,270.7,89.3,270.7z"/>
	<rect id="XMLID_5_" x="97.5" y="294.5" class="st35" width="141.5" height="200.5"/>
	<polygon id="XMLID_8_" class="st36" points="97.5,294.5 239,294.5 97.5,495 	"/>
	<circle id="XMLID_6_" class="st37" cx="168" cy="506.5" r="6"/>
</g>
<g id="iPhone">
	<path id="XMLID_7_" class="st38" d="M284.5,438.3h150.3c0,0,8.7,0.7,9.8,8.4l0.3,63.5c0,0-2.1,6.9-7.2,7.9H285.5c0,0-7-2-8-7.3v-64
		C277.5,446.8,278.1,440.2,284.5,438.3z"/>
	<rect id="XMLID_9_" x="296.2" y="442.3" class="st39" width="129.3" height="72.3"/>
	<path id="XMLID_11_" class="st15" d="M358.2,467.3v24c0,0-0.3,7.7-10.7,9.2c0,0-14-1.5-11-14.5c0,0-17-10.7-4-26.7
		C332.5,459.3,349.8,447.3,358.2,467.3z"/>
	<path id="XMLID_10_" class="st15" d="M411.4,511c0,0-2.3,3.6-4.6,0v-65.6c0,0,1.8-3.6,4.6,0V511z"/>
	<path id="XMLID_12_" class="st40" d="M406.8,511c0,0,2,3.5,4.6,0v-28.3h-4.6V511z"/>
	<circle id="XMLID_13_" class="st38" cx="435.1" cy="477.9" r="5.6"/>
</g>
</svg>
