<svg version="1.1" id="Layer_1" xmlns="http://www.w3.org/2000/svg" xmlns:xlink="http://www.w3.org/1999/xlink" x="0px" y="0px" width="729px" height="296px" viewBox="0 0 729 296" enable-background="new 0 0 729 296" xml:space="preserve">
<g id="books">
				<g id="book-css">
					<rect x="614" y="267" fill="#92BED6" width="36" height="29"></rect>
					<rect x="614" y="180" fill="#E1E1E1" width="36" height="87"></rect>
					<rect x="632" y="180" opacity="0.1" enable-background="new    " width="18" height="116"></rect>
					<g>
						<path fill="#383838" d="M626.8,224.2c0-3.2,1.7-4.7,5.2-4.7c1.7,0,3,0.4,4,1.3c0.9,0.9,1.4,2.1,1.4,3.7c0,1.2-0.2,2.2-0.7,3.2
							l-2.1-0.8c0.2-0.4,0.3-0.8,0.4-1.2s0.2-0.8,0.2-1.1c0-1.4-1-2.2-3.1-2.2c-2,0-3,0.7-3,2.2c0,0.5,0.1,1,0.2,1.5
							c0.1,0.5,0.4,0.9,0.7,1.4h-2.4c-0.3-0.4-0.5-0.9-0.6-1.4C626.8,225.5,626.8,224.9,626.8,224.2z"></path>
						<path fill="#383838" d="M630,236.8c-1,0-1.8-0.4-2.4-1.1c-0.5-0.7-0.8-1.8-0.8-3.2c0-0.7,0-1.4,0.1-1.9s0.2-1,0.4-1.5h2.3
							c-0.2,0.5-0.4,1.1-0.6,1.7c-0.2,0.6-0.2,1.2-0.2,1.7c0,1,0.3,1.5,0.9,1.5c0.2,0,0.4-0.1,0.5-0.2c0.1-0.1,0.3-0.4,0.5-0.7
							s0.4-0.8,0.6-1.3c0.3-0.8,0.6-1.4,0.9-1.7c0.3-0.4,0.6-0.6,1-0.8s0.8-0.3,1.3-0.3c0.9,0,1.6,0.4,2.1,1c0.5,0.7,0.7,1.7,0.7,3
							c0,1.2-0.3,2.4-0.8,3.6l-2-0.8c0.2-0.5,0.4-1,0.5-1.4s0.2-0.9,0.2-1.4c0-0.8-0.2-1.2-0.7-1.2c-0.2,0-0.5,0.1-0.6,0.4
							c-0.2,0.3-0.5,0.8-0.8,1.7c-0.3,0.8-0.6,1.4-0.9,1.7c-0.3,0.4-0.6,0.6-1,0.8C630.9,236.7,630.5,236.8,630,236.8z"></path>
						<path fill="#383838" d="M630,246c-1,0-1.8-0.4-2.4-1.1c-0.5-0.7-0.8-1.8-0.8-3.2c0-0.7,0-1.4,0.1-1.9s0.2-1,0.4-1.5h2.3
							c-0.2,0.5-0.4,1.1-0.6,1.7c-0.2,0.6-0.2,1.2-0.2,1.7c0,1,0.3,1.5,0.9,1.5c0.2,0,0.4-0.1,0.5-0.2c0.1-0.1,0.3-0.4,0.5-0.7
							s0.4-0.8,0.6-1.3c0.3-0.8,0.6-1.4,0.9-1.7c0.3-0.4,0.6-0.6,1-0.8s0.8-0.3,1.3-0.3c0.9,0,1.6,0.4,2.1,1c0.5,0.7,0.7,1.7,0.7,3
							c0,1.2-0.3,2.4-0.8,3.6l-2-0.8c0.2-0.5,0.4-1,0.5-1.4s0.2-0.9,0.2-1.4c0-0.8-0.2-1.2-0.7-1.2c-0.2,0-0.5,0.1-0.6,0.4
							c-0.2,0.3-0.5,0.8-0.8,1.7c-0.3,0.8-0.6,1.4-0.9,1.7c-0.3,0.4-0.6,0.6-1,0.8C630.9,245.9,630.5,246,630,246z"></path>
					</g>
				</g>
				<g id="book-html">
					<rect x="650" y="180" fill="#383838" width="30" height="116"></rect>
					<rect x="650" y="158" fill="#383838" width="30" height="7"></rect>
					<g>
						<path fill="#FFFFFF" d="M660.8,207.9v-2.4h4.9V201h-4.9v-2.4h11.4v2.4h-4.5v4.5h4.5v2.4H660.8z"></path>
						<path fill="#FFFFFF" d="M660.8,215.2v-2.4h9.4v-3.1h2v8.6h-2v-3.1H660.8z"></path>
						<path fill="#FFFFFF" d="M660.8,224.9l8.9-2.7v-0.1c-1.8,0.1-3,0.1-3.6,0.1h-5.3V220h11.4v3.3l-8.7,2.7l0,0l8.7,2.9v3.3h-11.4V230
							h5.4c0.3,0,0.5,0,0.9,0c0.3,0,1.2,0,2.6,0.1V230l-8.9-2.9L660.8,224.9L660.8,224.9z"></path>
						<path fill="#FFFFFF" d="M660.8,235.1h11.4v2.4h-9.4v4.6h-2V235.1z"></path>
					</g>
					<rect x="650" y="165" fill="#E1E1E1" width="30" height="15"></rect>
					<rect x="650" y="267" fill="#E1E1E1" width="30" height="29"></rect>
					<rect x="665" y="158" opacity="0.2" enable-background="new    " width="15" height="138"></rect>
				</g>
				<g id="book-js">
					
						<rect x="702.5" y="268.4" transform="matrix(-0.9674 0.2534 -0.2534 -0.9674 1475.9391 371.8476)" fill="#383838" width="23" height="25.1"></rect>
					
						<rect x="689.9" y="195.4" transform="matrix(-0.9674 0.2534 -0.2534 -0.9674 1438.9562 280.1828)" fill="#E5E1D0" width="23" height="74.7"></rect>
					
						<rect id="book-shadow" x="704.3" y="193.5" transform="matrix(-0.9674 0.2534 -0.2534 -0.9674 1458.6711 298.9892)" opacity="0.1" enable-background="new    " width="11.5" height="99.8"></rect>
					<g>
						<path fill="#383838" d="M695.6,234.1c-0.1-0.4-0.2-0.8-0.2-1.1l1.5-0.4c0,0.3,0,0.6,0.1,0.9c0.1,0.4,0.3,0.7,0.6,0.8
							s0.7,0.1,1.3,0l8.2-2.2l0.5,1.9l-8.2,2.1c-1,0.3-1.9,0.2-2.5-0.1S695.8,235,695.6,234.1z"></path>
						<path fill="#383838" d="M703.3,243c-0.8,0.2-1.5,0.1-2.1-0.4s-1-1.2-1.3-2.2c-0.2-0.9-0.3-1.8-0.1-2.6l1.7-0.5
							c-0.1,0.7-0.2,1.2-0.2,1.6c0,0.4,0,0.8,0.1,1.2s0.3,0.7,0.5,0.9s0.5,0.2,0.8,0.1c0.2,0,0.3-0.1,0.4-0.3s0.2-0.3,0.3-0.5
							s0.2-0.6,0.3-1.3c0.1-0.6,0.2-1.1,0.4-1.4s0.4-0.6,0.6-0.9s0.6-0.4,1-0.5c0.8-0.2,1.5-0.1,2,0.3s1,1.1,1.2,2
							c0.1,0.5,0.2,0.9,0.2,1.3c0,0.4,0,0.9-0.1,1.4l-1.6-0.2c0.1-0.5,0.1-0.9,0.1-1.3s0-0.6-0.1-0.9c-0.1-0.4-0.2-0.6-0.5-0.7
							s-0.5-0.2-0.7-0.1c-0.2,0-0.3,0.1-0.4,0.2c-0.1,0.1-0.2,0.3-0.3,0.5s-0.2,0.6-0.3,1.3c-0.2,0.9-0.4,1.6-0.7,2
							S703.8,242.8,703.3,243z"></path>
					</g>
				</g>
			</g>
		</svg>