<svg version="1.1" id="Layer_1" xmlns="http://www.w3.org/2000/svg" xmlns:xlink="http://www.w3.org/1999/xlink" x="0px" y="0px" width="729px" height="296px" viewBox="0 0 729 296" enable-background="new 0 0 729 296" xml:space="preserve">
<g id="cactus">
				<g>
					<path fill="#67A05F" d="M45.8,204.3h-1.5c-12.8,0-23.2,10.3-23.2,23V266h48v-38.7C69,214.6,58.6,204.3,45.8,204.3z"></path>
					<rect x="14" y="266" fill="#666666" width="62" height="30"></rect>
					<path fill="#55844D" d="M45.8,204.2H45V266h24v-38.8C69,214.5,58.6,204.2,45.8,204.2z"></path>
					<rect y="250" fill="#383838" width="90" height="20"></rect>
					<polygon fill="#4C4C4C" points="14,270 76,289 76,269.9 		"></polygon>
					<line fill="none" stroke="#E5E1D0" stroke-width="2" stroke-miterlimit="10" x1="23.7" y1="240.2" x2="18.2" y2="235.3"></line>
					<line fill="none" stroke="#E5E1D0" stroke-width="2" stroke-miterlimit="10" x1="66.7" y1="237.7" x2="72.2" y2="235.3"></line>
					<line fill="none" stroke="#E5E1D0" stroke-width="2" stroke-miterlimit="10" x1="60.2" y1="219.2" x2="61.7" y2="214.2"></line>
					<line fill="none" stroke="#E5E1D0" stroke-width="2" stroke-miterlimit="10" x1="35.7" y1="219.2" x2="33.2" y2="216.7"></line>
					<line fill="none" stroke="#E5E1D0" stroke-width="2" stroke-miterlimit="10" x1="48.2" y1="228.7" x2="52.2" y2="224.2"></line>
					<line fill="none" stroke="#E5E1D0" stroke-width="2" stroke-miterlimit="10" x1="38.2" y1="237.7" x2="35.7" y2="232.7"></line>
					<line fill="none" stroke="#E5E1D0" stroke-width="2" stroke-miterlimit="10" x1="39.2" y1="206.1" x2="36.7" y2="203.2"></line>
					<line fill="none" stroke="#E5E1D0" stroke-width="2" stroke-miterlimit="10" x1="23.7" y1="221.2" x2="21.2" y2="214.2"></line>
					<line fill="none" stroke="#E5E1D0" stroke-width="2" stroke-miterlimit="10" x1="54.7" y1="245.7" x2="56.9" y2="240.2"></line>
					<line fill="none" stroke="#E5E1D0" stroke-width="2" stroke-miterlimit="10" x1="54.7" y1="208.7" x2="56.9" y2="205.1"></line>
				</g>
			</g>
		</svg>