<svg version="1.1" id="Layer_1" xmlns="http://www.w3.org/2000/svg" xmlns:xlink="http://www.w3.org/1999/xlink" x="0px" y="0px" width="729px" height="296px" viewBox="0 0 729 296" enable-background="new 0 0 729 296" xml:space="preserve">
<g id="imac_1_">
				<g id="imac">
					<g>
						<rect x="319" y="240" fill="#C9C9C9" width="88" height="52.5"></rect>
					</g>
					<g>
						<path fill="#E1E1E1" d="M553,236c0,7.7-6.3,14-14,14H187c-7.7,0-14-6.3-14-14v-23h380V236z"></path>
					</g>
					<g>
						<path fill="#383838" d="M553,214H173V15c0-8.3,6.7-15,15-15h350c8.3,0,15,6.7,15,15V214z"></path>
					</g>
					<g>
						<rect x="295" y="289" fill="#E1E1E1" width="136" height="7"></rect>
					</g>
					<g id="shadow">
						<polygon fill="#B7B7B7" points="319,250 407,279 407,250 			"></polygon>
					</g>
				</g>
				<g id="screen">
					<rect x="190" y="16" fill="#92BED6" width="346" height="182"></rect>
				</g>
				<g id="browser">
					<g>
						<rect x="298" y="36" fill="#FFFFFF" width="229" height="143"></rect>
					</g>
					<g>
						<path fill="#FFFFFF" d="M527,34H298v-7.2c0-2.1,1.8-3.8,4-3.8h221c2.2,0,4,1.7,4,3.8V34z"></path>
					</g>
					<g>
						<circle fill="#D85050" cx="306" cy="29" r="2"></circle>
					</g>
					<g>
						<circle fill="#E2C444" cx="313" cy="29" r="2"></circle>
					</g>
					<g>
						<circle fill="#6CC667" cx="320" cy="29" r="2"></circle>
					</g>
					<g id="header">
						<g>
							<rect x="298" y="34" fill="#9F9F9F" width="229" height="27"></rect>
						</g>
						<g>
							<circle fill="#FFFFFF" cx="317" cy="47" r="7"></circle>
						</g>
						<g>
							<g>
								<rect x="501" y="42" fill="#FFFFFF" width="14" height="2"></rect>
							</g>
							<g>
								<rect x="501" y="46" fill="#FFFFFF" width="14" height="2"></rect>
							</g>
							<g>
								<rect x="501" y="50" fill="#FFFFFF" width="14" height="2"></rect>
							</g>
						</g>
					</g>
					<g id="footer">
						<g>
							<path fill="#9F9F9F" d="M523.3,188H301.7c-2,0-3.7-1.6-3.7-3.7V167h229v17.3C527,186.4,525.4,188,523.3,188z"></path>
						</g>
						<g>
							<rect x="508" y="177" fill="#FFFFFF" width="9" height="2"></rect>
							<rect x="478" y="177" fill="#FFFFFF" width="23.8" height="2"></rect>
						</g>
					</g>
					<g>
						<rect x="310" y="69" fill="#E5E1D0" width="67" height="89"></rect>
					</g>
					<g>
						<rect x="316.9" y="82" fill="#353434" width="37.1" height="5"></rect>
					</g>
					<g>
						<g>
							<rect x="317" y="94" fill="#C1BFB4" width="50" height="2"></rect>
						</g>
						<g>
							<rect x="317" y="102" fill="#C1BFB4" width="50" height="2"></rect>
						</g>
						<g>
							<rect x="317.4" y="110" fill="#C1BFB4" width="35.6" height="2"></rect>
						</g>
					</g>
					<g>
						<rect x="316" y="130" fill="#C6463D" width="35" height="9"></rect>
					</g>
					<g>
						<rect x="388" y="69" fill="#E5E1D0" width="127" height="89"></rect>
					</g>
					<g>
						<g>
							<rect x="437" y="85" fill="#C1BFB4" width="58" height="2"></rect>
						</g>
						<g>
							<rect x="437" y="92" fill="#C1BFB4" width="58" height="2"></rect>
						</g>
						<g>
							<rect x="437" y="100" fill="#C1BFB4" width="41" height="2"></rect>
						</g>
					</g>
					<g>
						<rect x="397" y="79" fill="#353434" width="30" height="30"></rect>
					</g>
					<g>
						<g>
							<rect x="437" y="124" fill="#C1BFB4" width="58" height="2"></rect>
						</g>
						<g>
							<rect x="437" y="132" fill="#C1BFB4" width="58" height="2"></rect>
						</g>
						<g>
							<rect x="437" y="139" fill="#C1BFB4" width="41" height="2"></rect>
						</g>
					</g>
					<g>
						<rect x="397" y="119" fill="#353434" width="30" height="30"></rect>
					</g>
					<g>
						<path fill="#666666" d="M406,92c1.1,0,2-0.9,2-2s-0.9-2-2-2s-2,0.9-2,2S404.9,92,406,92z"></path>
						<polygon fill="#666666" points="415,94.3 409,99 405.5,95.9 400,100 400,106 424,106 424,100 			"></polygon>
					</g>
					<g>
						<path fill="#666666" d="M406,131c1.1,0,2-0.9,2-2s-0.9-2-2-2s-2,0.9-2,2C404,130.1,404.9,131,406,131z"></path>
						<polygon fill="#666666" points="415,133.3 409,138 405.5,134.9 400,139 400,145 424,145 424,139 			"></polygon>
					</g>
				</g>
				<path fill="#383838" d="M334,174c0,2.2-1.8,4-4,4H208c-2.2,0-4-1.8-4-4V61c0-2.2,1.8-4,4-4h122c2.2,0,4,1.8,4,4V174z"></path>
				<path fill="#232323" d="M212,178h-5c-2.2,0-4-1.8-4-4V61c0-2.2,1.8-4,4-4h5V178z"></path>
				<g id="sublime-text-mask">
					<g>
						<defs>
							<path id="SVGID_1_" d="M334,174c0,2.2-1.8,4-4,4H208c-2.2,0-4-1.8-4-4V61c0-2.2,1.8-4,4-4h122c2.2,0,4,1.8,4,4V174z"></path>
						</defs>
						<clipPath id="SVGID_2_">
							<use xlink:href="#SVGID_1_" overflow="visible"></use>
						</clipPath>
						<g id="sublime-text" clip-path="url(#SVGID_2_)">
							<g id="sublime-text-2">
								<g>
									<path fill="#C6463D" d="M267,259c0,0.5-0.4,1-1,1h-18c-0.6,0-1-0.5-1-1v-2c0-0.5,0.4-1,1-1h18c0.6,0,1,0.5,1,1V259z"></path>
								</g>
								<g>
									<path fill="#E5E1D0" d="M277,238c0,0.6-0.4,1-1,1h-18c-0.5,0-1-0.4-1-1v-2c0-0.6,0.5-1,1-1h18c0.6,0,1,0.4,1,1V238z"></path>
								</g>
								<g>
									<path fill="#FFFFFF" d="M282,207v-2c0-0.5-0.5-1-1-1h-18c-0.5,0-1,0.5-1,1v2c0,0.5,0.5,1,1,1h18C281.5,208,282,207.5,282,207z
										"></path>
									<path fill="#FFFFFF" d="M291,214h-18c-0.5,0-1,0.5-1,1v2c0,0.5,0.5,1,1,1h18c0.5,0,1-0.5,1-1v-2C292,214.5,291.5,214,291,214z
										"></path>
								</g>
								<g>
									<path fill="#424242" d="M223,176h18c0.5,0,1-0.5,1-1v-2c0-0.5-0.5-1-1-1h-18c-0.5,0-1,0.5-1,1v2C222,175.5,222.5,176,223,176z
										"></path>
									<path fill="#424242" d="M223,187h18c0.5,0,1-0.5,1-1v-2c0-0.5-0.5-1-1-1h-18c-0.5,0-1,0.5-1,1v2C222,186.5,222.5,187,223,187z
										"></path>
									<path fill="#424242" d="M232,194v2c0,0.5,0.5,1,1,1h18c0.5,0,1-0.5,1-1v-2c0-0.5-0.5-1-1-1h-18C232.5,193,232,193.5,232,194z"></path>
									<path fill="#424242" d="M236,205v2c0,0.5,0.5,1,1,1h18c0.5,0,1-0.5,1-1v-2c0-0.5-0.4-1-1-1h-18C236.5,204,236,204.5,236,205z"></path>
									<path fill="#424242" d="M266,214h-18c-0.5,0-1,0.5-1,1v2c0,0.5,0.5,1,1,1h18c0.5,0,1-0.5,1-1v-2C267,214.5,266.6,214,266,214z
										"></path>
									<path fill="#424242" d="M256,225h-18c-0.5,0-1,0.5-1,1v2c0,0.5,0.5,1,1,1h18c0.5,0,1-0.5,1-1v-2C257,225.5,256.6,225,256,225z
										"></path>
									<path fill="#424242" d="M251,235h-18c-0.5,0-1,0.5-1,1v2c0,0.5,0.5,1,1,1h18c0.5,0,1-0.5,1-1v-2C252,235.5,251.6,235,251,235z
										"></path>
									<path fill="#424242" d="M251,246h-18c-0.5,0-1,0.5-1,1v2c0,0.5,0.5,1,1,1h18c0.5,0,1-0.5,1-1v-2C252,246.5,251.6,246,251,246z
										"></path>
									<path fill="#424242" d="M241,256h-18c-0.5,0-1,0.5-1,1v2c0,0.5,0.5,1,1,1h18c0.5,0,1-0.5,1-1v-2C242,256.5,241.6,256,241,256z
										"></path>
									<path fill="#424242" d="M241,267h-18c-0.5,0-1,0.5-1,1v2c0,0.5,0.5,1,1,1h18c0.5,0,1-0.5,1-1v-2C242,267.5,241.6,267,241,267z
										"></path>
								</g>
							</g>
							<g id="sublime-text-1">
								<g>
									<path fill="#C6463D" d="M267,153c0,0.5-0.4,1-1,1h-18c-0.6,0-1-0.5-1-1v-2c0-0.6,0.4-1,1-1h18c0.6,0,1,0.4,1,1V153z"></path>
								</g>
								<g>
									<path fill="#E5E1D0" d="M277,132c0,0.5-0.4,1-1,1h-18c-0.5,0-1-0.5-1-1v-2c0-0.6,0.5-1,1-1h18c0.6,0,1,0.4,1,1V132z"></path>
								</g>
								<g>
									<path fill="#FFFFFF" d="M282,101v-2c0-0.5-0.5-1-1-1h-18c-0.5,0-1,0.5-1,1v2c0,0.5,0.5,1,1,1h18C281.5,102,282,101.6,282,101z
										"></path>
									<path fill="#FFFFFF" d="M291,108h-18c-0.5,0-1,0.5-1,1v2c0,0.5,0.5,1,1,1h18c0.5,0,1-0.5,1-1v-2C292,108.5,291.5,108,291,108z
										"></path>
								</g>
								<g>
									<path fill="#424242" d="M223,70h18c0.5,0,1-0.5,1-1v-2c0-0.5-0.5-1-1-1h-18c-0.5,0-1,0.5-1,1v2C222,69.6,222.5,70,223,70z"></path>
									<path fill="#424242" d="M223,81h18c0.5,0,1-0.5,1-1v-2c0-0.5-0.5-1-1-1h-18c-0.5,0-1,0.5-1,1v2C222,80.6,222.5,81,223,81z"></path>
									<path fill="#424242" d="M232,88v2c0,0.5,0.5,1,1,1h18c0.5,0,1-0.5,1-1v-2c0-0.5-0.5-1-1-1h-18C232.5,87,232,87.5,232,88z"></path>
									<path fill="#424242" d="M236,99v2c0,0.5,0.5,1,1,1h18c0.5,0,1-0.5,1-1v-2c0-0.5-0.4-1-1-1h-18C236.5,98,236,98.5,236,99z"></path>
									<path fill="#424242" d="M266,108h-18c-0.5,0-1,0.5-1,1v2c0,0.5,0.5,1,1,1h18c0.5,0,1-0.5,1-1v-2C267,108.5,266.6,108,266,108z
										"></path>
									<path fill="#424242" d="M256,119h-18c-0.5,0-1,0.5-1,1v2c0,0.5,0.5,1,1,1h18c0.5,0,1-0.5,1-1v-2C257,119.5,256.6,119,256,119z
										"></path>
									<path fill="#424242" d="M251,129h-18c-0.5,0-1,0.5-1,1v2c0,0.5,0.5,1,1,1h18c0.5,0,1-0.5,1-1v-2C252,129.5,251.6,129,251,129z
										"></path>
									<path fill="#424242" d="M251,140h-18c-0.5,0-1,0.5-1,1v2c0,0.5,0.5,1,1,1h18c0.5,0,1-0.5,1-1v-2C252,140.5,251.6,140,251,140z
										"></path>
									<path fill="#424242" d="M241,150h-18c-0.5,0-1,0.5-1,1v2c0,0.5,0.5,1,1,1h18c0.5,0,1-0.5,1-1v-2C242,150.5,241.6,150,241,150z
										"></path>
									<path fill="#424242" d="M241,161h-18c-0.5,0-1,0.5-1,1v2c0,0.5,0.5,1,1,1h18c0.5,0,1-0.5,1-1v-2C242,161.5,241.6,161,241,161z
										"></path>
								</g>
							</g>
						</g>
					</g>
				</g>
			</g>
		</svg>