<svg version="1.1" id="Layer_1" xmlns="http://www.w3.org/2000/svg" xmlns:xlink="http://www.w3.org/1999/xlink" x="0px" y="0px" width="729px" height="296px" viewBox="0 0 729 296" enable-background="new 0 0 729 296" xml:space="preserve">
<g id="ipad">
				<g>
					<path fill="#232323" d="M176.7,296H76.3c-4,0-7.3-3.3-7.3-7.3V154.3c0-4,3.3-7.3,7.3-7.3h100.3c4,0,7.3,3.3,7.3,7.3v134.4
						C184,292.7,180.7,296,176.7,296z"></path>
					<rect x="76" y="181" fill="#FFFFFF" width="100" height="97"></rect>
					<ellipse fill="#333333" cx="126.5" cy="286.5" rx="4.5" ry="4.5"></ellipse>
					<circle fill="#333333" cx="127" cy="156" r="2"></circle>
					<g id="header_1_">
						<g>
							<rect x="76" y="165" fill="#9F9F9F" width="100" height="16"></rect>
						</g>
						<g>
							<ellipse fill="#FFFFFF" cx="86.8" cy="172.9" rx="4.2" ry="4.2"></ellipse>
						</g>
						<g>
							<g>
								<rect x="162" y="169" fill="#FFFFFF" width="9" height="1"></rect>
							</g>
							<g>
								<rect x="162" y="172" fill="#FFFFFF" width="9" height="1"></rect>
							</g>
							<g>
								<rect x="162" y="175" fill="#FFFFFF" width="9" height="1"></rect>
							</g>
						</g>
					</g>
					<g>
						<rect x="82" y="187" fill="#E5E1D0" width="89" height="85"></rect>
					</g>
					<g>
						<g>
							<rect x="128" y="202" fill="#C1BFB4" width="34" height="2"></rect>
						</g>
						<g>
							<rect x="128" y="209" fill="#C1BFB4" width="34" height="2"></rect>
						</g>
						<g>
							<rect x="128" y="216" fill="#C1BFB4" width="24" height="2"></rect>
						</g>
					</g>
					<g>
						<rect x="92" y="197" fill="#353434" width="27" height="27"></rect>
					</g>
					<g>
						<g>
							<rect x="128" y="238" fill="#C1BFB4" width="34" height="2"></rect>
						</g>
						<g>
							<rect x="128" y="245" fill="#C1BFB4" width="34" height="2"></rect>
						</g>
						<g>
							<rect x="128" y="252" fill="#C1BFB4" width="24" height="2"></rect>
						</g>
					</g>
					<g>
						<rect x="92" y="233" fill="#353434" width="27" height="27"></rect>
					</g>
					<g>
						<path fill="#666666" d="M99,209c1.1,0,2-0.9,2-2s-0.9-2-2-2s-2,0.9-2,2S97.9,209,99,209z"></path>
						<polygon fill="#666666" points="108,210 102,215 99,212 94,216 94,221 116,221 116,215 			"></polygon>
					</g>
					<g>
						<path fill="#666666" d="M99,245c1.1,0,2-0.9,2-2s-0.9-2-2-2s-2,0.9-2,2S97.9,245,99,245z"></path>
						<polygon fill="#666666" points="108,246 102,250 99,248 94,251 94,257 116,257 116,251 			"></polygon>
					</g>
				</g>
			</g>
		</svg>