<svg version="1.1" id="Layer_1" xmlns="http://www.w3.org/2000/svg" xmlns:xlink="http://www.w3.org/1999/xlink" x="0px" y="0px" width="729px" height="296px" viewBox="0 0 729 296" enable-background="new 0 0 729 296" xml:space="preserve">
<g id="iphone">
				<g>
					<path fill="#232323" d="M598,296h-48c-3.5,0-6-2.5-6-6v-89.6c0-3.5,2.8-6.4,6.4-6.4h47.3c3.5,0,6.4,2.9,6.4,6.4V289
						C604,292.5,601.5,296,598,296z"></path>
					<circle fill="#333333" cx="574" cy="288" r="4"></circle>
					<path fill="#333333" d="M579.2,201h-10.4c-0.4,0-0.8-0.3-0.8-0.7v-0.7c0-0.4,0.4-0.7,0.8-0.7h10.4c0.4,0,0.8,0.3,0.8,0.7v0.7
						C580,200.7,579.6,201,579.2,201z"></path>
					<g>
						<rect x="549" y="219" fill="#E5E1D0" width="50" height="60"></rect>
					</g>
					<g>
						<g>
							<rect x="571" y="225" fill="#C1BFB4" width="25" height="2"></rect>
						</g>
						<g>
							<rect x="571" y="229" fill="#C1BFB4" width="25" height="2"></rect>
						</g>
						<g>
							<rect x="571" y="233" fill="#C1BFB4" width="18" height="2"></rect>
						</g>
					</g>
					<g>
						<rect x="552" y="223" fill="#353434" width="15" height="15"></rect>
					</g>
					<g>
						<circle fill="#666666" cx="556" cy="228" r="1"></circle>
						<polygon fill="#666666" points="560.9,230.1 558.1,232.5 556.5,230.9 554,233 554,236 565,236 565,233 			"></polygon>
					</g>
					<g>
						<g>
							<rect x="571" y="243" fill="#C1BFB4" width="24" height="2"></rect>
						</g>
						<g>
							<rect x="571" y="247" fill="#C1BFB4" width="24" height="2"></rect>
						</g>
						<g>
							<rect x="571" y="251" fill="#C1BFB4" width="18" height="2"></rect>
						</g>
					</g>
					<g>
						<rect x="552" y="241" fill="#353434" width="15" height="15"></rect>
					</g>
					<g>
						<circle fill="#666666" cx="556" cy="246" r="1"></circle>
						<polygon fill="#666666" points="560.9,248 558.1,250.4 556.5,248.9 554,250.9 554,254 565,254 565,250.9 			"></polygon>
					</g>
					<g>
						<g>
							<rect x="571" y="261" fill="#C1BFB4" width="24" height="2"></rect>
						</g>
						<g>
							<rect x="571" y="265" fill="#C1BFB4" width="24" height="2"></rect>
						</g>
						<g>
							<rect x="571" y="269" fill="#C1BFB4" width="18" height="2"></rect>
						</g>
					</g>
					<g>
						<rect x="552" y="259" fill="#353434" width="15" height="15"></rect>
					</g>
					<g>
						<circle fill="#666666" cx="556" cy="264" r="1"></circle>
						<polygon fill="#666666" points="560.9,266.2 558.1,268.5 556.5,267 554,269 554,272 565,272 565,269 			"></polygon>
					</g>
					<g id="header_2_">
						<g>
							<rect x="549" y="208" fill="#9F9F9F" width="50" height="11"></rect>
						</g>
						<g>
							<ellipse fill="#FFFFFF" cx="555" cy="214" rx="3" ry="3"></ellipse>
						</g>
						<g>
							<g>
								<rect x="588" y="211" fill="#FFFFFF" width="8" height="1"></rect>
							</g>
							<g>
								<rect x="588" y="213" fill="#FFFFFF" width="8" height="1"></rect>
							</g>
							<g>
								<rect x="588" y="215" fill="#FFFFFF" width="8" height="1"></rect>
							</g>
						</g>
					</g>
				</g>
			</g>
		</svg>