<?xml version="1.0" encoding="UTF-8" standalone="no"?>
<svg
   xmlns:dc="http://purl.org/dc/elements/1.1/"
   xmlns:cc="http://creativecommons.org/ns#"
   xmlns:rdf="http://www.w3.org/1999/02/22-rdf-syntax-ns#"
   xmlns:svg="http://www.w3.org/2000/svg"
   xmlns="http://www.w3.org/2000/svg"
   xmlns:sodipodi="http://sodipodi.sourceforge.net/DTD/sodipodi-0.dtd"
   xmlns:inkscape="http://www.inkscape.org/namespaces/inkscape"
   version="1.1"
   id="svg2"
   x="0px"
   y="0px"
   width="1400"
   height="230"
   viewBox="0 0 1400 230"
   enable-background="new 0 0 1400 230"
   xml:space="preseve"
   inkscape:version="0.48.4 r9939"
   sodipodi:docname="manual.svg">
  <metadata
     id="metadata118">
    <rdf:RDF>
      <cc:Work
         rdf:about="">
        <dc:format>image/svg+xml</dc:format>
        <dc:type
           rdf:resource="http://purl.org/dc/dcmitype/StillImage" />
      </cc:Work>
    </rdf:RDF>
  </metadata>
  <defs
     id="defs116" />
  <sodipodi:namedview
     pagecolor="#ffffff"
     bordercolor="#666666"
     borderopacity="1"
     objecttolerance="10"
     gridtolerance="10"
     guidetolerance="10"
     inkscape:pageopacity="0"
     inkscape:pageshadow="2"
     inkscape:window-width="1366"
     inkscape:window-height="744"
     id="namedview114"
     showgrid="false"
     inkscape:zoom="0.5"
     inkscape:cx="811.63314"
     inkscape:cy="62.166107"
     inkscape:window-x="0"
     inkscape:window-y="24"
     inkscape:window-maximized="1"
     inkscape:current-layer="svg2" />
  <g
     id="g3"
     transform="translate(0,-56)">
    <path
       d="M 223,172 C 223,114 177,68 119,68 62,68 15,114 15,172 c 0,57 47,104 104,104 58,0 104,-47 104,-104 z"
       id="path5"
       inkscape:connector-curvature="0"
       style="fill:#003459" />
  </g>
  <g
     id="g8" />
  <g
     id="g10"
     transform="translate(0,-56)">
    <path
       style="fill:#ffc179"
       inkscape:connector-curvature="0"
       id="path12"
       d="m 150,141 c -16,0 -29,-12 -31,-28 l 0,0 c -2,16 -15,28 -31,28 l -16,0 0,51 c 0,22 17,39 39,39 l 17,0 c 21,0 38,-17 38,-39 l 0,-51 -16,0 z" />
  </g>
  <g
     id="g68"
     transform="translate(0,-56)">
    <g
       id="g15">
      <path
         style="fill:#ffffff"
         inkscape:connector-curvature="0"
         id="path17"
         d="m 102,164 c 0,-6 -5,-11 -11,-11 -6,0 -10,5 -10,11 0,6 4,11 10,11 6,0 11,-5 11,-11 z" />
    </g>
    <g
       id="g19">
      <path
         style="fill:#593b3d"
         inkscape:connector-curvature="0"
         id="path21"
         d="m 97,164 c 0,-3 -3,-6 -6,-6 -3,0 -6,3 -6,6 0,3 3,6 6,6 3,0 6,-3 6,-6 z" />
    </g>
  </g>
  <g
     id="g74"
     transform="translate(0,-56)">
    <g
       id="g24">
      <path
         style="fill:#ffffff"
         inkscape:connector-curvature="0"
         id="path26"
         d="m 136,164 c 0,-6 5,-11 11,-11 6,0 11,5 11,11 0,6 -5,11 -11,11 -6,0 -11,-5 -11,-11 z" />
    </g>
    <g
       id="g28">
      <path
         style="fill:#593b3d"
         inkscape:connector-curvature="0"
         id="path30"
         d="m 141,164 c 0,-3 3,-6 6,-6 3,0 6,3 6,6 0,3 -3,6 -6,6 -3,0 -6,-3 -6,-6 z" />
    </g>
  </g>
  <g
     id="g80"
     transform="translate(0,-56)">
    <g
       id="g33">
      <path
         style="fill:#593b3d"
         inkscape:connector-curvature="0"
         id="path35"
         d="m 102,216 0,-1 c 9,0 16,-8 16,-17 l 2,0 c 0,10 -8,18 -18,18 z" />
    </g>
    <g
       id="g37">
      <path
         style="fill:#593b3d"
         inkscape:connector-curvature="0"
         id="path39"
         d="m 137,216 c -10,0 -19,-8 -19,-18 l 2,0 c 0,9 7,17 17,17 l 0,1 z" />
    </g>
  </g>
  <g
     id="polygon"
     transform="translate(0,-56)">
    <polygon
       style="fill:#593b3d"
       id="polygon42"
       points="119,188 135,188 119,200 103,188 " />
  </g>
  <g
     id="g44"
     transform="translate(0,-56)">
    <g
       id="g46">
      <polygon
         style="fill:#593b3d"
         id="polygon48"
         points="104,198 84,195 84,193 104,197 " />
    </g>
    <g
       id="g50">
      <polygon
         style="fill:#593b3d"
         id="polygon52"
         points="82,207 82,205 104,204 104,205 " />
    </g>
  </g>
  <g
     id="g54"
     transform="translate(0,-56)">
    <g
       id="g56">
      <polygon
         style="fill:#593b3d"
         id="polygon58"
         points="134,198 134,197 154,193 155,195 " />
    </g>
    <g
       id="g60">
      <polygon
         style="fill:#593b3d"
         id="polygon62"
         points="157,207 134,205 134,204 157,205 " />
    </g>
  </g>
  <g
     id="g64"
     transform="translate(0,-56)">
    <path
       style="fill:#ffc179"
       inkscape:connector-curvature="0"
       id="path66"
       d="m 191,142.56656 c 6,-7 6,-18 0,-25 -7,-6 -18,-6 -25,0 l 25,25 z" />
  </g>
  <g
     id="g69"
     transform="translate(0,-56)">
    <path
       style="fill:#ffc179"
       inkscape:connector-curvature="0"
       id="path71"
       d="m 48,142.56656 c -7,-7 -7,-18 0,-25 6,-6 17,-6 24,0 l -24,25 z" />
  </g>
  <g
     id="g75"
     transform="translate(0,-56)">
    <path
       d="m 245.22983,118.55459 c 1.27503,0 28.36955,0 28.36955,0 l -0.31876,40.16364 27.73204,-40.4824 29.96335,0 -34.42598,52.27648 37.29481,52.59524 -32.83218,0 -27.41328,-42.71371 0,43.03247 -28.0508,0 z"
       id="path77"
       inkscape:connector-curvature="0"
       style="fill:#e9e9e9" />
  </g>
  <g
     id="g79"
     transform="translate(0,-56)">
    <path
       d="m 358.07053,119.1921 c -11.6681,-0.85213 -20.46582,8.69175 -19.76307,19.44431 l -0.31875,65.98312 c 2.09595,15.00728 11.71377,16.82083 20.08182,18.48802 l 49.7264,0.31876 c 10.98783,-2.32471 17.44903,-8.69512 18.80679,-19.44431 l 0,-65.02684 c 0.36251,-11.30246 -6.23916,-19.26459 -16.89423,-19.76306 z m 7.0127,29.96336 c -0.12417,-4.26206 2.0489,-6.99264 7.33145,-7.65022 l 19.76306,0 c 4.80545,0.62762 6.41707,2.8968 6.69394,5.73766 l 0.31876,47.17634 c 0.002,2.99556 -2.84782,5.29746 -4.46262,5.73766 l -23.26941,0.31876 c -3.82851,0.0957 -5.62457,-4.19813 -6.05643,-6.69394 z"
       id="path81"
       inkscape:connector-curvature="0"
       style="fill:#e9e9e9" />
  </g>
  <g
     id="g83"
     transform="translate(0,-56)">
    <path
       d="m 446.68554,118.55459 36.65729,0.31875 22.31313,73.31458 21.35686,-73.63334 37.2948,0 0.31876,104.55297 -24.22568,0 -0.31876,-73.63334 -21.35686,73.63334 -26.13824,0 -21.0381,-76.18341 0,76.50217 -25.18196,0 z"
       id="path85"
       inkscape:connector-curvature="0"
       style="fill:#e9e9e9" />
  </g>
  <path
     style="fill:#e9e9e9"
     d="M 610.84375 62.5625 L 578.96875 167.4375 L 608.625 167.09375 L 614.34375 148.9375 L 644.625 149.25 L 651.34375 168.0625 L 678.09375 167.4375 L 649.75 62.5625 L 610.84375 62.5625 z M 631.03125 83.09375 L 642.3125 129.75 L 617.4375 129.75 L 631.03125 83.09375 z "
     id="path89" />
  <g
     id="g93"
     transform="translate(0,-56)">
    <path
       d="m 692.13,118.55459 27.09452,0 0,81.60231 44.94502,0 0,23.26941 -72.3583,0 z"
       id="path95"
       inkscape:connector-curvature="0"
       style="fill:#e9e9e9" />
  </g>
  <path
     d="m 756.20057,62.23583 77.13969,0 0,22.63189 -26.457,0 0,82.23983 -24.22569,0 0,-81.92107 -26.457,0 z"
     id="path98"
     inkscape:connector-curvature="0"
     style="fill:#003459" />
  <path
     d="m 851.82828,62.23583 72.67706,0 0,22.95065 -50.36393,0 0,17.85051 50.04517,0 0,19.76306 -50.36393,0 0,21.67561 50.04517,0 0,22.63189 -72.67706,0 z"
     id="path100"
     inkscape:connector-curvature="0"
     style="fill:#003459" />
  <path
     d="m 1042.7649,62.55459 26.7758,0 0,40.16364 35.701,0 0,-40.4824 24.2257,0 0,104.55296 -23.9069,0 0,-40.80115 -36.3385,0 0,40.16364 -26.1383,0 z"
     id="path102"
     inkscape:connector-curvature="0"
     style="fill:#003459" />
  <path
     d="m 1152.0993,62.23583 40.1636,0 32.1947,78.09596 0,-77.7772 23.2694,0 0,104.55296 -37.2948,0 -34.7447,-77.45845 0,77.45845 -23.907,0 z"
     id="path104"
     inkscape:connector-curvature="0"
     style="fill:#003459" />
  <path
     d="m 1000.0475,99.10383 24.3428,-0.4508 -0.4508,-15.32697 c -3.273,-12.05091 -12.0926,-17.57643 -22.5397,-21.18729 l -37.8666,0 c -9.89586,2.96255 -16.3981,11.01553 -20.2857,22.99046 l 0,64.01266 c 0.33578,7.0036 6.17727,18.20943 17.58094,17.58094 l 45.07936,0 c 7.4174,0.26335 20.0756,-14.58569 20.0603,-20.06031 l 0,-20.51109 -26.37143,0 0.45083,9.91745 c -0.40526,4.838 -2.17265,8.0635 -5.86035,9.01587 l -17.13015,-0.4508 c -3.94433,-0.358 -6.8337,-1.99306 -6.7619,-7.21269 l 0,-44.17775 c 0.78893,-3.64622 1.73787,-7.14244 5.86031,-7.66349 l 16.67936,0 c 2.84882,1.193 5.3562,2.80331 6.3111,6.31111 z"
     id="path112"
     inkscape:connector-curvature="0"
     style="fill:#003459" />
  <path
     style="fill:#003459"
     d="m 1272.0157,74.06298 -1.7653,76.9161 c 1.0144,10.43367 8.5038,17.54006 21.6878,17.65287 l 42.8713,0 c 8.832,-0.25311 18.8918,-6.92565 19.0399,-19.03988 l 0,-75.02472 c -0.1128,-6.62687 -5.688,-12.05535 -14.5006,-12.35701 l -54.3141,-0.0158 12.2678,26.12714 c 1.0461,-0.75179 3.1871,-1.81815 4.4709,-2.15391 l 20.9312,-0.25218 c 3.0132,-0.0467 7.3066,4.84884 7.3134,7.06115 l -0.2522,45.64529 c -0.1949,3.39729 -3.7347,6.94001 -6.3046,7.06115 l -22.7596,0.37193 c -3.1893,0.004 -6.2398,-3.52013 -6.2416,-5.91998 l 0.2522,-47.41058 c 0.2763,-2.06393 1.3415,-3.38582 2.561,-4.38868 l -12.2556,-26.13049 c -6.1501,0.94631 -13.0028,9.6601 -13.0019,11.85756 z"
     id="path3931"
     inkscape:connector-curvature="0"
     sodipodi:nodetypes="ccccccccccccccccccccc" />
</svg>
