<?xml version="1.0" encoding="utf-8"?>
<!-- Generator: Adobe Illustrator 19.0.0, SVG Export Plug-In . SVG Version: 6.00 Build 0)  -->
<svg version="1.1" id="Layer_1" xmlns="http://www.w3.org/2000/svg" xmlns:xlink="http://www.w3.org/1999/xlink" x="0px" y="0px"
	 viewBox="-21 1011 115 138" style="enable-background:new -21 1011 115 138;" xml:space="preserve">
<style type="text/css">
	.st0{fill:#92BED6;}
	.st1{fill:#E1E1E1;}
	.st2{opacity:0.1;enable-background:new    ;}
	.st3{fill:#383838;}
	.st4{fill:#FFFFFF;}
	.st5{opacity:0.2;enable-background:new    ;}
	.st6{fill:#E5E1D0;}
</style>
<g id="books">
	<g id="book-css">
		<rect x="-21" y="1120" class="st0" width="36" height="29"/>
		<rect x="-21" y="1033" class="st1" width="36" height="87"/>
		<rect x="-3" y="1033" class="st2" width="18" height="116"/>
		<g>
			<path class="st3" d="M-8.2,1077.2c0-3.2,1.7-4.7,5.2-4.7c1.7,0,3,0.4,4,1.3c0.9,0.9,1.4,2.1,1.4,3.7c0,1.2-0.2,2.2-0.7,3.2
				l-2.1-0.8c0.2-0.4,0.3-0.8,0.4-1.2c0.1-0.4,0.2-0.8,0.2-1.1c0-1.4-1-2.2-3.1-2.2c-2,0-3,0.7-3,2.2c0,0.5,0.1,1,0.2,1.5
				c0.1,0.5,0.4,0.9,0.7,1.4h-2.4c-0.3-0.4-0.5-0.9-0.6-1.4C-8.2,1078.5-8.2,1077.9-8.2,1077.2z"/>
			<path class="st3" d="M-5,1089.8c-1,0-1.8-0.4-2.4-1.1c-0.5-0.7-0.8-1.8-0.8-3.2c0-0.7,0-1.4,0.1-1.9s0.2-1,0.4-1.5h2.3
				c-0.2,0.5-0.4,1.1-0.6,1.7c-0.2,0.6-0.2,1.2-0.2,1.7c0,1,0.3,1.5,0.9,1.5c0.2,0,0.4-0.1,0.5-0.2c0.1-0.1,0.3-0.4,0.5-0.7
				c0.2-0.3,0.4-0.8,0.6-1.3c0.3-0.8,0.6-1.4,0.9-1.7c0.3-0.4,0.6-0.6,1-0.8c0.4-0.2,0.8-0.3,1.3-0.3c0.9,0,1.6,0.4,2.1,1
				c0.5,0.7,0.7,1.7,0.7,3c0,1.2-0.3,2.4-0.8,3.6l-2-0.8c0.2-0.5,0.4-1,0.5-1.4s0.2-0.9,0.2-1.4c0-0.8-0.2-1.2-0.7-1.2
				c-0.2,0-0.5,0.1-0.6,0.4c-0.2,0.3-0.5,0.8-0.8,1.7c-0.3,0.8-0.6,1.4-0.9,1.7c-0.3,0.4-0.6,0.6-1,0.8
				C-4.1,1089.7-4.5,1089.8-5,1089.8z"/>
			<path class="st3" d="M-5,1099c-1,0-1.8-0.4-2.4-1.1c-0.5-0.7-0.8-1.8-0.8-3.2c0-0.7,0-1.4,0.1-1.9s0.2-1,0.4-1.5h2.3
				c-0.2,0.5-0.4,1.1-0.6,1.7c-0.2,0.6-0.2,1.2-0.2,1.7c0,1,0.3,1.5,0.9,1.5c0.2,0,0.4-0.1,0.5-0.2s0.3-0.4,0.5-0.7
				c0.2-0.3,0.4-0.8,0.6-1.3c0.3-0.8,0.6-1.4,0.9-1.7c0.3-0.4,0.6-0.6,1-0.8s0.8-0.3,1.3-0.3c0.9,0,1.6,0.4,2.1,1
				c0.5,0.7,0.7,1.7,0.7,3c0,1.2-0.3,2.4-0.8,3.6l-2-0.8c0.2-0.5,0.4-1,0.5-1.4s0.2-0.9,0.2-1.4c0-0.8-0.2-1.2-0.7-1.2
				c-0.2,0-0.5,0.1-0.6,0.4c-0.2,0.3-0.5,0.8-0.8,1.7c-0.3,0.8-0.6,1.4-0.9,1.7c-0.3,0.4-0.6,0.6-1,0.8C-4.1,1098.9-4.5,1099-5,1099
				z"/>
		</g>
	</g>
	<g id="book-html">
		<rect x="15" y="1033" class="st3" width="30" height="116"/>
		<rect x="15" y="1011" class="st3" width="30" height="7"/>
		<g>
			<path class="st4" d="M25.8,1060.9v-2.4h4.9v-4.5h-4.9v-2.4h11.4v2.4h-4.5v4.5h4.5v2.4H25.8z"/>
			<path class="st4" d="M25.8,1068.2v-2.4h9.4v-3.1h2v8.6h-2v-3.1H25.8z"/>
			<path class="st4" d="M25.8,1077.9l8.9-2.7v-0.1c-1.8,0.1-3,0.1-3.6,0.1h-5.3v-2.2h11.4v3.3l-8.7,2.7l0,0l8.7,2.9v3.3H25.8v-2.2
				h5.4c0.3,0,0.5,0,0.9,0c0.3,0,1.2,0,2.6,0.1v-0.1l-8.9-2.9L25.8,1077.9L25.8,1077.9z"/>
			<path class="st4" d="M25.8,1088.1h11.4v2.4h-9.4v4.6h-2V1088.1z"/>
		</g>
		<rect x="15" y="1018" class="st1" width="30" height="15"/>
		<rect x="15" y="1120" class="st1" width="30" height="29"/>
		<rect x="30" y="1011" class="st5" width="15" height="138"/>
	</g>
	<g id="book-js">
		
			<rect x="67.5" y="1121.4" transform="matrix(0.9674 -0.2534 0.2534 0.9674 -284.7619 57.0323)" class="st3" width="23" height="25.1"/>
		
			<rect x="54.9" y="1048.4" transform="matrix(0.9674 -0.2534 0.2534 0.9674 -272.9517 52.2707)" class="st6" width="23" height="74.7"/>
		
			<rect id="book-shadow" x="69.3" y="1046.5" transform="matrix(0.9674 -0.2534 0.2534 0.9674 -275.3796 54.8111)" class="st2" width="11.5" height="99.8"/>
		<g>
			<path class="st3" d="M60.6,1087.1c-0.1-0.4-0.2-0.8-0.2-1.1l1.5-0.4c0,0.3,0,0.6,0.1,0.9c0.1,0.4,0.3,0.7,0.6,0.8
				c0.3,0.1,0.7,0.1,1.3,0l8.2-2.2l0.5,1.9l-8.2,2.1c-1,0.3-1.9,0.2-2.5-0.1S60.8,1088,60.6,1087.1z"/>
			<path class="st3" d="M68.3,1096c-0.8,0.2-1.5,0.1-2.1-0.4s-1-1.2-1.3-2.2c-0.2-0.9-0.3-1.8-0.1-2.6l1.7-0.5
				c-0.1,0.7-0.2,1.2-0.2,1.6s0,0.8,0.1,1.2s0.3,0.7,0.5,0.9s0.5,0.2,0.8,0.1c0.2,0,0.3-0.1,0.4-0.3c0.1-0.2,0.2-0.3,0.3-0.5
				c0.1-0.2,0.2-0.6,0.3-1.3c0.1-0.6,0.2-1.1,0.4-1.4c0.2-0.3,0.4-0.6,0.6-0.9c0.2-0.3,0.6-0.4,1-0.5c0.8-0.2,1.5-0.1,2,0.3
				s1,1.1,1.2,2c0.1,0.5,0.2,0.9,0.2,1.3c0,0.4,0,0.9-0.1,1.4l-1.6-0.2c0.1-0.5,0.1-0.9,0.1-1.3c0-0.4,0-0.6-0.1-0.9
				c-0.1-0.4-0.2-0.6-0.5-0.7s-0.5-0.2-0.7-0.1c-0.2,0-0.3,0.1-0.4,0.2c-0.1,0.1-0.2,0.3-0.3,0.5c-0.1,0.2-0.2,0.6-0.3,1.3
				c-0.2,0.9-0.4,1.6-0.7,2S68.8,1095.8,68.3,1096z"/>
		</g>
	</g>
</g>
</svg>
