<?xml version="1.0" encoding="utf-8"?>
<!-- Generator: Adobe Illustrator 19.0.0, SVG Export Plug-In . SVG Version: 6.00 Build 0)  -->
<svg version="1.1" id="Layer_1" xmlns="http://www.w3.org/2000/svg" xmlns:xlink="http://www.w3.org/1999/xlink" x="0px" y="0px"
	 viewBox="-635 1058.1 90 90.9" style="enable-background:new -635 1058.1 90 90.9;" xml:space="preserve">
<style type="text/css">
	.st0{fill:#67A05F;}
	.st1{fill:#666666;}
	.st2{fill:#55844D;}
	.st3{fill:#383838;}
	.st4{fill:#4C4C4C;}
	.st5{fill:none;stroke:#E5E1D0;stroke-width:2;stroke-miterlimit:10;}
</style>
<g id="cactus">
	<g>
		<path class="st0" d="M-589.2,1057.3h-1.5c-12.8,0-23.2,10.3-23.2,23v38.7h48v-38.7C-566,1067.6-576.4,1057.3-589.2,1057.3z"/>
		<rect x="-621" y="1119" class="st1" width="62" height="30"/>
		<path class="st2" d="M-589.2,1057.2h-0.8v61.8h24v-38.8C-566,1067.5-576.4,1057.2-589.2,1057.2z"/>
		<rect x="-635" y="1103" class="st3" width="90" height="20"/>
		<polygon class="st4" points="-621,1123 -559,1142 -559,1122.9 		"/>
		<line class="st5" x1="-611.3" y1="1093.2" x2="-616.8" y2="1088.3"/>
		<line class="st5" x1="-568.3" y1="1090.7" x2="-562.8" y2="1088.3"/>
		<line class="st5" x1="-574.8" y1="1072.2" x2="-573.3" y2="1067.2"/>
		<line class="st5" x1="-599.3" y1="1072.2" x2="-601.8" y2="1069.7"/>
		<line class="st5" x1="-586.8" y1="1081.7" x2="-582.8" y2="1077.2"/>
		<line class="st5" x1="-596.8" y1="1090.7" x2="-599.3" y2="1085.7"/>
		<line class="st5" x1="-595.8" y1="1059.1" x2="-598.3" y2="1056.2"/>
		<line class="st5" x1="-611.3" y1="1074.2" x2="-613.8" y2="1067.2"/>
		<line class="st5" x1="-580.3" y1="1098.7" x2="-578.1" y2="1093.2"/>
		<line class="st5" x1="-580.3" y1="1061.7" x2="-578.1" y2="1058.1"/>
	</g>
</g>
</svg>
