<?xml version="1.0" encoding="utf-8"?>
<!-- Generator: Adobe Illustrator 19.0.0, SVG Export Plug-In . SVG Version: 6.00 Build 0)  -->
<svg version="1.1" id="Layer_1" xmlns="http://www.w3.org/2000/svg" xmlns:xlink="http://www.w3.org/1999/xlink" x="0px" y="0px"
	 viewBox="-462 853 380 296" style="enable-background:new -462 853 380 296;" xml:space="preserve">
<style type="text/css">
	.st0{fill:#C9C9C9;}
	.st1{fill:#E1E1E1;}
	.st2{fill:#383838;}
	.st3{fill:#B7B7B7;}
	.st4{fill:#92BED6;}
	.st5{fill:#FFFFFF;}
	.st6{fill:#D85050;}
	.st7{fill:#E2C444;}
	.st8{fill:#6CC667;}
	.st9{fill:#9F9F9F;}
	.st10{fill:#E5E1D0;}
	.st11{fill:#353434;}
	.st12{fill:#C1BFB4;}
	.st13{fill:#C6463D;}
	.st14{fill:#666666;}
	.st15{fill:#232323;}
	.st16{clip-path:url(#SVGID_2_);}
	.st17{fill:#424242;}
</style>
<g id="imac_1_">
	<g id="imac">
		<g>
			<rect x="-316" y="1093" class="st0" width="88" height="52.5"/>
		</g>
		<g>
			<path class="st1" d="M-82,1089c0,7.7-6.3,14-14,14h-352c-7.7,0-14-6.3-14-14v-23h380V1089z"/>
		</g>
		<g>
			<path class="st2" d="M-82,1067h-380V868c0-8.3,6.7-15,15-15h350c8.3,0,15,6.7,15,15V1067z"/>
		</g>
		<g>
			<rect x="-340" y="1142" class="st1" width="136" height="7"/>
		</g>
		<g id="shadow">
			<polygon class="st3" points="-316,1103 -228,1132 -228,1103 			"/>
		</g>
	</g>
	<g id="screen">
		<rect x="-445" y="869" class="st4" width="346" height="182"/>
	</g>
	<g id="browser">
		<g>
			<rect x="-337" y="889" class="st5" width="229" height="143"/>
		</g>
		<g>
			<path class="st5" d="M-108,887h-229v-7.2c0-2.1,1.8-3.8,4-3.8h221c2.2,0,4,1.7,4,3.8V887z"/>
		</g>
		<g>
			<circle class="st6" cx="-329" cy="882" r="2"/>
		</g>
		<g>
			<circle class="st7" cx="-322" cy="882" r="2"/>
		</g>
		<g>
			<circle class="st8" cx="-315" cy="882" r="2"/>
		</g>
		<g id="header">
			<g>
				<rect x="-337" y="887" class="st9" width="229" height="27"/>
			</g>
			<g>
				<circle class="st5" cx="-318" cy="900" r="7"/>
			</g>
			<g>
				<g>
					<rect x="-134" y="895" class="st5" width="14" height="2"/>
				</g>
				<g>
					<rect x="-134" y="899" class="st5" width="14" height="2"/>
				</g>
				<g>
					<rect x="-134" y="903" class="st5" width="14" height="2"/>
				</g>
			</g>
		</g>
		<g id="footer">
			<g>
				<path class="st9" d="M-111.7,1041h-221.6c-2,0-3.7-1.6-3.7-3.7V1020h229v17.3C-108,1039.4-109.6,1041-111.7,1041z"/>
			</g>
			<g>
				<rect x="-127" y="1030" class="st5" width="9" height="2"/>
				<rect x="-157" y="1030" class="st5" width="23.8" height="2"/>
			</g>
		</g>
		<g>
			<rect x="-325" y="922" class="st10" width="67" height="89"/>
		</g>
		<g>
			<rect x="-318.1" y="935" class="st11" width="37.1" height="5"/>
		</g>
		<g>
			<g>
				<rect x="-318" y="947" class="st12" width="50" height="2"/>
			</g>
			<g>
				<rect x="-318" y="955" class="st12" width="50" height="2"/>
			</g>
			<g>
				<rect x="-317.6" y="963" class="st12" width="35.6" height="2"/>
			</g>
		</g>
		<g>
			<rect x="-319" y="983" class="st13" width="35" height="9"/>
		</g>
		<g>
			<rect x="-247" y="922" class="st10" width="127" height="89"/>
		</g>
		<g>
			<g>
				<rect x="-198" y="938" class="st12" width="58" height="2"/>
			</g>
			<g>
				<rect x="-198" y="945" class="st12" width="58" height="2"/>
			</g>
			<g>
				<rect x="-198" y="953" class="st12" width="41" height="2"/>
			</g>
		</g>
		<g>
			<rect x="-238" y="932" class="st11" width="30" height="30"/>
		</g>
		<g>
			<g>
				<rect x="-198" y="977" class="st12" width="58" height="2"/>
			</g>
			<g>
				<rect x="-198" y="985" class="st12" width="58" height="2"/>
			</g>
			<g>
				<rect x="-198" y="992" class="st12" width="41" height="2"/>
			</g>
		</g>
		<g>
			<rect x="-238" y="972" class="st11" width="30" height="30"/>
		</g>
		<g>
			<path class="st14" d="M-229,945c1.1,0,2-0.9,2-2s-0.9-2-2-2s-2,0.9-2,2S-230.1,945-229,945z"/>
			<polygon class="st14" points="-220,947.3 -226,952 -229.5,948.9 -235,953 -235,959 -211,959 -211,953 			"/>
		</g>
		<g>
			<path class="st14" d="M-229,984c1.1,0,2-0.9,2-2s-0.9-2-2-2s-2,0.9-2,2S-230.1,984-229,984z"/>
			<polygon class="st14" points="-220,986.3 -226,991 -229.5,987.9 -235,992 -235,998 -211,998 -211,992 			"/>
		</g>
	</g>
	<path class="st2" d="M-301,1027c0,2.2-1.8,4-4,4h-122c-2.2,0-4-1.8-4-4V914c0-2.2,1.8-4,4-4h122c2.2,0,4,1.8,4,4V1027z"/>
	<path class="st15" d="M-423,1031h-5c-2.2,0-4-1.8-4-4V914c0-2.2,1.8-4,4-4h5V1031z"/>
	<g id="sublime-text-mask">
		<g>
			<g>
				<defs>
					<path id="SVGID_1_" d="M-301,1027c0,2.2-1.8,4-4,4h-122c-2.2,0-4-1.8-4-4V914c0-2.2,1.8-4,4-4h122c2.2,0,4,1.8,4,4V1027z"/>
				</defs>
				<clipPath id="SVGID_2_">
					<use xlink:href="#SVGID_1_"  style="overflow:visible;"/>
				</clipPath>
				<g id="sublime-text" class="st16">
					<g id="sublime-text-2">
						<g>
							<path class="st13" d="M-368,1112c0,0.5-0.4,1-1,1h-18c-0.6,0-1-0.5-1-1v-2c0-0.5,0.4-1,1-1h18c0.6,0,1,0.5,1,1V1112z"/>
						</g>
						<g>
							<path class="st10" d="M-358,1091c0,0.6-0.4,1-1,1h-18c-0.5,0-1-0.4-1-1v-2c0-0.6,0.5-1,1-1h18c0.6,0,1,0.4,1,1V1091z"/>
						</g>
						<g>
							<path class="st5" d="M-353,1060v-2c0-0.5-0.5-1-1-1h-18c-0.5,0-1,0.5-1,1v2c0,0.5,0.5,1,1,1h18
								C-353.5,1061-353,1060.5-353,1060z"/>
							<path class="st5" d="M-344,1067h-18c-0.5,0-1,0.5-1,1v2c0,0.5,0.5,1,1,1h18c0.5,0,1-0.5,1-1v-2
								C-343,1067.5-343.5,1067-344,1067z"/>
						</g>
						<g>
							<path class="st17" d="M-412,1029h18c0.5,0,1-0.5,1-1v-2c0-0.5-0.5-1-1-1h-18c-0.5,0-1,0.5-1,1v2
								C-413,1028.5-412.5,1029-412,1029z"/>
							<path class="st17" d="M-412,1040h18c0.5,0,1-0.5,1-1v-2c0-0.5-0.5-1-1-1h-18c-0.5,0-1,0.5-1,1v2
								C-413,1039.5-412.5,1040-412,1040z"/>
							<path class="st17" d="M-403,1047v2c0,0.5,0.5,1,1,1h18c0.5,0,1-0.5,1-1v-2c0-0.5-0.5-1-1-1h-18
								C-402.5,1046-403,1046.5-403,1047z"/>
							<path class="st17" d="M-399,1058v2c0,0.5,0.5,1,1,1h18c0.5,0,1-0.5,1-1v-2c0-0.5-0.4-1-1-1h-18
								C-398.5,1057-399,1057.5-399,1058z"/>
							<path class="st17" d="M-369,1067h-18c-0.5,0-1,0.5-1,1v2c0,0.5,0.5,1,1,1h18c0.5,0,1-0.5,1-1v-2
								C-368,1067.5-368.4,1067-369,1067z"/>
							<path class="st17" d="M-379,1078h-18c-0.5,0-1,0.5-1,1v2c0,0.5,0.5,1,1,1h18c0.5,0,1-0.5,1-1v-2
								C-378,1078.5-378.4,1078-379,1078z"/>
							<path class="st17" d="M-384,1088h-18c-0.5,0-1,0.5-1,1v2c0,0.5,0.5,1,1,1h18c0.5,0,1-0.5,1-1v-2
								C-383,1088.5-383.4,1088-384,1088z"/>
							<path class="st17" d="M-384,1099h-18c-0.5,0-1,0.5-1,1v2c0,0.5,0.5,1,1,1h18c0.5,0,1-0.5,1-1v-2
								C-383,1099.5-383.4,1099-384,1099z"/>
							<path class="st17" d="M-394,1109h-18c-0.5,0-1,0.5-1,1v2c0,0.5,0.5,1,1,1h18c0.5,0,1-0.5,1-1v-2
								C-393,1109.5-393.4,1109-394,1109z"/>
							<path class="st17" d="M-394,1120h-18c-0.5,0-1,0.5-1,1v2c0,0.5,0.5,1,1,1h18c0.5,0,1-0.5,1-1v-2
								C-393,1120.5-393.4,1120-394,1120z"/>
						</g>
					</g>
					<g id="sublime-text-1">
						<g>
							<path class="st13" d="M-368,1006c0,0.5-0.4,1-1,1h-18c-0.6,0-1-0.5-1-1v-2c0-0.6,0.4-1,1-1h18c0.6,0,1,0.4,1,1V1006z"/>
						</g>
						<g>
							<path class="st10" d="M-358,985c0,0.5-0.4,1-1,1h-18c-0.5,0-1-0.5-1-1v-2c0-0.6,0.5-1,1-1h18c0.6,0,1,0.4,1,1V985z"/>
						</g>
						<g>
							<path class="st5" d="M-353,954v-2c0-0.5-0.5-1-1-1h-18c-0.5,0-1,0.5-1,1v2c0,0.5,0.5,1,1,1h18C-353.5,955-353,954.6-353,954z
								"/>
							<path class="st5" d="M-344,961h-18c-0.5,0-1,0.5-1,1v2c0,0.5,0.5,1,1,1h18c0.5,0,1-0.5,1-1v-2C-343,961.5-343.5,961-344,961z
								"/>
						</g>
						<g>
							<path class="st17" d="M-412,923h18c0.5,0,1-0.5,1-1v-2c0-0.5-0.5-1-1-1h-18c-0.5,0-1,0.5-1,1v2C-413,922.6-412.5,923-412,923
								z"/>
							<path class="st17" d="M-412,934h18c0.5,0,1-0.5,1-1v-2c0-0.5-0.5-1-1-1h-18c-0.5,0-1,0.5-1,1v2C-413,933.6-412.5,934-412,934
								z"/>
							<path class="st17" d="M-403,941v2c0,0.5,0.5,1,1,1h18c0.5,0,1-0.5,1-1v-2c0-0.5-0.5-1-1-1h-18C-402.5,940-403,940.5-403,941z
								"/>
							<path class="st17" d="M-399,952v2c0,0.5,0.5,1,1,1h18c0.5,0,1-0.5,1-1v-2c0-0.5-0.4-1-1-1h-18C-398.5,951-399,951.5-399,952z
								"/>
							<path class="st17" d="M-369,961h-18c-0.5,0-1,0.5-1,1v2c0,0.5,0.5,1,1,1h18c0.5,0,1-0.5,1-1v-2C-368,961.5-368.4,961-369,961
								z"/>
							<path class="st17" d="M-379,972h-18c-0.5,0-1,0.5-1,1v2c0,0.5,0.5,1,1,1h18c0.5,0,1-0.5,1-1v-2C-378,972.5-378.4,972-379,972
								z"/>
							<path class="st17" d="M-384,982h-18c-0.5,0-1,0.5-1,1v2c0,0.5,0.5,1,1,1h18c0.5,0,1-0.5,1-1v-2C-383,982.5-383.4,982-384,982
								z"/>
							<path class="st17" d="M-384,993h-18c-0.5,0-1,0.5-1,1v2c0,0.5,0.5,1,1,1h18c0.5,0,1-0.5,1-1v-2C-383,993.5-383.4,993-384,993
								z"/>
							<path class="st17" d="M-394,1003h-18c-0.5,0-1,0.5-1,1v2c0,0.5,0.5,1,1,1h18c0.5,0,1-0.5,1-1v-2
								C-393,1003.5-393.4,1003-394,1003z"/>
							<path class="st17" d="M-394,1014h-18c-0.5,0-1,0.5-1,1v2c0,0.5,0.5,1,1,1h18c0.5,0,1-0.5,1-1v-2
								C-393,1014.5-393.4,1014-394,1014z"/>
						</g>
					</g>
				</g>
			</g>
		</g>
	</g>
</g>
</svg>
