<?xml version="1.0" encoding="utf-8"?>
<!-- Generator: Adobe Illustrator 19.0.0, SVG Export Plug-In . SVG Version: 6.00 Build 0)  -->
<svg version="1.1" id="Layer_1" xmlns="http://www.w3.org/2000/svg" xmlns:xlink="http://www.w3.org/1999/xlink" x="0px" y="0px"
	 viewBox="-91 1047 60.1 102" style="enable-background:new -91 1047 60.1 102;" xml:space="preserve">
<style type="text/css">
	.st0{fill:#232323;}
	.st1{fill:#333333;}
	.st2{fill:#E5E1D0;}
	.st3{fill:#C1BFB4;}
	.st4{fill:#353434;}
	.st5{fill:#666666;}
	.st6{fill:#9F9F9F;}
	.st7{fill:#FFFFFF;}
</style>
<g id="iphone">
	<g>
		<path class="st0" d="M-37,1149h-48c-3.5,0-6-2.5-6-6v-89.6c0-3.5,2.8-6.4,6.4-6.4h47.3c3.5,0,6.4,2.9,6.4,6.4v88.6
			C-31,1145.5-33.5,1149-37,1149z"/>
		<circle class="st1" cx="-61" cy="1141" r="4"/>
		<path class="st1" d="M-55.8,1054h-10.4c-0.4,0-0.8-0.3-0.8-0.7v-0.7c0-0.4,0.4-0.7,0.8-0.7h10.4c0.4,0,0.8,0.3,0.8,0.7v0.7
			C-55,1053.7-55.4,1054-55.8,1054z"/>
		<g>
			<rect x="-86" y="1072" class="st2" width="50" height="60"/>
		</g>
		<g>
			<g>
				<rect x="-64" y="1078" class="st3" width="25" height="2"/>
			</g>
			<g>
				<rect x="-64" y="1082" class="st3" width="25" height="2"/>
			</g>
			<g>
				<rect x="-64" y="1086" class="st3" width="18" height="2"/>
			</g>
		</g>
		<g>
			<rect x="-83" y="1076" class="st4" width="15" height="15"/>
		</g>
		<g>
			<circle class="st5" cx="-79" cy="1081" r="1"/>
			<polygon class="st5" points="-74.1,1083.1 -76.9,1085.5 -78.5,1083.9 -81,1086 -81,1089 -70,1089 -70,1086 			"/>
		</g>
		<g>
			<g>
				<rect x="-64" y="1096" class="st3" width="24" height="2"/>
			</g>
			<g>
				<rect x="-64" y="1100" class="st3" width="24" height="2"/>
			</g>
			<g>
				<rect x="-64" y="1104" class="st3" width="18" height="2"/>
			</g>
		</g>
		<g>
			<rect x="-83" y="1094" class="st4" width="15" height="15"/>
		</g>
		<g>
			<circle class="st5" cx="-79" cy="1099" r="1"/>
			<polygon class="st5" points="-74.1,1101 -76.9,1103.4 -78.5,1101.9 -81,1103.9 -81,1107 -70,1107 -70,1103.9 			"/>
		</g>
		<g>
			<g>
				<rect x="-64" y="1114" class="st3" width="24" height="2"/>
			</g>
			<g>
				<rect x="-64" y="1118" class="st3" width="24" height="2"/>
			</g>
			<g>
				<rect x="-64" y="1122" class="st3" width="18" height="2"/>
			</g>
		</g>
		<g>
			<rect x="-83" y="1112" class="st4" width="15" height="15"/>
		</g>
		<g>
			<circle class="st5" cx="-79" cy="1117" r="1"/>
			<polygon class="st5" points="-74.1,1119.2 -76.9,1121.5 -78.5,1120 -81,1122 -81,1125 -70,1125 -70,1122 			"/>
		</g>
		<g id="header_2_">
			<g>
				<rect x="-86" y="1061" class="st6" width="50" height="11"/>
			</g>
			<g>
				<ellipse class="st7" cx="-80" cy="1067" rx="3" ry="3"/>
			</g>
			<g>
				<g>
					<rect x="-47" y="1064" class="st7" width="8" height="1"/>
				</g>
				<g>
					<rect x="-47" y="1066" class="st7" width="8" height="1"/>
				</g>
				<g>
					<rect x="-47" y="1068" class="st7" width="8" height="1"/>
				</g>
			</g>
		</g>
	</g>
</g>
</svg>
